<?xml version="1.0" encoding="utf-8"?>
<svg xmlns="http://www.w3.org/2000/svg" xmlns:xlink="http://www.w3.org/1999/xlink" width="600" height="400" viewBox="0 0 2400 1600">
<defs>
  <clipPath id="clip470">
    <rect x="0" y="0" width="2400" height="1600"/>
  </clipPath>
</defs>
<path clip-path="url(#clip470)" d="M0 1600 L2400 1600 L2400 0 L0 0  Z" fill="#ffffff" fill-rule="evenodd" fill-opacity="1"/>
<defs>
  <clipPath id="clip471">
    <rect x="480" y="0" width="1681" height="1600"/>
  </clipPath>
</defs>
<path clip-path="url(#clip470)" d="M257.204 1423.18 L2352.76 1423.18 L2352.76 123.472 L257.204 123.472  Z" fill="#ffffff" fill-rule="evenodd" fill-opacity="1"/>
<defs>
  <clipPath id="clip472">
    <rect x="257" y="123" width="2097" height="1301"/>
  </clipPath>
</defs>
<polyline clip-path="url(#clip472)" style="stroke:#000000; stroke-linecap:round; stroke-linejoin:round; stroke-width:2; stroke-opacity:0.1; fill:none" points="316.512,1423.18 316.512,123.472 "/>
<polyline clip-path="url(#clip472)" style="stroke:#000000; stroke-linecap:round; stroke-linejoin:round; stroke-width:2; stroke-opacity:0.1; fill:none" points="810.746,1423.18 810.746,123.472 "/>
<polyline clip-path="url(#clip472)" style="stroke:#000000; stroke-linecap:round; stroke-linejoin:round; stroke-width:2; stroke-opacity:0.1; fill:none" points="1304.98,1423.18 1304.98,123.472 "/>
<polyline clip-path="url(#clip472)" style="stroke:#000000; stroke-linecap:round; stroke-linejoin:round; stroke-width:2; stroke-opacity:0.1; fill:none" points="1799.21,1423.18 1799.21,123.472 "/>
<polyline clip-path="url(#clip472)" style="stroke:#000000; stroke-linecap:round; stroke-linejoin:round; stroke-width:2; stroke-opacity:0.1; fill:none" points="2293.45,1423.18 2293.45,123.472 "/>
<polyline clip-path="url(#clip472)" style="stroke:#000000; stroke-linecap:round; stroke-linejoin:round; stroke-width:2; stroke-opacity:0.1; fill:none" points="257.204,1386.4 2352.76,1386.4 "/>
<polyline clip-path="url(#clip472)" style="stroke:#000000; stroke-linecap:round; stroke-linejoin:round; stroke-width:2; stroke-opacity:0.1; fill:none" points="257.204,1079.86 2352.76,1079.86 "/>
<polyline clip-path="url(#clip472)" style="stroke:#000000; stroke-linecap:round; stroke-linejoin:round; stroke-width:2; stroke-opacity:0.1; fill:none" points="257.204,773.326 2352.76,773.326 "/>
<polyline clip-path="url(#clip472)" style="stroke:#000000; stroke-linecap:round; stroke-linejoin:round; stroke-width:2; stroke-opacity:0.1; fill:none" points="257.204,466.791 2352.76,466.791 "/>
<polyline clip-path="url(#clip472)" style="stroke:#000000; stroke-linecap:round; stroke-linejoin:round; stroke-width:2; stroke-opacity:0.1; fill:none" points="257.204,160.256 2352.76,160.256 "/>
<polyline clip-path="url(#clip470)" style="stroke:#000000; stroke-linecap:round; stroke-linejoin:round; stroke-width:4; stroke-opacity:1; fill:none" points="257.204,1423.18 2352.76,1423.18 "/>
<polyline clip-path="url(#clip470)" style="stroke:#000000; stroke-linecap:round; stroke-linejoin:round; stroke-width:4; stroke-opacity:1; fill:none" points="316.512,1423.18 316.512,1404.28 "/>
<polyline clip-path="url(#clip470)" style="stroke:#000000; stroke-linecap:round; stroke-linejoin:round; stroke-width:4; stroke-opacity:1; fill:none" points="810.746,1423.18 810.746,1404.28 "/>
<polyline clip-path="url(#clip470)" style="stroke:#000000; stroke-linecap:round; stroke-linejoin:round; stroke-width:4; stroke-opacity:1; fill:none" points="1304.98,1423.18 1304.98,1404.28 "/>
<polyline clip-path="url(#clip470)" style="stroke:#000000; stroke-linecap:round; stroke-linejoin:round; stroke-width:4; stroke-opacity:1; fill:none" points="1799.21,1423.18 1799.21,1404.28 "/>
<polyline clip-path="url(#clip470)" style="stroke:#000000; stroke-linecap:round; stroke-linejoin:round; stroke-width:4; stroke-opacity:1; fill:none" points="2293.45,1423.18 2293.45,1404.28 "/>
<path clip-path="url(#clip470)" d="M263.04 1468.75 L292.716 1468.75 L292.716 1472.69 L263.04 1472.69 L263.04 1468.75 Z" fill="#000000" fill-rule="nonzero" fill-opacity="1" /><path clip-path="url(#clip470)" d="M303.619 1481.64 L311.257 1481.64 L311.257 1455.28 L302.947 1456.95 L302.947 1452.69 L311.211 1451.02 L315.887 1451.02 L315.887 1481.64 L323.526 1481.64 L323.526 1485.58 L303.619 1485.58 L303.619 1481.64 Z" fill="#000000" fill-rule="nonzero" fill-opacity="1" /><path clip-path="url(#clip470)" d="M332.97 1479.7 L337.855 1479.7 L337.855 1485.58 L332.97 1485.58 L332.97 1479.7 Z" fill="#000000" fill-rule="nonzero" fill-opacity="1" /><path clip-path="url(#clip470)" d="M358.04 1454.1 Q354.429 1454.1 352.6 1457.66 Q350.794 1461.2 350.794 1468.33 Q350.794 1475.44 352.6 1479.01 Q354.429 1482.55 358.04 1482.55 Q361.674 1482.55 363.479 1479.01 Q365.308 1475.44 365.308 1468.33 Q365.308 1461.2 363.479 1457.66 Q361.674 1454.1 358.04 1454.1 M358.04 1450.39 Q363.85 1450.39 366.905 1455 Q369.984 1459.58 369.984 1468.33 Q369.984 1477.06 366.905 1481.67 Q363.85 1486.25 358.04 1486.25 Q352.23 1486.25 349.151 1481.67 Q346.095 1477.06 346.095 1468.33 Q346.095 1459.58 349.151 1455 Q352.23 1450.39 358.04 1450.39 Z" fill="#000000" fill-rule="nonzero" fill-opacity="1" /><path clip-path="url(#clip470)" d="M757.772 1468.75 L787.448 1468.75 L787.448 1472.69 L757.772 1472.69 L757.772 1468.75 Z" fill="#000000" fill-rule="nonzero" fill-opacity="1" /><path clip-path="url(#clip470)" d="M807.54 1454.1 Q803.929 1454.1 802.1 1457.66 Q800.295 1461.2 800.295 1468.33 Q800.295 1475.44 802.1 1479.01 Q803.929 1482.55 807.54 1482.55 Q811.174 1482.55 812.98 1479.01 Q814.809 1475.44 814.809 1468.33 Q814.809 1461.2 812.98 1457.66 Q811.174 1454.1 807.54 1454.1 M807.54 1450.39 Q813.35 1450.39 816.406 1455 Q819.484 1459.58 819.484 1468.33 Q819.484 1477.06 816.406 1481.67 Q813.35 1486.25 807.54 1486.25 Q801.73 1486.25 798.651 1481.67 Q795.596 1477.06 795.596 1468.33 Q795.596 1459.58 798.651 1455 Q801.73 1450.39 807.54 1450.39 Z" fill="#000000" fill-rule="nonzero" fill-opacity="1" /><path clip-path="url(#clip470)" d="M827.702 1479.7 L832.586 1479.7 L832.586 1485.58 L827.702 1485.58 L827.702 1479.7 Z" fill="#000000" fill-rule="nonzero" fill-opacity="1" /><path clip-path="url(#clip470)" d="M842.818 1451.02 L861.174 1451.02 L861.174 1454.96 L847.1 1454.96 L847.1 1463.43 Q848.119 1463.08 849.137 1462.92 Q850.156 1462.73 851.174 1462.73 Q856.961 1462.73 860.341 1465.9 Q863.72 1469.08 863.72 1474.49 Q863.72 1480.07 860.248 1483.17 Q856.776 1486.25 850.456 1486.25 Q848.281 1486.25 846.012 1485.88 Q843.767 1485.51 841.359 1484.77 L841.359 1480.07 Q843.443 1481.2 845.665 1481.76 Q847.887 1482.32 850.364 1482.32 Q854.368 1482.32 856.706 1480.21 Q859.044 1478.1 859.044 1474.49 Q859.044 1470.88 856.706 1468.77 Q854.368 1466.67 850.364 1466.67 Q848.489 1466.67 846.614 1467.08 Q844.762 1467.5 842.818 1468.38 L842.818 1451.02 Z" fill="#000000" fill-rule="nonzero" fill-opacity="1" /><path clip-path="url(#clip470)" d="M1282.36 1454.1 Q1278.75 1454.1 1276.92 1457.66 Q1275.12 1461.2 1275.12 1468.33 Q1275.12 1475.44 1276.92 1479.01 Q1278.75 1482.55 1282.36 1482.55 Q1286 1482.55 1287.8 1479.01 Q1289.63 1475.44 1289.63 1468.33 Q1289.63 1461.2 1287.8 1457.66 Q1286 1454.1 1282.36 1454.1 M1282.36 1450.39 Q1288.17 1450.39 1291.23 1455 Q1294.31 1459.58 1294.31 1468.33 Q1294.31 1477.06 1291.23 1481.67 Q1288.17 1486.25 1282.36 1486.25 Q1276.55 1486.25 1273.48 1481.67 Q1270.42 1477.06 1270.42 1468.33 Q1270.42 1459.58 1273.48 1455 Q1276.55 1450.39 1282.36 1450.39 Z" fill="#000000" fill-rule="nonzero" fill-opacity="1" /><path clip-path="url(#clip470)" d="M1302.53 1479.7 L1307.41 1479.7 L1307.41 1485.58 L1302.53 1485.58 L1302.53 1479.7 Z" fill="#000000" fill-rule="nonzero" fill-opacity="1" /><path clip-path="url(#clip470)" d="M1327.6 1454.1 Q1323.98 1454.1 1322.16 1457.66 Q1320.35 1461.2 1320.35 1468.33 Q1320.35 1475.44 1322.16 1479.01 Q1323.98 1482.55 1327.6 1482.55 Q1331.23 1482.55 1333.04 1479.01 Q1334.86 1475.44 1334.86 1468.33 Q1334.86 1461.2 1333.04 1457.66 Q1331.23 1454.1 1327.6 1454.1 M1327.6 1450.39 Q1333.41 1450.39 1336.46 1455 Q1339.54 1459.58 1339.54 1468.33 Q1339.54 1477.06 1336.46 1481.67 Q1333.41 1486.25 1327.6 1486.25 Q1321.79 1486.25 1318.71 1481.67 Q1315.65 1477.06 1315.65 1468.33 Q1315.65 1459.58 1318.71 1455 Q1321.79 1450.39 1327.6 1450.39 Z" fill="#000000" fill-rule="nonzero" fill-opacity="1" /><path clip-path="url(#clip470)" d="M1777.1 1454.1 Q1773.48 1454.1 1771.66 1457.66 Q1769.85 1461.2 1769.85 1468.33 Q1769.85 1475.44 1771.66 1479.01 Q1773.48 1482.55 1777.1 1482.55 Q1780.73 1482.55 1782.54 1479.01 Q1784.36 1475.44 1784.36 1468.33 Q1784.36 1461.2 1782.54 1457.66 Q1780.73 1454.1 1777.1 1454.1 M1777.1 1450.39 Q1782.91 1450.39 1785.96 1455 Q1789.04 1459.58 1789.04 1468.33 Q1789.04 1477.06 1785.96 1481.67 Q1782.91 1486.25 1777.1 1486.25 Q1771.29 1486.25 1768.21 1481.67 Q1765.15 1477.06 1765.15 1468.33 Q1765.15 1459.58 1768.21 1455 Q1771.29 1450.39 1777.1 1450.39 Z" fill="#000000" fill-rule="nonzero" fill-opacity="1" /><path clip-path="url(#clip470)" d="M1797.26 1479.7 L1802.14 1479.7 L1802.14 1485.58 L1797.26 1485.58 L1797.26 1479.7 Z" fill="#000000" fill-rule="nonzero" fill-opacity="1" /><path clip-path="url(#clip470)" d="M1812.37 1451.02 L1830.73 1451.02 L1830.73 1454.96 L1816.66 1454.96 L1816.66 1463.43 Q1817.67 1463.08 1818.69 1462.92 Q1819.71 1462.73 1820.73 1462.73 Q1826.52 1462.73 1829.9 1465.9 Q1833.28 1469.08 1833.28 1474.49 Q1833.28 1480.07 1829.8 1483.17 Q1826.33 1486.25 1820.01 1486.25 Q1817.84 1486.25 1815.57 1485.88 Q1813.32 1485.51 1810.92 1484.77 L1810.92 1480.07 Q1813 1481.2 1815.22 1481.76 Q1817.44 1482.32 1819.92 1482.32 Q1823.92 1482.32 1826.26 1480.21 Q1828.6 1478.1 1828.6 1474.49 Q1828.6 1470.88 1826.26 1468.77 Q1823.92 1466.67 1819.92 1466.67 Q1818.04 1466.67 1816.17 1467.08 Q1814.32 1467.5 1812.37 1468.38 L1812.37 1451.02 Z" fill="#000000" fill-rule="nonzero" fill-opacity="1" /><path clip-path="url(#clip470)" d="M2260.6 1481.64 L2268.24 1481.64 L2268.24 1455.28 L2259.93 1456.95 L2259.93 1452.69 L2268.19 1451.02 L2272.87 1451.02 L2272.87 1481.64 L2280.51 1481.64 L2280.51 1485.58 L2260.6 1485.58 L2260.6 1481.64 Z" fill="#000000" fill-rule="nonzero" fill-opacity="1" /><path clip-path="url(#clip470)" d="M2289.95 1479.7 L2294.84 1479.7 L2294.84 1485.58 L2289.95 1485.58 L2289.95 1479.7 Z" fill="#000000" fill-rule="nonzero" fill-opacity="1" /><path clip-path="url(#clip470)" d="M2315.02 1454.1 Q2311.41 1454.1 2309.58 1457.66 Q2307.78 1461.2 2307.78 1468.33 Q2307.78 1475.44 2309.58 1479.01 Q2311.41 1482.55 2315.02 1482.55 Q2318.66 1482.55 2320.46 1479.01 Q2322.29 1475.44 2322.29 1468.33 Q2322.29 1461.2 2320.46 1457.66 Q2318.66 1454.1 2315.02 1454.1 M2315.02 1450.39 Q2320.83 1450.39 2323.89 1455 Q2326.97 1459.58 2326.97 1468.33 Q2326.97 1477.06 2323.89 1481.67 Q2320.83 1486.25 2315.02 1486.25 Q2309.21 1486.25 2306.13 1481.67 Q2303.08 1477.06 2303.08 1468.33 Q2303.08 1459.58 2306.13 1455 Q2309.21 1450.39 2315.02 1450.39 Z" fill="#000000" fill-rule="nonzero" fill-opacity="1" /><path clip-path="url(#clip470)" d="M1271.67 1571.35 Q1269.19 1577.72 1266.83 1579.66 Q1264.48 1581.6 1260.53 1581.6 L1255.85 1581.6 L1255.85 1576.7 L1259.29 1576.7 Q1261.71 1576.7 1263.05 1575.56 Q1264.38 1574.41 1266.01 1570.14 L1267.06 1567.47 L1252.64 1532.4 L1258.84 1532.4 L1269.98 1560.28 L1281.12 1532.4 L1287.33 1532.4 L1271.67 1571.35 Z" fill="#000000" fill-rule="nonzero" fill-opacity="1" /><path clip-path="url(#clip470)" d="M1322.5 1578.87 L1322.5 1583.42 L1288.64 1583.42 L1288.64 1578.87 L1322.5 1578.87 Z" fill="#000000" fill-rule="nonzero" fill-opacity="1" /><path clip-path="url(#clip470)" d="M1329.95 1562.63 L1340.45 1562.63 L1340.45 1526.38 L1329.03 1528.67 L1329.03 1522.82 L1340.39 1520.52 L1346.82 1520.52 L1346.82 1562.63 L1357.32 1562.63 L1357.32 1568.04 L1329.95 1568.04 L1329.95 1562.63 Z" fill="#000000" fill-rule="nonzero" fill-opacity="1" /><polyline clip-path="url(#clip470)" style="stroke:#000000; stroke-linecap:round; stroke-linejoin:round; stroke-width:4; stroke-opacity:1; fill:none" points="257.204,1423.18 257.204,123.472 "/>
<polyline clip-path="url(#clip470)" style="stroke:#000000; stroke-linecap:round; stroke-linejoin:round; stroke-width:4; stroke-opacity:1; fill:none" points="257.204,1386.4 276.102,1386.4 "/>
<polyline clip-path="url(#clip470)" style="stroke:#000000; stroke-linecap:round; stroke-linejoin:round; stroke-width:4; stroke-opacity:1; fill:none" points="257.204,1079.86 276.102,1079.86 "/>
<polyline clip-path="url(#clip470)" style="stroke:#000000; stroke-linecap:round; stroke-linejoin:round; stroke-width:4; stroke-opacity:1; fill:none" points="257.204,773.326 276.102,773.326 "/>
<polyline clip-path="url(#clip470)" style="stroke:#000000; stroke-linecap:round; stroke-linejoin:round; stroke-width:4; stroke-opacity:1; fill:none" points="257.204,466.791 276.102,466.791 "/>
<polyline clip-path="url(#clip470)" style="stroke:#000000; stroke-linecap:round; stroke-linejoin:round; stroke-width:4; stroke-opacity:1; fill:none" points="257.204,160.256 276.102,160.256 "/>
<path clip-path="url(#clip470)" d="M114.26 1386.85 L143.936 1386.85 L143.936 1390.78 L114.26 1390.78 L114.26 1386.85 Z" fill="#000000" fill-rule="nonzero" fill-opacity="1" /><path clip-path="url(#clip470)" d="M154.839 1399.74 L162.477 1399.74 L162.477 1373.37 L154.167 1375.04 L154.167 1370.78 L162.431 1369.12 L167.107 1369.12 L167.107 1399.74 L174.746 1399.74 L174.746 1403.68 L154.839 1403.68 L154.839 1399.74 Z" fill="#000000" fill-rule="nonzero" fill-opacity="1" /><path clip-path="url(#clip470)" d="M184.19 1397.8 L189.075 1397.8 L189.075 1403.68 L184.19 1403.68 L184.19 1397.8 Z" fill="#000000" fill-rule="nonzero" fill-opacity="1" /><path clip-path="url(#clip470)" d="M209.26 1372.19 Q205.649 1372.19 203.82 1375.76 Q202.014 1379.3 202.014 1386.43 Q202.014 1393.54 203.82 1397.1 Q205.649 1400.64 209.26 1400.64 Q212.894 1400.64 214.699 1397.1 Q216.528 1393.54 216.528 1386.43 Q216.528 1379.3 214.699 1375.76 Q212.894 1372.19 209.26 1372.19 M209.26 1368.49 Q215.07 1368.49 218.125 1373.1 Q221.204 1377.68 221.204 1386.43 Q221.204 1395.16 218.125 1399.76 Q215.07 1404.35 209.26 1404.35 Q203.449 1404.35 200.371 1399.76 Q197.315 1395.16 197.315 1386.43 Q197.315 1377.68 200.371 1373.1 Q203.449 1368.49 209.26 1368.49 Z" fill="#000000" fill-rule="nonzero" fill-opacity="1" /><path clip-path="url(#clip470)" d="M115.256 1080.31 L144.931 1080.31 L144.931 1084.25 L115.256 1084.25 L115.256 1080.31 Z" fill="#000000" fill-rule="nonzero" fill-opacity="1" /><path clip-path="url(#clip470)" d="M165.024 1065.66 Q161.413 1065.66 159.584 1069.22 Q157.778 1072.77 157.778 1079.9 Q157.778 1087 159.584 1090.57 Q161.413 1094.11 165.024 1094.11 Q168.658 1094.11 170.464 1090.57 Q172.292 1087 172.292 1079.9 Q172.292 1072.77 170.464 1069.22 Q168.658 1065.66 165.024 1065.66 M165.024 1061.96 Q170.834 1061.96 173.889 1066.56 Q176.968 1071.15 176.968 1079.9 Q176.968 1088.62 173.889 1093.23 Q170.834 1097.81 165.024 1097.81 Q159.214 1097.81 156.135 1093.23 Q153.079 1088.62 153.079 1079.9 Q153.079 1071.15 156.135 1066.56 Q159.214 1061.96 165.024 1061.96 Z" fill="#000000" fill-rule="nonzero" fill-opacity="1" /><path clip-path="url(#clip470)" d="M185.186 1091.26 L190.07 1091.26 L190.07 1097.14 L185.186 1097.14 L185.186 1091.26 Z" fill="#000000" fill-rule="nonzero" fill-opacity="1" /><path clip-path="url(#clip470)" d="M200.301 1062.58 L218.658 1062.58 L218.658 1066.52 L204.584 1066.52 L204.584 1074.99 Q205.602 1074.64 206.621 1074.48 Q207.639 1074.29 208.658 1074.29 Q214.445 1074.29 217.824 1077.47 Q221.204 1080.64 221.204 1086.05 Q221.204 1091.63 217.732 1094.73 Q214.26 1097.81 207.94 1097.81 Q205.764 1097.81 203.496 1097.44 Q201.25 1097.07 198.843 1096.33 L198.843 1091.63 Q200.926 1092.77 203.149 1093.32 Q205.371 1093.88 207.848 1093.88 Q211.852 1093.88 214.19 1091.77 Q216.528 1089.66 216.528 1086.05 Q216.528 1082.44 214.19 1080.34 Q211.852 1078.23 207.848 1078.23 Q205.973 1078.23 204.098 1078.65 Q202.246 1079.06 200.301 1079.94 L200.301 1062.58 Z" fill="#000000" fill-rule="nonzero" fill-opacity="1" /><path clip-path="url(#clip470)" d="M164.028 759.125 Q160.417 759.125 158.589 762.689 Q156.783 766.231 156.783 773.361 Q156.783 780.467 158.589 784.032 Q160.417 787.574 164.028 787.574 Q167.663 787.574 169.468 784.032 Q171.297 780.467 171.297 773.361 Q171.297 766.231 169.468 762.689 Q167.663 759.125 164.028 759.125 M164.028 755.421 Q169.839 755.421 172.894 760.027 Q175.973 764.611 175.973 773.361 Q175.973 782.088 172.894 786.694 Q169.839 791.277 164.028 791.277 Q158.218 791.277 155.14 786.694 Q152.084 782.088 152.084 773.361 Q152.084 764.611 155.14 760.027 Q158.218 755.421 164.028 755.421 Z" fill="#000000" fill-rule="nonzero" fill-opacity="1" /><path clip-path="url(#clip470)" d="M184.19 784.726 L189.075 784.726 L189.075 790.606 L184.19 790.606 L184.19 784.726 Z" fill="#000000" fill-rule="nonzero" fill-opacity="1" /><path clip-path="url(#clip470)" d="M209.26 759.125 Q205.649 759.125 203.82 762.689 Q202.014 766.231 202.014 773.361 Q202.014 780.467 203.82 784.032 Q205.649 787.574 209.26 787.574 Q212.894 787.574 214.699 784.032 Q216.528 780.467 216.528 773.361 Q216.528 766.231 214.699 762.689 Q212.894 759.125 209.26 759.125 M209.26 755.421 Q215.07 755.421 218.125 760.027 Q221.204 764.611 221.204 773.361 Q221.204 782.088 218.125 786.694 Q215.07 791.277 209.26 791.277 Q203.449 791.277 200.371 786.694 Q197.315 782.088 197.315 773.361 Q197.315 764.611 200.371 760.027 Q203.449 755.421 209.26 755.421 Z" fill="#000000" fill-rule="nonzero" fill-opacity="1" /><path clip-path="url(#clip470)" d="M165.024 452.59 Q161.413 452.59 159.584 456.155 Q157.778 459.696 157.778 466.826 Q157.778 473.932 159.584 477.497 Q161.413 481.039 165.024 481.039 Q168.658 481.039 170.464 477.497 Q172.292 473.932 172.292 466.826 Q172.292 459.696 170.464 456.155 Q168.658 452.59 165.024 452.59 M165.024 448.886 Q170.834 448.886 173.889 453.493 Q176.968 458.076 176.968 466.826 Q176.968 475.553 173.889 480.159 Q170.834 484.742 165.024 484.742 Q159.214 484.742 156.135 480.159 Q153.079 475.553 153.079 466.826 Q153.079 458.076 156.135 453.493 Q159.214 448.886 165.024 448.886 Z" fill="#000000" fill-rule="nonzero" fill-opacity="1" /><path clip-path="url(#clip470)" d="M185.186 478.192 L190.07 478.192 L190.07 484.071 L185.186 484.071 L185.186 478.192 Z" fill="#000000" fill-rule="nonzero" fill-opacity="1" /><path clip-path="url(#clip470)" d="M200.301 449.511 L218.658 449.511 L218.658 453.446 L204.584 453.446 L204.584 461.918 Q205.602 461.571 206.621 461.409 Q207.639 461.224 208.658 461.224 Q214.445 461.224 217.824 464.395 Q221.204 467.567 221.204 472.983 Q221.204 478.562 217.732 481.664 Q214.26 484.742 207.94 484.742 Q205.764 484.742 203.496 484.372 Q201.25 484.002 198.843 483.261 L198.843 478.562 Q200.926 479.696 203.149 480.252 Q205.371 480.807 207.848 480.807 Q211.852 480.807 214.19 478.701 Q216.528 476.594 216.528 472.983 Q216.528 469.372 214.19 467.266 Q211.852 465.159 207.848 465.159 Q205.973 465.159 204.098 465.576 Q202.246 465.993 200.301 466.872 L200.301 449.511 Z" fill="#000000" fill-rule="nonzero" fill-opacity="1" /><path clip-path="url(#clip470)" d="M154.839 173.601 L162.477 173.601 L162.477 147.236 L154.167 148.902 L154.167 144.643 L162.431 142.976 L167.107 142.976 L167.107 173.601 L174.746 173.601 L174.746 177.536 L154.839 177.536 L154.839 173.601 Z" fill="#000000" fill-rule="nonzero" fill-opacity="1" /><path clip-path="url(#clip470)" d="M184.19 171.657 L189.075 171.657 L189.075 177.536 L184.19 177.536 L184.19 171.657 Z" fill="#000000" fill-rule="nonzero" fill-opacity="1" /><path clip-path="url(#clip470)" d="M209.26 146.055 Q205.649 146.055 203.82 149.62 Q202.014 153.161 202.014 160.291 Q202.014 167.397 203.82 170.962 Q205.649 174.504 209.26 174.504 Q212.894 174.504 214.699 170.962 Q216.528 167.397 216.528 160.291 Q216.528 153.161 214.699 149.62 Q212.894 146.055 209.26 146.055 M209.26 142.351 Q215.07 142.351 218.125 146.958 Q221.204 151.541 221.204 160.291 Q221.204 169.018 218.125 173.624 Q215.07 178.208 209.26 178.208 Q203.449 178.208 200.371 173.624 Q197.315 169.018 197.315 160.291 Q197.315 151.541 200.371 146.958 Q203.449 142.351 209.26 142.351 Z" fill="#000000" fill-rule="nonzero" fill-opacity="1" /><path clip-path="url(#clip470)" d="M67.3143 806.38 Q73.68 808.863 75.6216 811.218 Q77.5631 813.573 77.5631 817.52 L77.5631 822.199 L72.6615 822.199 L72.6615 818.761 Q72.6615 816.342 71.5157 815.005 Q70.3699 813.669 66.1048 812.045 L63.4312 810.995 L28.3562 825.413 L28.3562 819.207 L56.238 808.067 L28.3562 796.927 L28.3562 790.72 L67.3143 806.38 Z" fill="#000000" fill-rule="nonzero" fill-opacity="1" /><path clip-path="url(#clip470)" d="M74.8259 755.55 L79.3773 755.55 L79.3773 789.415 L74.8259 789.415 L74.8259 755.55 Z" fill="#000000" fill-rule="nonzero" fill-opacity="1" /><path clip-path="url(#clip470)" d="M58.5933 743.678 L58.5933 721.239 L64.0042 721.239 L64.0042 751.412 L58.5933 751.412 Q54.8057 747.752 48.44 741.45 Q42.0425 735.116 40.1964 733.493 Q36.7271 730.405 34.34 729.196 Q31.921 727.954 29.5975 727.954 Q25.8099 727.954 23.4228 730.628 Q21.0356 733.27 21.0356 737.535 Q21.0356 740.559 22.086 743.932 Q23.1363 747.274 25.2688 751.094 L18.7758 751.094 Q17.2162 747.211 16.4205 743.837 Q15.6248 740.463 15.6248 737.662 Q15.6248 730.278 19.3169 725.886 Q23.009 721.493 29.1837 721.493 Q32.112 721.493 34.7537 722.607 Q37.3637 723.689 40.9285 726.586 Q41.8515 727.381 46.2757 731.647 Q50.668 735.912 58.5933 743.678 Z" fill="#000000" fill-rule="nonzero" fill-opacity="1" /><path clip-path="url(#clip470)" d="M883.969 14.0809 L883.969 22.0612 Q879.311 19.8332 875.179 18.7395 Q871.047 17.6457 867.199 17.6457 Q860.515 17.6457 856.869 20.2383 Q853.264 22.8309 853.264 27.611 Q853.264 31.6214 855.654 33.6873 Q858.084 35.7128 864.809 36.9686 L869.751 37.9813 Q878.906 39.7232 883.24 44.1387 Q887.615 48.5136 887.615 55.8863 Q887.615 64.6767 881.701 69.2137 Q875.827 73.7508 864.444 73.7508 Q860.15 73.7508 855.289 72.7785 Q850.469 71.8063 845.283 69.9024 L845.283 61.4765 Q850.266 64.2716 855.046 65.6895 Q859.826 67.1073 864.444 67.1073 Q871.452 67.1073 875.26 64.3527 Q879.068 61.598 879.068 56.4939 Q879.068 52.0379 876.313 49.5264 Q873.599 47.0148 867.361 45.759 L862.378 44.7868 Q853.223 42.9639 849.132 39.075 Q845.04 35.1862 845.04 28.2591 Q845.04 20.2383 850.671 15.6203 Q856.342 11.0023 866.267 11.0023 Q870.52 11.0023 874.936 11.7719 Q879.351 12.5416 883.969 14.0809 Z" fill="#000000" fill-rule="nonzero" fill-opacity="1" /><path clip-path="url(#clip470)" d="M907.262 65.7705 L907.262 89.8329 L899.768 89.8329 L899.768 27.2059 L907.262 27.2059 L907.262 34.0924 Q909.612 30.0415 913.177 28.0971 Q916.782 26.1121 921.764 26.1121 Q930.028 26.1121 935.173 32.6746 Q940.358 39.2371 940.358 49.9314 Q940.358 60.6258 935.173 67.1883 Q930.028 73.7508 921.764 73.7508 Q916.782 73.7508 913.177 71.8063 Q909.612 69.8214 907.262 65.7705 M932.621 49.9314 Q932.621 41.7081 929.218 37.0496 Q925.856 32.3505 919.942 32.3505 Q914.027 32.3505 910.624 37.0496 Q907.262 41.7081 907.262 49.9314 Q907.262 58.1548 910.624 62.8538 Q914.027 67.5124 919.942 67.5124 Q925.856 67.5124 929.218 62.8538 Q932.621 58.1548 932.621 49.9314 Z" fill="#000000" fill-rule="nonzero" fill-opacity="1" /><path clip-path="url(#clip470)" d="M973.332 49.7694 Q964.299 49.7694 960.815 51.8354 Q957.331 53.9013 957.331 58.8839 Q957.331 62.8538 959.924 65.2034 Q962.557 67.5124 967.054 67.5124 Q973.251 67.5124 976.978 63.1374 Q980.746 58.7219 980.746 51.4303 L980.746 49.7694 L973.332 49.7694 M988.199 46.6907 L988.199 72.576 L980.746 72.576 L980.746 65.6895 Q978.194 69.8214 974.386 71.8063 Q970.578 73.7508 965.069 73.7508 Q958.101 73.7508 953.969 69.8619 Q949.878 65.9325 949.878 59.3701 Q949.878 51.7138 954.982 47.825 Q960.126 43.9361 970.294 43.9361 L980.746 43.9361 L980.746 43.2069 Q980.746 38.0623 977.343 35.2672 Q973.981 32.4315 967.864 32.4315 Q963.975 32.4315 960.289 33.3632 Q956.602 34.295 953.199 36.1584 L953.199 29.2718 Q957.291 27.692 961.139 26.9223 Q964.988 26.1121 968.633 26.1121 Q978.477 26.1121 983.338 31.2163 Q988.199 36.3204 988.199 46.6907 Z" fill="#000000" fill-rule="nonzero" fill-opacity="1" /><path clip-path="url(#clip470)" d="M1029.84 34.1734 Q1028.59 33.4443 1027.09 33.1202 Q1025.63 32.7556 1023.85 32.7556 Q1017.53 32.7556 1014.13 36.8875 Q1010.76 40.9789 1010.76 48.6757 L1010.76 72.576 L1003.27 72.576 L1003.27 27.2059 L1010.76 27.2059 L1010.76 34.2544 Q1013.11 30.1225 1016.88 28.1376 Q1020.65 26.1121 1026.03 26.1121 Q1026.8 26.1121 1027.74 26.2337 Q1028.67 26.3147 1029.8 26.5172 L1029.84 34.1734 Z" fill="#000000" fill-rule="nonzero" fill-opacity="1" /><path clip-path="url(#clip470)" d="M1066.58 28.5427 L1066.58 35.5912 Q1063.42 33.9709 1060.02 33.1607 Q1056.62 32.3505 1052.97 32.3505 Q1047.42 32.3505 1044.63 34.0519 Q1041.87 35.7533 1041.87 39.156 Q1041.87 41.7486 1043.86 43.2475 Q1045.84 44.7058 1051.84 46.0426 L1054.39 46.6097 Q1062.33 48.3111 1065.65 51.4303 Q1069.01 54.509 1069.01 60.0587 Q1069.01 66.3781 1063.99 70.0644 Q1059.01 73.7508 1050.26 73.7508 Q1046.61 73.7508 1042.64 73.0216 Q1038.71 72.3329 1034.34 70.9151 L1034.34 63.2184 Q1038.47 65.3654 1042.48 66.4591 Q1046.49 67.5124 1050.42 67.5124 Q1055.69 67.5124 1058.52 65.73 Q1061.36 63.9071 1061.36 60.6258 Q1061.36 57.5877 1059.29 55.9673 Q1057.27 54.3469 1050.34 52.8481 L1047.75 52.2405 Q1040.82 50.7821 1037.74 47.7845 Q1034.66 44.7463 1034.66 39.4801 Q1034.66 33.0797 1039.2 29.5959 Q1043.74 26.1121 1052.08 26.1121 Q1056.21 26.1121 1059.86 26.7198 Q1063.51 27.3274 1066.58 28.5427 Z" fill="#000000" fill-rule="nonzero" fill-opacity="1" /><path clip-path="url(#clip470)" d="M1119.69 48.0275 L1119.69 51.6733 L1085.42 51.6733 Q1085.91 59.3701 1090.04 63.421 Q1094.21 67.4314 1101.62 67.4314 Q1105.92 67.4314 1109.93 66.3781 Q1113.98 65.3249 1117.95 63.2184 L1117.95 70.267 Q1113.94 71.9684 1109.73 72.8596 Q1105.51 73.7508 1101.18 73.7508 Q1090.32 73.7508 1083.96 67.4314 Q1077.64 61.1119 1077.64 50.3365 Q1077.64 39.1965 1083.64 32.6746 Q1089.67 26.1121 1099.88 26.1121 Q1109.04 26.1121 1114.34 32.0264 Q1119.69 37.9003 1119.69 48.0275 M1112.24 45.84 Q1112.16 39.7232 1108.79 36.0774 Q1105.47 32.4315 1099.96 32.4315 Q1093.73 32.4315 1089.96 35.9558 Q1086.23 39.4801 1085.66 45.8805 L1112.24 45.84 Z" fill="#000000" fill-rule="nonzero" fill-opacity="1" /><path clip-path="url(#clip470)" d="M1199.86 63.9476 L1199.86 47.7034 L1186.49 47.7034 L1186.49 40.9789 L1207.96 40.9789 L1207.96 66.9452 Q1203.22 70.3075 1197.51 72.0494 Q1191.8 73.7508 1185.32 73.7508 Q1171.14 73.7508 1163.12 65.4869 Q1155.14 57.1826 1155.14 42.3968 Q1155.14 27.5705 1163.12 19.3066 Q1171.14 11.0023 1185.32 11.0023 Q1191.23 11.0023 1196.54 12.4606 Q1201.88 13.9189 1206.38 16.7545 L1206.38 25.464 Q1201.84 21.6156 1196.74 19.6712 Q1191.64 17.7268 1186 17.7268 Q1174.91 17.7268 1169.32 23.9246 Q1163.77 30.1225 1163.77 42.3968 Q1163.77 54.6305 1169.32 60.8284 Q1174.91 67.0263 1186 67.0263 Q1190.34 67.0263 1193.74 66.2971 Q1197.14 65.5274 1199.86 63.9476 Z" fill="#000000" fill-rule="nonzero" fill-opacity="1" /><path clip-path="url(#clip470)" d="M1248.87 34.1734 Q1247.62 33.4443 1246.12 33.1202 Q1244.66 32.7556 1242.88 32.7556 Q1236.56 32.7556 1233.16 36.8875 Q1229.8 40.9789 1229.8 48.6757 L1229.8 72.576 L1222.3 72.576 L1222.3 27.2059 L1229.8 27.2059 L1229.8 34.2544 Q1232.14 30.1225 1235.91 28.1376 Q1239.68 26.1121 1245.07 26.1121 Q1245.84 26.1121 1246.77 26.2337 Q1247.7 26.3147 1248.83 26.5172 L1248.87 34.1734 Z" fill="#000000" fill-rule="nonzero" fill-opacity="1" /><path clip-path="url(#clip470)" d="M1256.69 27.2059 L1264.15 27.2059 L1264.15 72.576 L1256.69 72.576 L1256.69 27.2059 M1256.69 9.54393 L1264.15 9.54393 L1264.15 18.9825 L1256.69 18.9825 L1256.69 9.54393 Z" fill="#000000" fill-rule="nonzero" fill-opacity="1" /><path clip-path="url(#clip470)" d="M1309.6 34.0924 L1309.6 9.54393 L1317.05 9.54393 L1317.05 72.576 L1309.6 72.576 L1309.6 65.7705 Q1307.25 69.8214 1303.64 71.8063 Q1300.08 73.7508 1295.06 73.7508 Q1286.83 73.7508 1281.65 67.1883 Q1276.5 60.6258 1276.5 49.9314 Q1276.5 39.2371 1281.65 32.6746 Q1286.83 26.1121 1295.06 26.1121 Q1300.08 26.1121 1303.64 28.0971 Q1307.25 30.0415 1309.6 34.0924 M1284.2 49.9314 Q1284.2 58.1548 1287.56 62.8538 Q1290.96 67.5124 1296.88 67.5124 Q1302.79 67.5124 1306.2 62.8538 Q1309.6 58.1548 1309.6 49.9314 Q1309.6 41.7081 1306.2 37.0496 Q1302.79 32.3505 1296.88 32.3505 Q1290.96 32.3505 1287.56 37.0496 Q1284.2 41.7081 1284.2 49.9314 Z" fill="#000000" fill-rule="nonzero" fill-opacity="1" /><path clip-path="url(#clip470)" d="M1404.39 16.7545 L1404.39 25.383 Q1400.26 21.5346 1395.56 19.6307 Q1390.9 17.7268 1385.63 17.7268 Q1375.26 17.7268 1369.75 24.0867 Q1364.24 30.4061 1364.24 42.3968 Q1364.24 54.3469 1369.75 60.7069 Q1375.26 67.0263 1385.63 67.0263 Q1390.9 67.0263 1395.56 65.1223 Q1400.26 63.2184 1404.39 59.3701 L1404.39 67.9175 Q1400.1 70.8341 1395.27 72.2924 Q1390.49 73.7508 1385.15 73.7508 Q1371.41 73.7508 1363.52 65.3654 Q1355.62 56.9395 1355.62 42.3968 Q1355.62 27.8135 1363.52 19.4281 Q1371.41 11.0023 1385.15 11.0023 Q1390.58 11.0023 1395.36 12.4606 Q1400.18 13.8784 1404.39 16.7545 Z" fill="#000000" fill-rule="nonzero" fill-opacity="1" /><path clip-path="url(#clip470)" d="M1434.28 32.4315 Q1428.29 32.4315 1424.81 37.1306 Q1421.32 41.7891 1421.32 49.9314 Q1421.32 58.0738 1424.77 62.7728 Q1428.25 67.4314 1434.28 67.4314 Q1440.24 67.4314 1443.72 62.7323 Q1447.21 58.0333 1447.21 49.9314 Q1447.21 41.8701 1443.72 37.1711 Q1440.24 32.4315 1434.28 32.4315 M1434.28 26.1121 Q1444.01 26.1121 1449.56 32.4315 Q1455.11 38.7509 1455.11 49.9314 Q1455.11 61.0714 1449.56 67.4314 Q1444.01 73.7508 1434.28 73.7508 Q1424.52 73.7508 1418.97 67.4314 Q1413.46 61.0714 1413.46 49.9314 Q1413.46 38.7509 1418.97 32.4315 Q1424.52 26.1121 1434.28 26.1121 Z" fill="#000000" fill-rule="nonzero" fill-opacity="1" /><path clip-path="url(#clip470)" d="M1502.79 35.9153 Q1505.58 30.8922 1509.47 28.5022 Q1513.36 26.1121 1518.62 26.1121 Q1525.71 26.1121 1529.56 31.0947 Q1533.41 36.0368 1533.41 45.1919 L1533.41 72.576 L1525.92 72.576 L1525.92 45.4349 Q1525.92 38.913 1523.61 35.7533 Q1521.3 32.5936 1516.56 32.5936 Q1510.77 32.5936 1507.4 36.4419 Q1504.04 40.2903 1504.04 46.9338 L1504.04 72.576 L1496.55 72.576 L1496.55 45.4349 Q1496.55 38.8725 1494.24 35.7533 Q1491.93 32.5936 1487.11 32.5936 Q1481.4 32.5936 1478.03 36.4824 Q1474.67 40.3308 1474.67 46.9338 L1474.67 72.576 L1467.18 72.576 L1467.18 27.2059 L1474.67 27.2059 L1474.67 34.2544 Q1477.22 30.082 1480.79 28.0971 Q1484.35 26.1121 1489.26 26.1121 Q1494.2 26.1121 1497.64 28.6237 Q1501.12 31.1352 1502.79 35.9153 Z" fill="#000000" fill-rule="nonzero" fill-opacity="1" /><path clip-path="url(#clip470)" d="M1580.85 49.9314 Q1580.85 41.7081 1577.44 37.0496 Q1574.08 32.3505 1568.17 32.3505 Q1562.25 32.3505 1558.85 37.0496 Q1555.49 41.7081 1555.49 49.9314 Q1555.49 58.1548 1558.85 62.8538 Q1562.25 67.5124 1568.17 67.5124 Q1574.08 67.5124 1577.44 62.8538 Q1580.85 58.1548 1580.85 49.9314 M1555.49 34.0924 Q1557.84 30.0415 1561.4 28.0971 Q1565.01 26.1121 1569.99 26.1121 Q1578.25 26.1121 1583.4 32.6746 Q1588.58 39.2371 1588.58 49.9314 Q1588.58 60.6258 1583.4 67.1883 Q1578.25 73.7508 1569.99 73.7508 Q1565.01 73.7508 1561.4 71.8063 Q1557.84 69.8214 1555.49 65.7705 L1555.49 72.576 L1547.99 72.576 L1547.99 9.54393 L1555.49 9.54393 L1555.49 34.0924 Z" fill="#000000" fill-rule="nonzero" fill-opacity="1" /><path clip-path="url(#clip470)" d="M1600.94 27.2059 L1608.39 27.2059 L1608.39 72.576 L1600.94 72.576 L1600.94 27.2059 M1600.94 9.54393 L1608.39 9.54393 L1608.39 18.9825 L1600.94 18.9825 L1600.94 9.54393 Z" fill="#000000" fill-rule="nonzero" fill-opacity="1" /><path clip-path="url(#clip470)" d="M1661.7 45.1919 L1661.7 72.576 L1654.25 72.576 L1654.25 45.4349 Q1654.25 38.994 1651.74 35.7938 Q1649.23 32.5936 1644.2 32.5936 Q1638.17 32.5936 1634.68 36.4419 Q1631.2 40.2903 1631.2 46.9338 L1631.2 72.576 L1623.71 72.576 L1623.71 27.2059 L1631.2 27.2059 L1631.2 34.2544 Q1633.87 30.163 1637.48 28.1376 Q1641.12 26.1121 1645.86 26.1121 Q1653.68 26.1121 1657.69 30.9732 Q1661.7 35.7938 1661.7 45.1919 Z" fill="#000000" fill-rule="nonzero" fill-opacity="1" /><path clip-path="url(#clip470)" d="M1715.38 48.0275 L1715.38 51.6733 L1681.11 51.6733 Q1681.59 59.3701 1685.72 63.421 Q1689.9 67.4314 1697.31 67.4314 Q1701.6 67.4314 1705.61 66.3781 Q1709.67 65.3249 1713.64 63.2184 L1713.64 70.267 Q1709.62 71.9684 1705.41 72.8596 Q1701.2 73.7508 1696.86 73.7508 Q1686.01 73.7508 1679.65 67.4314 Q1673.33 61.1119 1673.33 50.3365 Q1673.33 39.1965 1679.32 32.6746 Q1685.36 26.1121 1695.57 26.1121 Q1704.72 26.1121 1710.03 32.0264 Q1715.38 37.9003 1715.38 48.0275 M1707.92 45.84 Q1707.84 39.7232 1704.48 36.0774 Q1701.16 32.4315 1695.65 32.4315 Q1689.41 32.4315 1685.64 35.9558 Q1681.92 39.4801 1681.35 45.8805 L1707.92 45.84 Z" fill="#000000" fill-rule="nonzero" fill-opacity="1" /><path clip-path="url(#clip470)" d="M1757.47 34.0924 L1757.47 9.54393 L1764.92 9.54393 L1764.92 72.576 L1757.47 72.576 L1757.47 65.7705 Q1755.12 69.8214 1751.51 71.8063 Q1747.95 73.7508 1742.92 73.7508 Q1734.7 73.7508 1729.51 67.1883 Q1724.37 60.6258 1724.37 49.9314 Q1724.37 39.2371 1729.51 32.6746 Q1734.7 26.1121 1742.92 26.1121 Q1747.95 26.1121 1751.51 28.0971 Q1755.12 30.0415 1757.47 34.0924 M1732.07 49.9314 Q1732.07 58.1548 1735.43 62.8538 Q1738.83 67.5124 1744.75 67.5124 Q1750.66 67.5124 1754.06 62.8538 Q1757.47 58.1548 1757.47 49.9314 Q1757.47 41.7081 1754.06 37.0496 Q1750.66 32.3505 1744.75 32.3505 Q1738.83 32.3505 1735.43 37.0496 Q1732.07 41.7081 1732.07 49.9314 Z" fill="#000000" fill-rule="nonzero" fill-opacity="1" /><circle clip-path="url(#clip472)" cx="1304.98" cy="773.326" r="14.4" fill="#009af9" fill-rule="evenodd" fill-opacity="1" stroke="#000000" stroke-opacity="1" stroke-width="3.2"/>
<circle clip-path="url(#clip472)" cx="1304.98" cy="160.256" r="14.4" fill="#009af9" fill-rule="evenodd" fill-opacity="1" stroke="#000000" stroke-opacity="1" stroke-width="3.2"/>
<circle clip-path="url(#clip472)" cx="1304.98" cy="339.82" r="14.4" fill="#009af9" fill-rule="evenodd" fill-opacity="1" stroke="#000000" stroke-opacity="1" stroke-width="3.2"/>
<circle clip-path="url(#clip472)" cx="1304.98" cy="1206.83" r="14.4" fill="#009af9" fill-rule="evenodd" fill-opacity="1" stroke="#000000" stroke-opacity="1" stroke-width="3.2"/>
<circle clip-path="url(#clip472)" cx="1304.98" cy="1386.4" r="14.4" fill="#009af9" fill-rule="evenodd" fill-opacity="1" stroke="#000000" stroke-opacity="1" stroke-width="3.2"/>
<circle clip-path="url(#clip472)" cx="2293.45" cy="773.326" r="14.4" fill="#009af9" fill-rule="evenodd" fill-opacity="1" stroke="#000000" stroke-opacity="1" stroke-width="3.2"/>
<circle clip-path="url(#clip472)" cx="316.512" cy="773.326" r="14.4" fill="#009af9" fill-rule="evenodd" fill-opacity="1" stroke="#000000" stroke-opacity="1" stroke-width="3.2"/>
<path clip-path="url(#clip470)" d="M2020.92 270.476 L2282.9 270.476 L2282.9 166.796 L2020.92 166.796  Z" fill="#ffffff" fill-rule="evenodd" fill-opacity="1"/>
<polyline clip-path="url(#clip470)" style="stroke:#000000; stroke-linecap:round; stroke-linejoin:round; stroke-width:4; stroke-opacity:1; fill:none" points="2020.92,270.476 2282.9,270.476 2282.9,166.796 2020.92,166.796 2020.92,270.476 "/>
<circle clip-path="url(#clip470)" cx="2114.05" cy="218.636" r="20.48" fill="#009af9" fill-rule="evenodd" fill-opacity="1" stroke="#000000" stroke-opacity="1" stroke-width="4.55111"/>
<path clip-path="url(#clip470)" d="M2221.03 238.323 Q2219.23 242.953 2217.51 244.365 Q2215.8 245.777 2212.93 245.777 L2209.53 245.777 L2209.53 242.212 L2212.03 242.212 Q2213.79 242.212 2214.76 241.379 Q2215.73 240.545 2216.91 237.443 L2217.68 235.499 L2207.19 209.99 L2211.7 209.99 L2219.81 230.268 L2227.91 209.99 L2232.42 209.99 L2221.03 238.323 Z" fill="#000000" fill-rule="nonzero" fill-opacity="1" /><path clip-path="url(#clip470)" d="M2239.71 231.981 L2247.35 231.981 L2247.35 205.615 L2239.04 207.282 L2239.04 203.022 L2247.31 201.356 L2251.98 201.356 L2251.98 231.981 L2259.62 231.981 L2259.62 235.916 L2239.71 235.916 L2239.71 231.981 Z" fill="#000000" fill-rule="nonzero" fill-opacity="1" /></svg>
