<?xml version="1.0" encoding="utf-8"?>
<svg xmlns="http://www.w3.org/2000/svg" xmlns:xlink="http://www.w3.org/1999/xlink" width="600" height="400" viewBox="0 0 2400 1600">
<defs>
  <clipPath id="clip690">
    <rect x="0" y="0" width="2400" height="1600"/>
  </clipPath>
</defs>
<path clip-path="url(#clip690)" d="M0 1600 L2400 1600 L2400 0 L0 0  Z" fill="#ffffff" fill-rule="evenodd" fill-opacity="1"/>
<defs>
  <clipPath id="clip691">
    <rect x="480" y="0" width="1681" height="1600"/>
  </clipPath>
</defs>
<defs>
  <clipPath id="clip692">
    <rect x="186" y="123" width="2167" height="1301"/>
  </clipPath>
</defs>
<path clip-path="url(#clip692)" d="M786.002 1144.64 L786.002 531.57 L1139.96 225.035 L1753.03 402.013 L1753.03 1015.08 L1399.07 1321.62 L786.002 1144.64  Z" fill="#ffffff" fill-rule="evenodd" fill-opacity="1"/>
<polyline clip-path="url(#clip692)" style="stroke:#000000; stroke-linecap:round; stroke-linejoin:round; stroke-width:2; stroke-opacity:0.1; fill:none" points="775.383,1172.23 1150.58,847.3 1150.58,197.447 "/>
<polyline clip-path="url(#clip692)" style="stroke:#000000; stroke-linecap:round; stroke-linejoin:round; stroke-width:2; stroke-opacity:0.1; fill:none" points="928.651,1216.47 1303.84,891.545 1303.84,241.691 "/>
<polyline clip-path="url(#clip692)" style="stroke:#000000; stroke-linecap:round; stroke-linejoin:round; stroke-width:2; stroke-opacity:0.1; fill:none" points="1081.92,1260.72 1457.11,935.789 1457.11,285.936 "/>
<polyline clip-path="url(#clip692)" style="stroke:#000000; stroke-linecap:round; stroke-linejoin:round; stroke-width:2; stroke-opacity:0.1; fill:none" points="1235.19,1304.96 1610.38,980.034 1610.38,330.18 "/>
<polyline clip-path="url(#clip692)" style="stroke:#000000; stroke-linecap:round; stroke-linejoin:round; stroke-width:2; stroke-opacity:0.1; fill:none" points="1388.45,1349.21 1763.65,1024.28 1763.65,374.425 "/>
<polyline clip-path="url(#clip692)" style="stroke:#000000; stroke-linecap:round; stroke-linejoin:round; stroke-width:2; stroke-opacity:0.1; fill:none" points="1417.46,1345.32 767.61,1157.72 767.61,507.868 "/>
<polyline clip-path="url(#clip692)" style="stroke:#000000; stroke-linecap:round; stroke-linejoin:round; stroke-width:2; stroke-opacity:0.1; fill:none" points="1505.95,1268.68 856.099,1081.09 856.099,431.234 "/>
<polyline clip-path="url(#clip692)" style="stroke:#000000; stroke-linecap:round; stroke-linejoin:round; stroke-width:2; stroke-opacity:0.1; fill:none" points="1594.44,1192.05 944.588,1004.45 944.588,354.601 "/>
<polyline clip-path="url(#clip692)" style="stroke:#000000; stroke-linecap:round; stroke-linejoin:round; stroke-width:2; stroke-opacity:0.1; fill:none" points="1682.93,1115.42 1033.08,927.821 1033.08,277.967 "/>
<polyline clip-path="url(#clip692)" style="stroke:#000000; stroke-linecap:round; stroke-linejoin:round; stroke-width:2; stroke-opacity:0.1; fill:none" points="1771.42,1038.78 1121.57,851.187 1121.57,201.333 "/>
<polyline clip-path="url(#clip692)" style="stroke:#000000; stroke-linecap:round; stroke-linejoin:round; stroke-width:2; stroke-opacity:0.1; fill:none" points="756.991,1148.53 1132.18,823.599 1782.04,1011.2 "/>
<polyline clip-path="url(#clip692)" style="stroke:#000000; stroke-linecap:round; stroke-linejoin:round; stroke-width:2; stroke-opacity:0.1; fill:none" points="756.991,995.259 1132.18,670.332 1782.04,857.928 "/>
<polyline clip-path="url(#clip692)" style="stroke:#000000; stroke-linecap:round; stroke-linejoin:round; stroke-width:2; stroke-opacity:0.1; fill:none" points="756.991,841.991 1132.18,517.064 1782.04,704.661 "/>
<polyline clip-path="url(#clip692)" style="stroke:#000000; stroke-linecap:round; stroke-linejoin:round; stroke-width:2; stroke-opacity:0.1; fill:none" points="756.991,688.724 1132.18,363.797 1782.04,551.393 "/>
<polyline clip-path="url(#clip692)" style="stroke:#000000; stroke-linecap:round; stroke-linejoin:round; stroke-width:2; stroke-opacity:0.1; fill:none" points="756.991,535.456 1132.18,210.529 1782.04,398.126 "/>
<polyline clip-path="url(#clip690)" style="stroke:#000000; stroke-linecap:round; stroke-linejoin:round; stroke-width:4; stroke-opacity:1; fill:none" points="756.991,1166.92 1406.85,1354.51 "/>
<polyline clip-path="url(#clip690)" style="stroke:#000000; stroke-linecap:round; stroke-linejoin:round; stroke-width:4; stroke-opacity:1; fill:none" points="775.383,1172.23 779.886,1168.33 "/>
<polyline clip-path="url(#clip690)" style="stroke:#000000; stroke-linecap:round; stroke-linejoin:round; stroke-width:4; stroke-opacity:1; fill:none" points="928.651,1216.47 933.153,1212.57 "/>
<polyline clip-path="url(#clip690)" style="stroke:#000000; stroke-linecap:round; stroke-linejoin:round; stroke-width:4; stroke-opacity:1; fill:none" points="1081.92,1260.72 1086.42,1256.82 "/>
<polyline clip-path="url(#clip690)" style="stroke:#000000; stroke-linecap:round; stroke-linejoin:round; stroke-width:4; stroke-opacity:1; fill:none" points="1235.19,1304.96 1239.69,1301.06 "/>
<polyline clip-path="url(#clip690)" style="stroke:#000000; stroke-linecap:round; stroke-linejoin:round; stroke-width:4; stroke-opacity:1; fill:none" points="1388.45,1349.21 1392.96,1345.31 "/>
<path clip-path="url(#clip690)" d="M660.452 1200.35 L690.128 1200.35 L690.128 1204.28 L660.452 1204.28 L660.452 1200.35 Z" fill="#000000" fill-rule="nonzero" fill-opacity="1" /><path clip-path="url(#clip690)" d="M701.03 1213.24 L708.669 1213.24 L708.669 1186.88 L700.359 1188.54 L700.359 1184.28 L708.623 1182.62 L713.299 1182.62 L713.299 1213.24 L720.938 1213.24 L720.938 1217.18 L701.03 1217.18 L701.03 1213.24 Z" fill="#000000" fill-rule="nonzero" fill-opacity="1" /><path clip-path="url(#clip690)" d="M730.382 1211.3 L735.266 1211.3 L735.266 1217.18 L730.382 1217.18 L730.382 1211.3 Z" fill="#000000" fill-rule="nonzero" fill-opacity="1" /><path clip-path="url(#clip690)" d="M755.451 1185.7 Q751.84 1185.7 750.012 1189.26 Q748.206 1192.8 748.206 1199.93 Q748.206 1207.04 750.012 1210.6 Q751.84 1214.15 755.451 1214.15 Q759.086 1214.15 760.891 1210.6 Q762.72 1207.04 762.72 1199.93 Q762.72 1192.8 760.891 1189.26 Q759.086 1185.7 755.451 1185.7 M755.451 1181.99 Q761.262 1181.99 764.317 1186.6 Q767.396 1191.18 767.396 1199.93 Q767.396 1208.66 764.317 1213.27 Q761.262 1217.85 755.451 1217.85 Q749.641 1217.85 746.563 1213.27 Q743.507 1208.66 743.507 1199.93 Q743.507 1191.18 746.563 1186.6 Q749.641 1181.99 755.451 1181.99 Z" fill="#000000" fill-rule="nonzero" fill-opacity="1" /><path clip-path="url(#clip690)" d="M814.715 1244.59 L844.39 1244.59 L844.39 1248.53 L814.715 1248.53 L814.715 1244.59 Z" fill="#000000" fill-rule="nonzero" fill-opacity="1" /><path clip-path="url(#clip690)" d="M864.483 1229.94 Q860.872 1229.94 859.043 1233.51 Q857.238 1237.05 857.238 1244.18 Q857.238 1251.28 859.043 1254.85 Q860.872 1258.39 864.483 1258.39 Q868.117 1258.39 869.923 1254.85 Q871.751 1251.28 871.751 1244.18 Q871.751 1237.05 869.923 1233.51 Q868.117 1229.94 864.483 1229.94 M864.483 1226.24 Q870.293 1226.24 873.349 1230.84 Q876.427 1235.43 876.427 1244.18 Q876.427 1252.9 873.349 1257.51 Q870.293 1262.09 864.483 1262.09 Q858.673 1262.09 855.594 1257.51 Q852.539 1252.9 852.539 1244.18 Q852.539 1235.43 855.594 1230.84 Q858.673 1226.24 864.483 1226.24 Z" fill="#000000" fill-rule="nonzero" fill-opacity="1" /><path clip-path="url(#clip690)" d="M884.645 1255.54 L889.529 1255.54 L889.529 1261.42 L884.645 1261.42 L884.645 1255.54 Z" fill="#000000" fill-rule="nonzero" fill-opacity="1" /><path clip-path="url(#clip690)" d="M899.761 1226.86 L918.117 1226.86 L918.117 1230.8 L904.043 1230.8 L904.043 1239.27 Q905.061 1238.92 906.08 1238.76 Q907.098 1238.57 908.117 1238.57 Q913.904 1238.57 917.284 1241.75 Q920.663 1244.92 920.663 1250.33 Q920.663 1255.91 917.191 1259.01 Q913.719 1262.09 907.399 1262.09 Q905.223 1262.09 902.955 1261.72 Q900.71 1261.35 898.302 1260.61 L898.302 1255.91 Q900.386 1257.05 902.608 1257.6 Q904.83 1258.16 907.307 1258.16 Q911.311 1258.16 913.649 1256.05 Q915.987 1253.95 915.987 1250.33 Q915.987 1246.72 913.649 1244.62 Q911.311 1242.51 907.307 1242.51 Q905.432 1242.51 903.557 1242.93 Q901.705 1243.34 899.761 1244.22 L899.761 1226.86 Z" fill="#000000" fill-rule="nonzero" fill-opacity="1" /><path clip-path="url(#clip690)" d="M1016.76 1274.19 Q1013.14 1274.19 1011.32 1277.75 Q1009.51 1281.29 1009.51 1288.42 Q1009.51 1295.53 1011.32 1299.09 Q1013.14 1302.63 1016.76 1302.63 Q1020.39 1302.63 1022.19 1299.09 Q1024.02 1295.53 1024.02 1288.42 Q1024.02 1281.29 1022.19 1277.75 Q1020.39 1274.19 1016.76 1274.19 M1016.76 1270.48 Q1022.57 1270.48 1025.62 1275.09 Q1028.7 1279.67 1028.7 1288.42 Q1028.7 1297.15 1025.62 1301.75 Q1022.57 1306.34 1016.76 1306.34 Q1010.94 1306.34 1007.87 1301.75 Q1004.81 1297.15 1004.81 1288.42 Q1004.81 1279.67 1007.87 1275.09 Q1010.94 1270.48 1016.76 1270.48 Z" fill="#000000" fill-rule="nonzero" fill-opacity="1" /><path clip-path="url(#clip690)" d="M1036.92 1299.79 L1041.8 1299.79 L1041.8 1305.67 L1036.92 1305.67 L1036.92 1299.79 Z" fill="#000000" fill-rule="nonzero" fill-opacity="1" /><path clip-path="url(#clip690)" d="M1061.99 1274.19 Q1058.38 1274.19 1056.55 1277.75 Q1054.74 1281.29 1054.74 1288.42 Q1054.74 1295.53 1056.55 1299.09 Q1058.38 1302.63 1061.99 1302.63 Q1065.62 1302.63 1067.43 1299.09 Q1069.25 1295.53 1069.25 1288.42 Q1069.25 1281.29 1067.43 1277.75 Q1065.62 1274.19 1061.99 1274.19 M1061.99 1270.48 Q1067.8 1270.48 1070.85 1275.09 Q1073.93 1279.67 1073.93 1288.42 Q1073.93 1297.15 1070.85 1301.75 Q1067.8 1306.34 1061.99 1306.34 Q1056.18 1306.34 1053.1 1301.75 Q1050.04 1297.15 1050.04 1288.42 Q1050.04 1279.67 1053.1 1275.09 Q1056.18 1270.48 1061.99 1270.48 Z" fill="#000000" fill-rule="nonzero" fill-opacity="1" /><path clip-path="url(#clip690)" d="M1171.02 1318.43 Q1167.41 1318.43 1165.58 1321.99 Q1163.77 1325.54 1163.77 1332.67 Q1163.77 1339.77 1165.58 1343.34 Q1167.41 1346.88 1171.02 1346.88 Q1174.65 1346.88 1176.46 1343.34 Q1178.29 1339.77 1178.29 1332.67 Q1178.29 1325.54 1176.46 1321.99 Q1174.65 1318.43 1171.02 1318.43 M1171.02 1314.73 Q1176.83 1314.73 1179.88 1319.33 Q1182.96 1323.92 1182.96 1332.67 Q1182.96 1341.39 1179.88 1346 Q1176.83 1350.58 1171.02 1350.58 Q1165.21 1350.58 1162.13 1346 Q1159.07 1341.39 1159.07 1332.67 Q1159.07 1323.92 1162.13 1319.33 Q1165.21 1314.73 1171.02 1314.73 Z" fill="#000000" fill-rule="nonzero" fill-opacity="1" /><path clip-path="url(#clip690)" d="M1191.18 1344.03 L1196.06 1344.03 L1196.06 1349.91 L1191.18 1349.91 L1191.18 1344.03 Z" fill="#000000" fill-rule="nonzero" fill-opacity="1" /><path clip-path="url(#clip690)" d="M1206.3 1315.35 L1224.65 1315.35 L1224.65 1319.29 L1210.58 1319.29 L1210.58 1327.76 Q1211.6 1327.41 1212.61 1327.25 Q1213.63 1327.06 1214.65 1327.06 Q1220.44 1327.06 1223.82 1330.24 Q1227.2 1333.41 1227.2 1338.82 Q1227.2 1344.4 1223.73 1347.5 Q1220.25 1350.58 1213.93 1350.58 Q1211.76 1350.58 1209.49 1350.21 Q1207.24 1349.84 1204.84 1349.1 L1204.84 1344.4 Q1206.92 1345.54 1209.14 1346.09 Q1211.36 1346.65 1213.84 1346.65 Q1217.85 1346.65 1220.18 1344.54 Q1222.52 1342.43 1222.52 1338.82 Q1222.52 1335.21 1220.18 1333.11 Q1217.85 1331 1213.84 1331 Q1211.97 1331 1210.09 1331.42 Q1208.24 1331.83 1206.3 1332.71 L1206.3 1315.35 Z" fill="#000000" fill-rule="nonzero" fill-opacity="1" /><path clip-path="url(#clip690)" d="M1314.1 1390.22 L1321.74 1390.22 L1321.74 1363.85 L1313.43 1365.52 L1313.43 1361.26 L1321.69 1359.6 L1326.37 1359.6 L1326.37 1390.22 L1334.01 1390.22 L1334.01 1394.16 L1314.1 1394.16 L1314.1 1390.22 Z" fill="#000000" fill-rule="nonzero" fill-opacity="1" /><path clip-path="url(#clip690)" d="M1343.45 1388.28 L1348.34 1388.28 L1348.34 1394.16 L1343.45 1394.16 L1343.45 1388.28 Z" fill="#000000" fill-rule="nonzero" fill-opacity="1" /><path clip-path="url(#clip690)" d="M1368.52 1362.67 Q1364.91 1362.67 1363.08 1366.24 Q1361.28 1369.78 1361.28 1376.91 Q1361.28 1384.02 1363.08 1387.58 Q1364.91 1391.12 1368.52 1391.12 Q1372.16 1391.12 1373.96 1387.58 Q1375.79 1384.02 1375.79 1376.91 Q1375.79 1369.78 1373.96 1366.24 Q1372.16 1362.67 1368.52 1362.67 M1368.52 1358.97 Q1374.33 1358.97 1377.39 1363.58 Q1380.47 1368.16 1380.47 1376.91 Q1380.47 1385.64 1377.39 1390.24 Q1374.33 1394.83 1368.52 1394.83 Q1362.71 1394.83 1359.63 1390.24 Q1356.58 1385.64 1356.58 1376.91 Q1356.58 1368.16 1359.63 1363.58 Q1362.71 1358.97 1368.52 1358.97 Z" fill="#000000" fill-rule="nonzero" fill-opacity="1" /><path clip-path="url(#clip690)" d="M925.49 1444.17 Q923.007 1450.54 920.652 1452.48 Q918.296 1454.42 914.35 1454.42 L909.671 1454.42 L909.671 1449.52 L913.108 1449.52 Q915.527 1449.52 916.864 1448.37 Q918.201 1447.23 919.824 1442.96 L920.875 1440.29 L906.456 1405.21 L912.663 1405.21 L923.803 1433.09 L934.943 1405.21 L941.149 1405.21 L925.49 1444.17 Z" fill="#000000" fill-rule="nonzero" fill-opacity="1" /><path clip-path="url(#clip690)" d="M976.32 1451.68 L976.32 1456.23 L942.454 1456.23 L942.454 1451.68 L976.32 1451.68 Z" fill="#000000" fill-rule="nonzero" fill-opacity="1" /><path clip-path="url(#clip690)" d="M983.768 1435.45 L994.271 1435.45 L994.271 1399.2 L982.845 1401.49 L982.845 1395.63 L994.208 1393.34 L1000.64 1393.34 L1000.64 1435.45 L1011.14 1435.45 L1011.14 1440.86 L983.768 1440.86 L983.768 1435.45 Z" fill="#000000" fill-rule="nonzero" fill-opacity="1" /><polyline clip-path="url(#clip690)" style="stroke:#000000; stroke-linecap:round; stroke-linejoin:round; stroke-width:4; stroke-opacity:1; fill:none" points="1406.85,1354.51 1782.04,1029.59 "/>
<polyline clip-path="url(#clip690)" style="stroke:#000000; stroke-linecap:round; stroke-linejoin:round; stroke-width:4; stroke-opacity:1; fill:none" points="1417.46,1345.32 1409.67,1343.07 "/>
<polyline clip-path="url(#clip690)" style="stroke:#000000; stroke-linecap:round; stroke-linejoin:round; stroke-width:4; stroke-opacity:1; fill:none" points="1505.95,1268.68 1498.15,1266.43 "/>
<polyline clip-path="url(#clip690)" style="stroke:#000000; stroke-linecap:round; stroke-linejoin:round; stroke-width:4; stroke-opacity:1; fill:none" points="1594.44,1192.05 1586.64,1189.8 "/>
<polyline clip-path="url(#clip690)" style="stroke:#000000; stroke-linecap:round; stroke-linejoin:round; stroke-width:4; stroke-opacity:1; fill:none" points="1682.93,1115.42 1675.13,1113.17 "/>
<polyline clip-path="url(#clip690)" style="stroke:#000000; stroke-linecap:round; stroke-linejoin:round; stroke-width:4; stroke-opacity:1; fill:none" points="1771.42,1038.78 1763.62,1036.53 "/>
<path clip-path="url(#clip690)" d="M1436.32 1367.54 L1465.99 1367.54 L1465.99 1371.48 L1436.32 1371.48 L1436.32 1367.54 Z" fill="#000000" fill-rule="nonzero" fill-opacity="1" /><path clip-path="url(#clip690)" d="M1476.9 1380.43 L1484.54 1380.43 L1484.54 1354.07 L1476.23 1355.74 L1476.23 1351.48 L1484.49 1349.81 L1489.16 1349.81 L1489.16 1380.43 L1496.8 1380.43 L1496.8 1384.37 L1476.9 1384.37 L1476.9 1380.43 Z" fill="#000000" fill-rule="nonzero" fill-opacity="1" /><path clip-path="url(#clip690)" d="M1506.25 1378.49 L1511.13 1378.49 L1511.13 1384.37 L1506.25 1384.37 L1506.25 1378.49 Z" fill="#000000" fill-rule="nonzero" fill-opacity="1" /><path clip-path="url(#clip690)" d="M1531.32 1352.89 Q1527.71 1352.89 1525.88 1356.45 Q1524.07 1359.99 1524.07 1367.12 Q1524.07 1374.23 1525.88 1377.8 Q1527.71 1381.34 1531.32 1381.34 Q1534.95 1381.34 1536.76 1377.8 Q1538.59 1374.23 1538.59 1367.12 Q1538.59 1359.99 1536.76 1356.45 Q1534.95 1352.89 1531.32 1352.89 M1531.32 1349.18 Q1537.13 1349.18 1540.18 1353.79 Q1543.26 1358.37 1543.26 1367.12 Q1543.26 1375.85 1540.18 1380.46 Q1537.13 1385.04 1531.32 1385.04 Q1525.51 1385.04 1522.43 1380.46 Q1519.37 1375.85 1519.37 1367.12 Q1519.37 1358.37 1522.43 1353.79 Q1525.51 1349.18 1531.32 1349.18 Z" fill="#000000" fill-rule="nonzero" fill-opacity="1" /><path clip-path="url(#clip690)" d="M1524.81 1290.91 L1554.48 1290.91 L1554.48 1294.84 L1524.81 1294.84 L1524.81 1290.91 Z" fill="#000000" fill-rule="nonzero" fill-opacity="1" /><path clip-path="url(#clip690)" d="M1574.58 1276.25 Q1570.96 1276.25 1569.14 1279.82 Q1567.33 1283.36 1567.33 1290.49 Q1567.33 1297.6 1569.14 1301.16 Q1570.96 1304.7 1574.58 1304.7 Q1578.21 1304.7 1580.01 1301.16 Q1581.84 1297.6 1581.84 1290.49 Q1581.84 1283.36 1580.01 1279.82 Q1578.21 1276.25 1574.58 1276.25 M1574.58 1272.55 Q1580.39 1272.55 1583.44 1277.16 Q1586.52 1281.74 1586.52 1290.49 Q1586.52 1299.22 1583.44 1303.82 Q1580.39 1308.41 1574.58 1308.41 Q1568.77 1308.41 1565.69 1303.82 Q1562.63 1299.22 1562.63 1290.49 Q1562.63 1281.74 1565.69 1277.16 Q1568.77 1272.55 1574.58 1272.55 Z" fill="#000000" fill-rule="nonzero" fill-opacity="1" /><path clip-path="url(#clip690)" d="M1594.74 1301.86 L1599.62 1301.86 L1599.62 1307.74 L1594.74 1307.74 L1594.74 1301.86 Z" fill="#000000" fill-rule="nonzero" fill-opacity="1" /><path clip-path="url(#clip690)" d="M1609.85 1273.18 L1628.21 1273.18 L1628.21 1277.11 L1614.14 1277.11 L1614.14 1285.58 Q1615.15 1285.24 1616.17 1285.07 Q1617.19 1284.89 1618.21 1284.89 Q1624 1284.89 1627.38 1288.06 Q1630.76 1291.23 1630.76 1296.65 Q1630.76 1302.23 1627.28 1305.33 Q1623.81 1308.41 1617.49 1308.41 Q1615.32 1308.41 1613.05 1308.04 Q1610.8 1307.67 1608.39 1306.93 L1608.39 1302.23 Q1610.48 1303.36 1612.7 1303.92 Q1614.92 1304.47 1617.4 1304.47 Q1621.4 1304.47 1623.74 1302.37 Q1626.08 1300.26 1626.08 1296.65 Q1626.08 1293.04 1623.74 1290.93 Q1621.4 1288.82 1617.4 1288.82 Q1615.52 1288.82 1613.65 1289.24 Q1611.8 1289.66 1609.85 1290.54 L1609.85 1273.18 Z" fill="#000000" fill-rule="nonzero" fill-opacity="1" /><path clip-path="url(#clip690)" d="M1625.24 1199.62 Q1621.63 1199.62 1619.8 1203.19 Q1617.99 1206.73 1617.99 1213.86 Q1617.99 1220.96 1619.8 1224.53 Q1621.63 1228.07 1625.24 1228.07 Q1628.87 1228.07 1630.68 1224.53 Q1632.51 1220.96 1632.51 1213.86 Q1632.51 1206.73 1630.68 1203.19 Q1628.87 1199.62 1625.24 1199.62 M1625.24 1195.92 Q1631.05 1195.92 1634.11 1200.52 Q1637.18 1205.11 1637.18 1213.86 Q1637.18 1222.58 1634.11 1227.19 Q1631.05 1231.77 1625.24 1231.77 Q1619.43 1231.77 1616.35 1227.19 Q1613.3 1222.58 1613.3 1213.86 Q1613.3 1205.11 1616.35 1200.52 Q1619.43 1195.92 1625.24 1195.92 Z" fill="#000000" fill-rule="nonzero" fill-opacity="1" /><path clip-path="url(#clip690)" d="M1645.4 1225.22 L1650.29 1225.22 L1650.29 1231.1 L1645.4 1231.1 L1645.4 1225.22 Z" fill="#000000" fill-rule="nonzero" fill-opacity="1" /><path clip-path="url(#clip690)" d="M1670.47 1199.62 Q1666.86 1199.62 1665.03 1203.19 Q1663.23 1206.73 1663.23 1213.86 Q1663.23 1220.96 1665.03 1224.53 Q1666.86 1228.07 1670.47 1228.07 Q1674.11 1228.07 1675.91 1224.53 Q1677.74 1220.96 1677.74 1213.86 Q1677.74 1206.73 1675.91 1203.19 Q1674.11 1199.62 1670.47 1199.62 M1670.47 1195.92 Q1676.28 1195.92 1679.34 1200.52 Q1682.42 1205.11 1682.42 1213.86 Q1682.42 1222.58 1679.34 1227.19 Q1676.28 1231.77 1670.47 1231.77 Q1664.66 1231.77 1661.58 1227.19 Q1658.53 1222.58 1658.53 1213.86 Q1658.53 1205.11 1661.58 1200.52 Q1664.66 1195.92 1670.47 1195.92 Z" fill="#000000" fill-rule="nonzero" fill-opacity="1" /><path clip-path="url(#clip690)" d="M1713.73 1122.99 Q1710.12 1122.99 1708.29 1126.55 Q1706.48 1130.09 1706.48 1137.22 Q1706.48 1144.33 1708.29 1147.89 Q1710.12 1151.44 1713.73 1151.44 Q1717.36 1151.44 1719.17 1147.89 Q1721 1144.33 1721 1137.22 Q1721 1130.09 1719.17 1126.55 Q1717.36 1122.99 1713.73 1122.99 M1713.73 1119.28 Q1719.54 1119.28 1722.59 1123.89 Q1725.67 1128.47 1725.67 1137.22 Q1725.67 1145.95 1722.59 1150.56 Q1719.54 1155.14 1713.73 1155.14 Q1707.92 1155.14 1704.84 1150.56 Q1701.78 1145.95 1701.78 1137.22 Q1701.78 1128.47 1704.84 1123.89 Q1707.92 1119.28 1713.73 1119.28 Z" fill="#000000" fill-rule="nonzero" fill-opacity="1" /><path clip-path="url(#clip690)" d="M1733.89 1148.59 L1738.78 1148.59 L1738.78 1154.47 L1733.89 1154.47 L1733.89 1148.59 Z" fill="#000000" fill-rule="nonzero" fill-opacity="1" /><path clip-path="url(#clip690)" d="M1749.01 1119.91 L1767.36 1119.91 L1767.36 1123.84 L1753.29 1123.84 L1753.29 1132.32 Q1754.31 1131.97 1755.33 1131.81 Q1756.34 1131.62 1757.36 1131.62 Q1763.15 1131.62 1766.53 1134.79 Q1769.91 1137.96 1769.91 1143.38 Q1769.91 1148.96 1766.44 1152.06 Q1762.97 1155.14 1756.65 1155.14 Q1754.47 1155.14 1752.2 1154.77 Q1749.96 1154.4 1747.55 1153.66 L1747.55 1148.96 Q1749.63 1150.09 1751.85 1150.65 Q1754.08 1151.2 1756.55 1151.2 Q1760.56 1151.2 1762.9 1149.1 Q1765.23 1146.99 1765.23 1143.38 Q1765.23 1139.77 1762.9 1137.66 Q1760.56 1135.56 1756.55 1135.56 Q1754.68 1135.56 1752.8 1135.97 Q1750.95 1136.39 1749.01 1137.27 L1749.01 1119.91 Z" fill="#000000" fill-rule="nonzero" fill-opacity="1" /><path clip-path="url(#clip690)" d="M1790.95 1073.9 L1798.58 1073.9 L1798.58 1047.53 L1790.27 1049.2 L1790.27 1044.94 L1798.54 1043.27 L1803.21 1043.27 L1803.21 1073.9 L1810.85 1073.9 L1810.85 1077.83 L1790.95 1077.83 L1790.95 1073.9 Z" fill="#000000" fill-rule="nonzero" fill-opacity="1" /><path clip-path="url(#clip690)" d="M1820.3 1071.95 L1825.18 1071.95 L1825.18 1077.83 L1820.3 1077.83 L1820.3 1071.95 Z" fill="#000000" fill-rule="nonzero" fill-opacity="1" /><path clip-path="url(#clip690)" d="M1845.37 1046.35 Q1841.76 1046.35 1839.93 1049.92 Q1838.12 1053.46 1838.12 1060.59 Q1838.12 1067.7 1839.93 1071.26 Q1841.76 1074.8 1845.37 1074.8 Q1849 1074.8 1850.81 1071.26 Q1852.63 1067.7 1852.63 1060.59 Q1852.63 1053.46 1850.81 1049.92 Q1849 1046.35 1845.37 1046.35 M1845.37 1042.65 Q1851.18 1042.65 1854.23 1047.26 Q1857.31 1051.84 1857.31 1060.59 Q1857.31 1069.32 1854.23 1073.92 Q1851.18 1078.51 1845.37 1078.51 Q1839.56 1078.51 1836.48 1073.92 Q1833.42 1069.32 1833.42 1060.59 Q1833.42 1051.84 1836.48 1047.26 Q1839.56 1042.65 1845.37 1042.65 Z" fill="#000000" fill-rule="nonzero" fill-opacity="1" /><path clip-path="url(#clip690)" d="M1684.51 1375.51 Q1682.03 1381.87 1679.67 1383.81 Q1677.31 1385.75 1673.37 1385.75 L1668.69 1385.75 L1668.69 1380.85 L1672.13 1380.85 Q1674.55 1380.85 1675.88 1379.71 Q1677.22 1378.56 1678.84 1374.3 L1679.89 1371.62 L1665.47 1336.55 L1671.68 1336.55 L1682.82 1364.43 L1693.96 1336.55 L1700.17 1336.55 L1684.51 1375.51 Z" fill="#000000" fill-rule="nonzero" fill-opacity="1" /><path clip-path="url(#clip690)" d="M1735.34 1383.02 L1735.34 1387.57 L1701.47 1387.57 L1701.47 1383.02 L1735.34 1383.02 Z" fill="#000000" fill-rule="nonzero" fill-opacity="1" /><path clip-path="url(#clip690)" d="M1747.21 1366.78 L1769.65 1366.78 L1769.65 1372.2 L1739.48 1372.2 L1739.48 1366.78 Q1743.14 1363 1749.44 1356.63 Q1755.77 1350.23 1757.4 1348.39 Q1760.48 1344.92 1761.69 1342.53 Q1762.93 1340.11 1762.93 1337.79 Q1762.93 1334 1760.26 1331.61 Q1757.62 1329.23 1753.35 1329.23 Q1750.33 1329.23 1746.96 1330.28 Q1743.61 1331.33 1739.79 1333.46 L1739.79 1326.97 Q1743.68 1325.41 1747.05 1324.61 Q1750.42 1323.82 1753.23 1323.82 Q1760.61 1323.82 1765 1327.51 Q1769.39 1331.2 1769.39 1337.37 Q1769.39 1340.3 1768.28 1342.94 Q1767.2 1345.55 1764.3 1349.12 Q1763.51 1350.04 1759.24 1354.47 Q1754.98 1358.86 1747.21 1366.78 Z" fill="#000000" fill-rule="nonzero" fill-opacity="1" /><polyline clip-path="url(#clip690)" style="stroke:#000000; stroke-linecap:round; stroke-linejoin:round; stroke-width:4; stroke-opacity:1; fill:none" points="756.991,1166.92 756.991,517.064 "/>
<polyline clip-path="url(#clip690)" style="stroke:#000000; stroke-linecap:round; stroke-linejoin:round; stroke-width:4; stroke-opacity:1; fill:none" points="756.991,1148.53 761.494,1144.63 "/>
<polyline clip-path="url(#clip690)" style="stroke:#000000; stroke-linecap:round; stroke-linejoin:round; stroke-width:4; stroke-opacity:1; fill:none" points="756.991,995.259 761.494,991.359 "/>
<polyline clip-path="url(#clip690)" style="stroke:#000000; stroke-linecap:round; stroke-linejoin:round; stroke-width:4; stroke-opacity:1; fill:none" points="756.991,841.991 761.494,838.092 "/>
<polyline clip-path="url(#clip690)" style="stroke:#000000; stroke-linecap:round; stroke-linejoin:round; stroke-width:4; stroke-opacity:1; fill:none" points="756.991,688.724 761.494,684.825 "/>
<polyline clip-path="url(#clip690)" style="stroke:#000000; stroke-linecap:round; stroke-linejoin:round; stroke-width:4; stroke-opacity:1; fill:none" points="756.991,535.456 761.494,531.557 "/>
<path clip-path="url(#clip690)" d="M640.854 1134.32 Q637.243 1134.32 635.414 1137.89 Q633.609 1141.43 633.609 1148.56 Q633.609 1155.67 635.414 1159.23 Q637.243 1162.77 640.854 1162.77 Q644.488 1162.77 646.294 1159.23 Q648.122 1155.67 648.122 1148.56 Q648.122 1141.43 646.294 1137.89 Q644.488 1134.32 640.854 1134.32 M640.854 1130.62 Q646.664 1130.62 649.72 1135.23 Q652.798 1139.81 652.798 1148.56 Q652.798 1157.29 649.72 1161.89 Q646.664 1166.48 640.854 1166.48 Q635.044 1166.48 631.965 1161.89 Q628.909 1157.29 628.909 1148.56 Q628.909 1139.81 631.965 1135.23 Q635.044 1130.62 640.854 1130.62 Z" fill="#000000" fill-rule="nonzero" fill-opacity="1" /><path clip-path="url(#clip690)" d="M661.016 1159.93 L665.9 1159.93 L665.9 1165.81 L661.016 1165.81 L661.016 1159.93 Z" fill="#000000" fill-rule="nonzero" fill-opacity="1" /><path clip-path="url(#clip690)" d="M686.085 1134.32 Q682.474 1134.32 680.645 1137.89 Q678.84 1141.43 678.84 1148.56 Q678.84 1155.67 680.645 1159.23 Q682.474 1162.77 686.085 1162.77 Q689.719 1162.77 691.525 1159.23 Q693.354 1155.67 693.354 1148.56 Q693.354 1141.43 691.525 1137.89 Q689.719 1134.32 686.085 1134.32 M686.085 1130.62 Q691.895 1130.62 694.951 1135.23 Q698.029 1139.81 698.029 1148.56 Q698.029 1157.29 694.951 1161.89 Q691.895 1166.48 686.085 1166.48 Q680.275 1166.48 677.196 1161.89 Q674.141 1157.29 674.141 1148.56 Q674.141 1139.81 677.196 1135.23 Q680.275 1130.62 686.085 1130.62 Z" fill="#000000" fill-rule="nonzero" fill-opacity="1" /><path clip-path="url(#clip690)" d="M716.247 1134.32 Q712.636 1134.32 710.807 1137.89 Q709.002 1141.43 709.002 1148.56 Q709.002 1155.67 710.807 1159.23 Q712.636 1162.77 716.247 1162.77 Q719.881 1162.77 721.687 1159.23 Q723.515 1155.67 723.515 1148.56 Q723.515 1141.43 721.687 1137.89 Q719.881 1134.32 716.247 1134.32 M716.247 1130.62 Q722.057 1130.62 725.113 1135.23 Q728.191 1139.81 728.191 1148.56 Q728.191 1157.29 725.113 1161.89 Q722.057 1166.48 716.247 1166.48 Q710.437 1166.48 707.358 1161.89 Q704.303 1157.29 704.303 1148.56 Q704.303 1139.81 707.358 1135.23 Q710.437 1130.62 716.247 1130.62 Z" fill="#000000" fill-rule="nonzero" fill-opacity="1" /><path clip-path="url(#clip690)" d="M641.849 981.057 Q638.238 981.057 636.409 984.622 Q634.604 988.164 634.604 995.293 Q634.604 1002.4 636.409 1005.96 Q638.238 1009.51 641.849 1009.51 Q645.483 1009.51 647.289 1005.96 Q649.118 1002.4 649.118 995.293 Q649.118 988.164 647.289 984.622 Q645.483 981.057 641.849 981.057 M641.849 977.354 Q647.659 977.354 650.715 981.96 Q653.794 986.543 653.794 995.293 Q653.794 1004.02 650.715 1008.63 Q647.659 1013.21 641.849 1013.21 Q636.039 1013.21 632.96 1008.63 Q629.905 1004.02 629.905 995.293 Q629.905 986.543 632.96 981.96 Q636.039 977.354 641.849 977.354 Z" fill="#000000" fill-rule="nonzero" fill-opacity="1" /><path clip-path="url(#clip690)" d="M662.011 1006.66 L666.895 1006.66 L666.895 1012.54 L662.011 1012.54 L662.011 1006.66 Z" fill="#000000" fill-rule="nonzero" fill-opacity="1" /><path clip-path="url(#clip690)" d="M681.108 1008.6 L697.428 1008.6 L697.428 1012.54 L675.483 1012.54 L675.483 1008.6 Q678.145 1005.85 682.729 1001.22 Q687.335 996.566 688.516 995.224 Q690.761 992.701 691.641 990.965 Q692.543 989.205 692.543 987.516 Q692.543 984.761 690.599 983.025 Q688.678 981.289 685.576 981.289 Q683.377 981.289 680.923 982.053 Q678.493 982.816 675.715 984.367 L675.715 979.645 Q678.539 978.511 680.993 977.932 Q683.446 977.354 685.483 977.354 Q690.854 977.354 694.048 980.039 Q697.242 982.724 697.242 987.215 Q697.242 989.344 696.432 991.266 Q695.645 993.164 693.539 995.756 Q692.96 996.428 689.858 999.645 Q686.756 1002.84 681.108 1008.6 Z" fill="#000000" fill-rule="nonzero" fill-opacity="1" /><path clip-path="url(#clip690)" d="M707.289 977.979 L725.645 977.979 L725.645 981.914 L711.571 981.914 L711.571 990.386 Q712.59 990.039 713.608 989.877 Q714.627 989.691 715.645 989.691 Q721.432 989.691 724.812 992.863 Q728.191 996.034 728.191 1001.45 Q728.191 1007.03 724.719 1010.13 Q721.247 1013.21 714.928 1013.21 Q712.752 1013.21 710.483 1012.84 Q708.238 1012.47 705.83 1011.73 L705.83 1007.03 Q707.914 1008.16 710.136 1008.72 Q712.358 1009.27 714.835 1009.27 Q718.84 1009.27 721.178 1007.17 Q723.515 1005.06 723.515 1001.45 Q723.515 997.84 721.178 995.733 Q718.84 993.627 714.835 993.627 Q712.96 993.627 711.085 994.043 Q709.233 994.46 707.289 995.34 L707.289 977.979 Z" fill="#000000" fill-rule="nonzero" fill-opacity="1" /><path clip-path="url(#clip690)" d="M640.854 827.79 Q637.243 827.79 635.414 831.355 Q633.609 834.896 633.609 842.026 Q633.609 849.132 635.414 852.697 Q637.243 856.239 640.854 856.239 Q644.488 856.239 646.294 852.697 Q648.122 849.132 648.122 842.026 Q648.122 834.896 646.294 831.355 Q644.488 827.79 640.854 827.79 M640.854 824.086 Q646.664 824.086 649.72 828.693 Q652.798 833.276 652.798 842.026 Q652.798 850.753 649.72 855.359 Q646.664 859.942 640.854 859.942 Q635.044 859.942 631.965 855.359 Q628.909 850.753 628.909 842.026 Q628.909 833.276 631.965 828.693 Q635.044 824.086 640.854 824.086 Z" fill="#000000" fill-rule="nonzero" fill-opacity="1" /><path clip-path="url(#clip690)" d="M661.016 853.392 L665.9 853.392 L665.9 859.271 L661.016 859.271 L661.016 853.392 Z" fill="#000000" fill-rule="nonzero" fill-opacity="1" /><path clip-path="url(#clip690)" d="M676.131 824.711 L694.488 824.711 L694.488 828.646 L680.414 828.646 L680.414 837.118 Q681.432 836.771 682.451 836.609 Q683.469 836.424 684.488 836.424 Q690.275 836.424 693.655 839.595 Q697.034 842.767 697.034 848.183 Q697.034 853.762 693.562 856.864 Q690.09 859.942 683.77 859.942 Q681.594 859.942 679.326 859.572 Q677.081 859.202 674.673 858.461 L674.673 853.762 Q676.756 854.896 678.979 855.452 Q681.201 856.007 683.678 856.007 Q687.682 856.007 690.02 853.901 Q692.358 851.794 692.358 848.183 Q692.358 844.572 690.02 842.466 Q687.682 840.359 683.678 840.359 Q681.803 840.359 679.928 840.776 Q678.076 841.193 676.131 842.072 L676.131 824.711 Z" fill="#000000" fill-rule="nonzero" fill-opacity="1" /><path clip-path="url(#clip690)" d="M716.247 827.79 Q712.636 827.79 710.807 831.355 Q709.002 834.896 709.002 842.026 Q709.002 849.132 710.807 852.697 Q712.636 856.239 716.247 856.239 Q719.881 856.239 721.687 852.697 Q723.515 849.132 723.515 842.026 Q723.515 834.896 721.687 831.355 Q719.881 827.79 716.247 827.79 M716.247 824.086 Q722.057 824.086 725.113 828.693 Q728.191 833.276 728.191 842.026 Q728.191 850.753 725.113 855.359 Q722.057 859.942 716.247 859.942 Q710.437 859.942 707.358 855.359 Q704.303 850.753 704.303 842.026 Q704.303 833.276 707.358 828.693 Q710.437 824.086 716.247 824.086 Z" fill="#000000" fill-rule="nonzero" fill-opacity="1" /><path clip-path="url(#clip690)" d="M641.849 674.522 Q638.238 674.522 636.409 678.087 Q634.604 681.629 634.604 688.758 Q634.604 695.865 636.409 699.43 Q638.238 702.971 641.849 702.971 Q645.483 702.971 647.289 699.43 Q649.118 695.865 649.118 688.758 Q649.118 681.629 647.289 678.087 Q645.483 674.522 641.849 674.522 M641.849 670.819 Q647.659 670.819 650.715 675.425 Q653.794 680.008 653.794 688.758 Q653.794 697.485 650.715 702.092 Q647.659 706.675 641.849 706.675 Q636.039 706.675 632.96 702.092 Q629.905 697.485 629.905 688.758 Q629.905 680.008 632.96 675.425 Q636.039 670.819 641.849 670.819 Z" fill="#000000" fill-rule="nonzero" fill-opacity="1" /><path clip-path="url(#clip690)" d="M662.011 700.124 L666.895 700.124 L666.895 706.004 L662.011 706.004 L662.011 700.124 Z" fill="#000000" fill-rule="nonzero" fill-opacity="1" /><path clip-path="url(#clip690)" d="M675.9 671.444 L698.122 671.444 L698.122 673.434 L685.576 706.004 L680.692 706.004 L692.497 675.379 L675.9 675.379 L675.9 671.444 Z" fill="#000000" fill-rule="nonzero" fill-opacity="1" /><path clip-path="url(#clip690)" d="M707.289 671.444 L725.645 671.444 L725.645 675.379 L711.571 675.379 L711.571 683.851 Q712.59 683.504 713.608 683.342 Q714.627 683.157 715.645 683.157 Q721.432 683.157 724.812 686.328 Q728.191 689.499 728.191 694.916 Q728.191 700.494 724.719 703.596 Q721.247 706.675 714.928 706.675 Q712.752 706.675 710.483 706.305 Q708.238 705.934 705.83 705.194 L705.83 700.494 Q707.914 701.629 710.136 702.184 Q712.358 702.74 714.835 702.74 Q718.84 702.74 721.178 700.633 Q723.515 698.527 723.515 694.916 Q723.515 691.305 721.178 689.198 Q718.84 687.092 714.835 687.092 Q712.96 687.092 711.085 687.508 Q709.233 687.925 707.289 688.805 L707.289 671.444 Z" fill="#000000" fill-rule="nonzero" fill-opacity="1" /><path clip-path="url(#clip690)" d="M631.664 548.801 L639.303 548.801 L639.303 522.436 L630.993 524.102 L630.993 519.843 L639.257 518.176 L643.933 518.176 L643.933 548.801 L651.571 548.801 L651.571 552.736 L631.664 552.736 L631.664 548.801 Z" fill="#000000" fill-rule="nonzero" fill-opacity="1" /><path clip-path="url(#clip690)" d="M661.016 546.857 L665.9 546.857 L665.9 552.736 L661.016 552.736 L661.016 546.857 Z" fill="#000000" fill-rule="nonzero" fill-opacity="1" /><path clip-path="url(#clip690)" d="M686.085 521.255 Q682.474 521.255 680.645 524.82 Q678.84 528.361 678.84 535.491 Q678.84 542.597 680.645 546.162 Q682.474 549.704 686.085 549.704 Q689.719 549.704 691.525 546.162 Q693.354 542.597 693.354 535.491 Q693.354 528.361 691.525 524.82 Q689.719 521.255 686.085 521.255 M686.085 517.551 Q691.895 517.551 694.951 522.158 Q698.029 526.741 698.029 535.491 Q698.029 544.218 694.951 548.824 Q691.895 553.408 686.085 553.408 Q680.275 553.408 677.196 548.824 Q674.141 544.218 674.141 535.491 Q674.141 526.741 677.196 522.158 Q680.275 517.551 686.085 517.551 Z" fill="#000000" fill-rule="nonzero" fill-opacity="1" /><path clip-path="url(#clip690)" d="M716.247 521.255 Q712.636 521.255 710.807 524.82 Q709.002 528.361 709.002 535.491 Q709.002 542.597 710.807 546.162 Q712.636 549.704 716.247 549.704 Q719.881 549.704 721.687 546.162 Q723.515 542.597 723.515 535.491 Q723.515 528.361 721.687 524.82 Q719.881 521.255 716.247 521.255 M716.247 517.551 Q722.057 517.551 725.113 522.158 Q728.191 526.741 728.191 535.491 Q728.191 544.218 725.113 548.824 Q722.057 553.408 716.247 553.408 Q710.437 553.408 707.358 548.824 Q704.303 544.218 704.303 535.491 Q704.303 526.741 707.358 522.158 Q710.437 517.551 716.247 517.551 Z" fill="#000000" fill-rule="nonzero" fill-opacity="1" /><path clip-path="url(#clip690)" d="M848.504 14.0809 L848.504 22.0612 Q843.846 19.8332 839.714 18.7395 Q835.582 17.6457 831.734 17.6457 Q825.05 17.6457 821.404 20.2383 Q817.799 22.8309 817.799 27.611 Q817.799 31.6214 820.189 33.6873 Q822.619 35.7128 829.344 36.9686 L834.286 37.9813 Q843.441 39.7232 847.775 44.1387 Q852.15 48.5136 852.15 55.8863 Q852.15 64.6767 846.236 69.2137 Q840.362 73.7508 828.979 73.7508 Q824.685 73.7508 819.824 72.7785 Q815.004 71.8063 809.818 69.9024 L809.818 61.4765 Q814.801 64.2716 819.581 65.6895 Q824.361 67.1073 828.979 67.1073 Q835.987 67.1073 839.795 64.3527 Q843.603 61.598 843.603 56.4939 Q843.603 52.0379 840.848 49.5264 Q838.134 47.0148 831.896 45.759 L826.913 44.7868 Q817.758 42.9639 813.667 39.075 Q809.575 35.1862 809.575 28.2591 Q809.575 20.2383 815.206 15.6203 Q820.877 11.0023 830.802 11.0023 Q835.055 11.0023 839.471 11.7719 Q843.886 12.5416 848.504 14.0809 Z" fill="#000000" fill-rule="nonzero" fill-opacity="1" /><path clip-path="url(#clip690)" d="M871.797 65.7705 L871.797 89.8329 L864.303 89.8329 L864.303 27.2059 L871.797 27.2059 L871.797 34.0924 Q874.147 30.0415 877.711 28.0971 Q881.317 26.1121 886.299 26.1121 Q894.563 26.1121 899.708 32.6746 Q904.893 39.2371 904.893 49.9314 Q904.893 60.6258 899.708 67.1883 Q894.563 73.7508 886.299 73.7508 Q881.317 73.7508 877.711 71.8063 Q874.147 69.8214 871.797 65.7705 M897.156 49.9314 Q897.156 41.7081 893.753 37.0496 Q890.391 32.3505 884.477 32.3505 Q878.562 32.3505 875.159 37.0496 Q871.797 41.7081 871.797 49.9314 Q871.797 58.1548 875.159 62.8538 Q878.562 67.5124 884.477 67.5124 Q890.391 67.5124 893.753 62.8538 Q897.156 58.1548 897.156 49.9314 Z" fill="#000000" fill-rule="nonzero" fill-opacity="1" /><path clip-path="url(#clip690)" d="M937.867 49.7694 Q928.834 49.7694 925.35 51.8354 Q921.866 53.9013 921.866 58.8839 Q921.866 62.8538 924.459 65.2034 Q927.092 67.5124 931.589 67.5124 Q937.786 67.5124 941.513 63.1374 Q945.281 58.7219 945.281 51.4303 L945.281 49.7694 L937.867 49.7694 M952.734 46.6907 L952.734 72.576 L945.281 72.576 L945.281 65.6895 Q942.729 69.8214 938.921 71.8063 Q935.113 73.7508 929.604 73.7508 Q922.636 73.7508 918.504 69.8619 Q914.413 65.9325 914.413 59.3701 Q914.413 51.7138 919.517 47.825 Q924.661 43.9361 934.829 43.9361 L945.281 43.9361 L945.281 43.2069 Q945.281 38.0623 941.878 35.2672 Q938.516 32.4315 932.399 32.4315 Q928.51 32.4315 924.824 33.3632 Q921.137 34.295 917.734 36.1584 L917.734 29.2718 Q921.826 27.692 925.674 26.9223 Q929.523 26.1121 933.168 26.1121 Q943.012 26.1121 947.873 31.2163 Q952.734 36.3204 952.734 46.6907 Z" fill="#000000" fill-rule="nonzero" fill-opacity="1" /><path clip-path="url(#clip690)" d="M994.378 34.1734 Q993.122 33.4443 991.623 33.1202 Q990.165 32.7556 988.382 32.7556 Q982.063 32.7556 978.66 36.8875 Q975.298 40.9789 975.298 48.6757 L975.298 72.576 L967.804 72.576 L967.804 27.2059 L975.298 27.2059 L975.298 34.2544 Q977.647 30.1225 981.415 28.1376 Q985.182 26.1121 990.57 26.1121 Q991.339 26.1121 992.271 26.2337 Q993.203 26.3147 994.337 26.5172 L994.378 34.1734 Z" fill="#000000" fill-rule="nonzero" fill-opacity="1" /><path clip-path="url(#clip690)" d="M1031.12 28.5427 L1031.12 35.5912 Q1027.96 33.9709 1024.56 33.1607 Q1021.15 32.3505 1017.51 32.3505 Q1011.96 32.3505 1009.16 34.0519 Q1006.41 35.7533 1006.41 39.156 Q1006.41 41.7486 1008.39 43.2475 Q1010.38 44.7058 1016.37 46.0426 L1018.93 46.6097 Q1026.87 48.3111 1030.19 51.4303 Q1033.55 54.509 1033.55 60.0587 Q1033.55 66.3781 1028.53 70.0644 Q1023.54 73.7508 1014.79 73.7508 Q1011.15 73.7508 1007.18 73.0216 Q1003.25 72.3329 998.874 70.9151 L998.874 63.2184 Q1003.01 65.3654 1007.02 66.4591 Q1011.03 67.5124 1014.96 67.5124 Q1020.22 67.5124 1023.06 65.73 Q1025.89 63.9071 1025.89 60.6258 Q1025.89 57.5877 1023.83 55.9673 Q1021.8 54.3469 1014.88 52.8481 L1012.28 52.2405 Q1005.36 50.7821 1002.28 47.7845 Q999.198 44.7463 999.198 39.4801 Q999.198 33.0797 1003.74 29.5959 Q1008.27 26.1121 1016.62 26.1121 Q1020.75 26.1121 1024.39 26.7198 Q1028.04 27.3274 1031.12 28.5427 Z" fill="#000000" fill-rule="nonzero" fill-opacity="1" /><path clip-path="url(#clip690)" d="M1084.23 48.0275 L1084.23 51.6733 L1049.96 51.6733 Q1050.44 59.3701 1054.57 63.421 Q1058.75 67.4314 1066.16 67.4314 Q1070.45 67.4314 1074.46 66.3781 Q1078.51 65.3249 1082.48 63.2184 L1082.48 70.267 Q1078.47 71.9684 1074.26 72.8596 Q1070.05 73.7508 1065.71 73.7508 Q1054.86 73.7508 1048.5 67.4314 Q1042.18 61.1119 1042.18 50.3365 Q1042.18 39.1965 1048.17 32.6746 Q1054.21 26.1121 1064.42 26.1121 Q1073.57 26.1121 1078.88 32.0264 Q1084.23 37.9003 1084.23 48.0275 M1076.77 45.84 Q1076.69 39.7232 1073.33 36.0774 Q1070.01 32.4315 1064.5 32.4315 Q1058.26 32.4315 1054.49 35.9558 Q1050.77 39.4801 1050.2 45.8805 L1076.77 45.84 Z" fill="#000000" fill-rule="nonzero" fill-opacity="1" /><path clip-path="url(#clip690)" d="M1164.39 63.9476 L1164.39 47.7034 L1151.03 47.7034 L1151.03 40.9789 L1172.5 40.9789 L1172.5 66.9452 Q1167.76 70.3075 1162.04 72.0494 Q1156.33 73.7508 1149.85 73.7508 Q1135.67 73.7508 1127.65 65.4869 Q1119.67 57.1826 1119.67 42.3968 Q1119.67 27.5705 1127.65 19.3066 Q1135.67 11.0023 1149.85 11.0023 Q1155.77 11.0023 1161.07 12.4606 Q1166.42 13.9189 1170.92 16.7545 L1170.92 25.464 Q1166.38 21.6156 1161.27 19.6712 Q1156.17 17.7268 1150.54 17.7268 Q1139.44 17.7268 1133.85 23.9246 Q1128.3 30.1225 1128.3 42.3968 Q1128.3 54.6305 1133.85 60.8284 Q1139.44 67.0263 1150.54 67.0263 Q1154.87 67.0263 1158.28 66.2971 Q1161.68 65.5274 1164.39 63.9476 Z" fill="#000000" fill-rule="nonzero" fill-opacity="1" /><path clip-path="url(#clip690)" d="M1213.41 34.1734 Q1212.15 33.4443 1210.66 33.1202 Q1209.2 32.7556 1207.41 32.7556 Q1201.1 32.7556 1197.69 36.8875 Q1194.33 40.9789 1194.33 48.6757 L1194.33 72.576 L1186.84 72.576 L1186.84 27.2059 L1194.33 27.2059 L1194.33 34.2544 Q1196.68 30.1225 1200.45 28.1376 Q1204.21 26.1121 1209.6 26.1121 Q1210.37 26.1121 1211.3 26.2337 Q1212.24 26.3147 1213.37 26.5172 L1213.41 34.1734 Z" fill="#000000" fill-rule="nonzero" fill-opacity="1" /><path clip-path="url(#clip690)" d="M1221.23 27.2059 L1228.68 27.2059 L1228.68 72.576 L1221.23 72.576 L1221.23 27.2059 M1221.23 9.54393 L1228.68 9.54393 L1228.68 18.9825 L1221.23 18.9825 L1221.23 9.54393 Z" fill="#000000" fill-rule="nonzero" fill-opacity="1" /><path clip-path="url(#clip690)" d="M1274.13 34.0924 L1274.13 9.54393 L1281.59 9.54393 L1281.59 72.576 L1274.13 72.576 L1274.13 65.7705 Q1271.78 69.8214 1268.18 71.8063 Q1264.61 73.7508 1259.59 73.7508 Q1251.37 73.7508 1246.18 67.1883 Q1241.04 60.6258 1241.04 49.9314 Q1241.04 39.2371 1246.18 32.6746 Q1251.37 26.1121 1259.59 26.1121 Q1264.61 26.1121 1268.18 28.0971 Q1271.78 30.0415 1274.13 34.0924 M1248.73 49.9314 Q1248.73 58.1548 1252.1 62.8538 Q1255.5 67.5124 1261.41 67.5124 Q1267.33 67.5124 1270.73 62.8538 Q1274.13 58.1548 1274.13 49.9314 Q1274.13 41.7081 1270.73 37.0496 Q1267.33 32.3505 1261.41 32.3505 Q1255.5 32.3505 1252.1 37.0496 Q1248.73 41.7081 1248.73 49.9314 Z" fill="#000000" fill-rule="nonzero" fill-opacity="1" /><path clip-path="url(#clip690)" d="M1368.92 16.7545 L1368.92 25.383 Q1364.79 21.5346 1360.09 19.6307 Q1355.43 17.7268 1350.17 17.7268 Q1339.8 17.7268 1334.29 24.0867 Q1328.78 30.4061 1328.78 42.3968 Q1328.78 54.3469 1334.29 60.7069 Q1339.8 67.0263 1350.17 67.0263 Q1355.43 67.0263 1360.09 65.1223 Q1364.79 63.2184 1368.92 59.3701 L1368.92 67.9175 Q1364.63 70.8341 1359.81 72.2924 Q1355.03 73.7508 1349.68 73.7508 Q1335.95 73.7508 1328.05 65.3654 Q1320.15 56.9395 1320.15 42.3968 Q1320.15 27.8135 1328.05 19.4281 Q1335.95 11.0023 1349.68 11.0023 Q1355.11 11.0023 1359.89 12.4606 Q1364.71 13.8784 1368.92 16.7545 Z" fill="#000000" fill-rule="nonzero" fill-opacity="1" /><path clip-path="url(#clip690)" d="M1398.82 32.4315 Q1392.82 32.4315 1389.34 37.1306 Q1385.86 41.7891 1385.86 49.9314 Q1385.86 58.0738 1389.3 62.7728 Q1392.78 67.4314 1398.82 67.4314 Q1404.77 67.4314 1408.26 62.7323 Q1411.74 58.0333 1411.74 49.9314 Q1411.74 41.8701 1408.26 37.1711 Q1404.77 32.4315 1398.82 32.4315 M1398.82 26.1121 Q1408.54 26.1121 1414.09 32.4315 Q1419.64 38.7509 1419.64 49.9314 Q1419.64 61.0714 1414.09 67.4314 Q1408.54 73.7508 1398.82 73.7508 Q1389.06 73.7508 1383.51 67.4314 Q1378 61.0714 1378 49.9314 Q1378 38.7509 1383.51 32.4315 Q1389.06 26.1121 1398.82 26.1121 Z" fill="#000000" fill-rule="nonzero" fill-opacity="1" /><path clip-path="url(#clip690)" d="M1467.32 35.9153 Q1470.12 30.8922 1474 28.5022 Q1477.89 26.1121 1483.16 26.1121 Q1490.25 26.1121 1494.1 31.0947 Q1497.95 36.0368 1497.95 45.1919 L1497.95 72.576 L1490.45 72.576 L1490.45 45.4349 Q1490.45 38.913 1488.14 35.7533 Q1485.83 32.5936 1481.09 32.5936 Q1475.3 32.5936 1471.94 36.4419 Q1468.58 40.2903 1468.58 46.9338 L1468.58 72.576 L1461.08 72.576 L1461.08 45.4349 Q1461.08 38.8725 1458.77 35.7533 Q1456.46 32.5936 1451.64 32.5936 Q1445.93 32.5936 1442.57 36.4824 Q1439.21 40.3308 1439.21 46.9338 L1439.21 72.576 L1431.71 72.576 L1431.71 27.2059 L1439.21 27.2059 L1439.21 34.2544 Q1441.76 30.082 1445.32 28.0971 Q1448.89 26.1121 1453.79 26.1121 Q1458.73 26.1121 1462.18 28.6237 Q1465.66 31.1352 1467.32 35.9153 Z" fill="#000000" fill-rule="nonzero" fill-opacity="1" /><path clip-path="url(#clip690)" d="M1545.38 49.9314 Q1545.38 41.7081 1541.98 37.0496 Q1538.62 32.3505 1532.7 32.3505 Q1526.79 32.3505 1523.39 37.0496 Q1520.02 41.7081 1520.02 49.9314 Q1520.02 58.1548 1523.39 62.8538 Q1526.79 67.5124 1532.7 67.5124 Q1538.62 67.5124 1541.98 62.8538 Q1545.38 58.1548 1545.38 49.9314 M1520.02 34.0924 Q1522.37 30.0415 1525.94 28.0971 Q1529.54 26.1121 1534.53 26.1121 Q1542.79 26.1121 1547.93 32.6746 Q1553.12 39.2371 1553.12 49.9314 Q1553.12 60.6258 1547.93 67.1883 Q1542.79 73.7508 1534.53 73.7508 Q1529.54 73.7508 1525.94 71.8063 Q1522.37 69.8214 1520.02 65.7705 L1520.02 72.576 L1512.53 72.576 L1512.53 9.54393 L1520.02 9.54393 L1520.02 34.0924 Z" fill="#000000" fill-rule="nonzero" fill-opacity="1" /><path clip-path="url(#clip690)" d="M1565.47 27.2059 L1572.93 27.2059 L1572.93 72.576 L1565.47 72.576 L1565.47 27.2059 M1565.47 9.54393 L1572.93 9.54393 L1572.93 18.9825 L1565.47 18.9825 L1565.47 9.54393 Z" fill="#000000" fill-rule="nonzero" fill-opacity="1" /><path clip-path="url(#clip690)" d="M1626.24 45.1919 L1626.24 72.576 L1618.78 72.576 L1618.78 45.4349 Q1618.78 38.994 1616.27 35.7938 Q1613.76 32.5936 1608.74 32.5936 Q1602.7 32.5936 1599.22 36.4419 Q1595.73 40.2903 1595.73 46.9338 L1595.73 72.576 L1588.24 72.576 L1588.24 27.2059 L1595.73 27.2059 L1595.73 34.2544 Q1598.41 30.163 1602.01 28.1376 Q1605.66 26.1121 1610.4 26.1121 Q1618.22 26.1121 1622.23 30.9732 Q1626.24 35.7938 1626.24 45.1919 Z" fill="#000000" fill-rule="nonzero" fill-opacity="1" /><path clip-path="url(#clip690)" d="M1679.91 48.0275 L1679.91 51.6733 L1645.64 51.6733 Q1646.13 59.3701 1650.26 63.421 Q1654.43 67.4314 1661.85 67.4314 Q1666.14 67.4314 1670.15 66.3781 Q1674.2 65.3249 1678.17 63.2184 L1678.17 70.267 Q1674.16 71.9684 1669.95 72.8596 Q1665.73 73.7508 1661.4 73.7508 Q1650.54 73.7508 1644.18 67.4314 Q1637.86 61.1119 1637.86 50.3365 Q1637.86 39.1965 1643.86 32.6746 Q1649.89 26.1121 1660.1 26.1121 Q1669.26 26.1121 1674.56 32.0264 Q1679.91 37.9003 1679.91 48.0275 M1672.46 45.84 Q1672.38 39.7232 1669.02 36.0774 Q1665.69 32.4315 1660.18 32.4315 Q1653.95 32.4315 1650.18 35.9558 Q1646.45 39.4801 1645.88 45.8805 L1672.46 45.84 Z" fill="#000000" fill-rule="nonzero" fill-opacity="1" /><path clip-path="url(#clip690)" d="M1722 34.0924 L1722 9.54393 L1729.45 9.54393 L1729.45 72.576 L1722 72.576 L1722 65.7705 Q1719.65 69.8214 1716.05 71.8063 Q1712.48 73.7508 1707.46 73.7508 Q1699.23 73.7508 1694.05 67.1883 Q1688.91 60.6258 1688.91 49.9314 Q1688.91 39.2371 1694.05 32.6746 Q1699.23 26.1121 1707.46 26.1121 Q1712.48 26.1121 1716.05 28.0971 Q1719.65 30.0415 1722 34.0924 M1696.6 49.9314 Q1696.6 58.1548 1699.96 62.8538 Q1703.37 67.5124 1709.28 67.5124 Q1715.2 67.5124 1718.6 62.8538 Q1722 58.1548 1722 49.9314 Q1722 41.7081 1718.6 37.0496 Q1715.2 32.3505 1709.28 32.3505 Q1703.37 32.3505 1699.96 37.0496 Q1696.6 41.7081 1696.6 49.9314 Z" fill="#000000" fill-rule="nonzero" fill-opacity="1" /><circle clip-path="url(#clip692)" cx="1269.51" cy="1079.86" r="14.4" fill="#009af9" fill-rule="evenodd" fill-opacity="1" stroke="#000000" stroke-opacity="1" stroke-width="3.2"/>
<circle clip-path="url(#clip692)" cx="1446.49" cy="926.593" r="14.4" fill="#009af9" fill-rule="evenodd" fill-opacity="1" stroke="#000000" stroke-opacity="1" stroke-width="3.2"/>
<circle clip-path="url(#clip692)" cx="1394.66" cy="971.484" r="14.4" fill="#009af9" fill-rule="evenodd" fill-opacity="1" stroke="#000000" stroke-opacity="1" stroke-width="3.2"/>
<circle clip-path="url(#clip692)" cx="1144.37" cy="1188.24" r="14.4" fill="#009af9" fill-rule="evenodd" fill-opacity="1" stroke="#000000" stroke-opacity="1" stroke-width="3.2"/>
<circle clip-path="url(#clip692)" cx="1092.54" cy="1233.13" r="14.4" fill="#009af9" fill-rule="evenodd" fill-opacity="1" stroke="#000000" stroke-opacity="1" stroke-width="3.2"/>
<circle clip-path="url(#clip692)" cx="1576.05" cy="1168.35" r="14.4" fill="#009af9" fill-rule="evenodd" fill-opacity="1" stroke="#000000" stroke-opacity="1" stroke-width="3.2"/>
<circle clip-path="url(#clip692)" cx="962.98" cy="991.372" r="14.4" fill="#009af9" fill-rule="evenodd" fill-opacity="1" stroke="#000000" stroke-opacity="1" stroke-width="3.2"/>
<path clip-path="url(#clip690)" d="M2011.46 270.476 L2280.54 270.476 L2280.54 166.796 L2011.46 166.796  Z" fill="#ffffff" fill-rule="evenodd" fill-opacity="1"/>
<polyline clip-path="url(#clip690)" style="stroke:#000000; stroke-linecap:round; stroke-linejoin:round; stroke-width:4; stroke-opacity:1; fill:none" points="2011.46,270.476 2280.54,270.476 2280.54,166.796 2011.46,166.796 2011.46,270.476 "/>
<circle clip-path="url(#clip690)" cx="2107.75" cy="218.636" r="20.48" fill="#009af9" fill-rule="evenodd" fill-opacity="1" stroke="#000000" stroke-opacity="1" stroke-width="4.55111"/>
<path clip-path="url(#clip690)" d="M2217.88 238.323 Q2216.07 242.953 2214.36 244.365 Q2212.65 245.777 2209.78 245.777 L2206.38 245.777 L2206.38 242.212 L2208.88 242.212 Q2210.63 242.212 2211.61 241.379 Q2212.58 240.545 2213.76 237.443 L2214.52 235.499 L2204.04 209.99 L2208.55 209.99 L2216.65 230.268 L2224.76 209.99 L2229.27 209.99 L2217.88 238.323 Z" fill="#000000" fill-rule="nonzero" fill-opacity="1" /><path clip-path="url(#clip690)" d="M2236.56 231.981 L2244.2 231.981 L2244.2 205.615 L2235.89 207.282 L2235.89 203.022 L2244.15 201.356 L2248.83 201.356 L2248.83 231.981 L2256.47 231.981 L2256.47 235.916 L2236.56 235.916 L2236.56 231.981 Z" fill="#000000" fill-rule="nonzero" fill-opacity="1" /></svg>
