<?xml version="1.0" encoding="utf-8"?>
<svg xmlns="http://www.w3.org/2000/svg" xmlns:xlink="http://www.w3.org/1999/xlink" width="600" height="400" viewBox="0 0 2400 1600">
<defs>
  <clipPath id="clip630">
    <rect x="0" y="0" width="2400" height="1600"/>
  </clipPath>
</defs>
<path clip-path="url(#clip630)" d="M0 1600 L2400 1600 L2400 0 L0 0  Z" fill="#ffffff" fill-rule="evenodd" fill-opacity="1"/>
<defs>
  <clipPath id="clip631">
    <rect x="480" y="0" width="1681" height="1600"/>
  </clipPath>
</defs>
<defs>
  <clipPath id="clip632">
    <rect x="186" y="123" width="2167" height="1301"/>
  </clipPath>
</defs>
<path clip-path="url(#clip632)" d="M786.002 1144.64 L786.002 531.57 L1139.96 225.035 L1753.03 402.013 L1753.03 1015.08 L1399.07 1321.62 L786.002 1144.64  Z" fill="#ffffff" fill-rule="evenodd" fill-opacity="1"/>
<polyline clip-path="url(#clip632)" style="stroke:#000000; stroke-linecap:round; stroke-linejoin:round; stroke-width:2; stroke-opacity:0.1; fill:none" points="775.383,1172.23 1150.58,847.3 1150.58,197.447 "/>
<polyline clip-path="url(#clip632)" style="stroke:#000000; stroke-linecap:round; stroke-linejoin:round; stroke-width:2; stroke-opacity:0.1; fill:none" points="928.651,1216.47 1303.84,891.545 1303.84,241.691 "/>
<polyline clip-path="url(#clip632)" style="stroke:#000000; stroke-linecap:round; stroke-linejoin:round; stroke-width:2; stroke-opacity:0.1; fill:none" points="1081.92,1260.72 1457.11,935.789 1457.11,285.936 "/>
<polyline clip-path="url(#clip632)" style="stroke:#000000; stroke-linecap:round; stroke-linejoin:round; stroke-width:2; stroke-opacity:0.1; fill:none" points="1235.19,1304.96 1610.38,980.034 1610.38,330.18 "/>
<polyline clip-path="url(#clip632)" style="stroke:#000000; stroke-linecap:round; stroke-linejoin:round; stroke-width:2; stroke-opacity:0.1; fill:none" points="1388.45,1349.21 1763.65,1024.28 1763.65,374.425 "/>
<polyline clip-path="url(#clip632)" style="stroke:#000000; stroke-linecap:round; stroke-linejoin:round; stroke-width:2; stroke-opacity:0.1; fill:none" points="1417.46,1345.32 767.61,1157.72 767.61,507.868 "/>
<polyline clip-path="url(#clip632)" style="stroke:#000000; stroke-linecap:round; stroke-linejoin:round; stroke-width:2; stroke-opacity:0.1; fill:none" points="1505.95,1268.68 856.099,1081.09 856.099,431.234 "/>
<polyline clip-path="url(#clip632)" style="stroke:#000000; stroke-linecap:round; stroke-linejoin:round; stroke-width:2; stroke-opacity:0.1; fill:none" points="1594.44,1192.05 944.588,1004.45 944.588,354.601 "/>
<polyline clip-path="url(#clip632)" style="stroke:#000000; stroke-linecap:round; stroke-linejoin:round; stroke-width:2; stroke-opacity:0.1; fill:none" points="1682.93,1115.42 1033.08,927.821 1033.08,277.967 "/>
<polyline clip-path="url(#clip632)" style="stroke:#000000; stroke-linecap:round; stroke-linejoin:round; stroke-width:2; stroke-opacity:0.1; fill:none" points="1771.42,1038.78 1121.57,851.187 1121.57,201.333 "/>
<polyline clip-path="url(#clip632)" style="stroke:#000000; stroke-linecap:round; stroke-linejoin:round; stroke-width:2; stroke-opacity:0.1; fill:none" points="756.991,1148.53 1132.18,823.599 1782.04,1011.2 "/>
<polyline clip-path="url(#clip632)" style="stroke:#000000; stroke-linecap:round; stroke-linejoin:round; stroke-width:2; stroke-opacity:0.1; fill:none" points="756.991,995.259 1132.18,670.332 1782.04,857.928 "/>
<polyline clip-path="url(#clip632)" style="stroke:#000000; stroke-linecap:round; stroke-linejoin:round; stroke-width:2; stroke-opacity:0.1; fill:none" points="756.991,841.991 1132.18,517.064 1782.04,704.661 "/>
<polyline clip-path="url(#clip632)" style="stroke:#000000; stroke-linecap:round; stroke-linejoin:round; stroke-width:2; stroke-opacity:0.1; fill:none" points="756.991,688.724 1132.18,363.797 1782.04,551.393 "/>
<polyline clip-path="url(#clip632)" style="stroke:#000000; stroke-linecap:round; stroke-linejoin:round; stroke-width:2; stroke-opacity:0.1; fill:none" points="756.991,535.456 1132.18,210.529 1782.04,398.126 "/>
<polyline clip-path="url(#clip630)" style="stroke:#000000; stroke-linecap:round; stroke-linejoin:round; stroke-width:4; stroke-opacity:1; fill:none" points="756.991,1166.92 1406.85,1354.51 "/>
<polyline clip-path="url(#clip630)" style="stroke:#000000; stroke-linecap:round; stroke-linejoin:round; stroke-width:4; stroke-opacity:1; fill:none" points="775.383,1172.23 779.886,1168.33 "/>
<polyline clip-path="url(#clip630)" style="stroke:#000000; stroke-linecap:round; stroke-linejoin:round; stroke-width:4; stroke-opacity:1; fill:none" points="928.651,1216.47 933.153,1212.57 "/>
<polyline clip-path="url(#clip630)" style="stroke:#000000; stroke-linecap:round; stroke-linejoin:round; stroke-width:4; stroke-opacity:1; fill:none" points="1081.92,1260.72 1086.42,1256.82 "/>
<polyline clip-path="url(#clip630)" style="stroke:#000000; stroke-linecap:round; stroke-linejoin:round; stroke-width:4; stroke-opacity:1; fill:none" points="1235.19,1304.96 1239.69,1301.06 "/>
<polyline clip-path="url(#clip630)" style="stroke:#000000; stroke-linecap:round; stroke-linejoin:round; stroke-width:4; stroke-opacity:1; fill:none" points="1388.45,1349.21 1392.96,1345.31 "/>
<path clip-path="url(#clip630)" d="M660.452 1200.35 L690.128 1200.35 L690.128 1204.28 L660.452 1204.28 L660.452 1200.35 Z" fill="#000000" fill-rule="nonzero" fill-opacity="1" /><path clip-path="url(#clip630)" d="M701.03 1213.24 L708.669 1213.24 L708.669 1186.88 L700.359 1188.54 L700.359 1184.28 L708.623 1182.62 L713.299 1182.62 L713.299 1213.24 L720.938 1213.24 L720.938 1217.18 L701.03 1217.18 L701.03 1213.24 Z" fill="#000000" fill-rule="nonzero" fill-opacity="1" /><path clip-path="url(#clip630)" d="M730.382 1211.3 L735.266 1211.3 L735.266 1217.18 L730.382 1217.18 L730.382 1211.3 Z" fill="#000000" fill-rule="nonzero" fill-opacity="1" /><path clip-path="url(#clip630)" d="M755.451 1185.7 Q751.84 1185.7 750.012 1189.26 Q748.206 1192.8 748.206 1199.93 Q748.206 1207.04 750.012 1210.6 Q751.84 1214.15 755.451 1214.15 Q759.086 1214.15 760.891 1210.6 Q762.72 1207.04 762.72 1199.93 Q762.72 1192.8 760.891 1189.26 Q759.086 1185.7 755.451 1185.7 M755.451 1181.99 Q761.262 1181.99 764.317 1186.6 Q767.396 1191.18 767.396 1199.93 Q767.396 1208.66 764.317 1213.27 Q761.262 1217.85 755.451 1217.85 Q749.641 1217.85 746.563 1213.27 Q743.507 1208.66 743.507 1199.93 Q743.507 1191.18 746.563 1186.6 Q749.641 1181.99 755.451 1181.99 Z" fill="#000000" fill-rule="nonzero" fill-opacity="1" /><path clip-path="url(#clip630)" d="M814.715 1244.59 L844.39 1244.59 L844.39 1248.53 L814.715 1248.53 L814.715 1244.59 Z" fill="#000000" fill-rule="nonzero" fill-opacity="1" /><path clip-path="url(#clip630)" d="M864.483 1229.94 Q860.872 1229.94 859.043 1233.51 Q857.238 1237.05 857.238 1244.18 Q857.238 1251.28 859.043 1254.85 Q860.872 1258.39 864.483 1258.39 Q868.117 1258.39 869.923 1254.85 Q871.751 1251.28 871.751 1244.18 Q871.751 1237.05 869.923 1233.51 Q868.117 1229.94 864.483 1229.94 M864.483 1226.24 Q870.293 1226.24 873.349 1230.84 Q876.427 1235.43 876.427 1244.18 Q876.427 1252.9 873.349 1257.51 Q870.293 1262.09 864.483 1262.09 Q858.673 1262.09 855.594 1257.51 Q852.539 1252.9 852.539 1244.18 Q852.539 1235.43 855.594 1230.84 Q858.673 1226.24 864.483 1226.24 Z" fill="#000000" fill-rule="nonzero" fill-opacity="1" /><path clip-path="url(#clip630)" d="M884.645 1255.54 L889.529 1255.54 L889.529 1261.42 L884.645 1261.42 L884.645 1255.54 Z" fill="#000000" fill-rule="nonzero" fill-opacity="1" /><path clip-path="url(#clip630)" d="M899.761 1226.86 L918.117 1226.86 L918.117 1230.8 L904.043 1230.8 L904.043 1239.27 Q905.061 1238.92 906.08 1238.76 Q907.098 1238.57 908.117 1238.57 Q913.904 1238.57 917.284 1241.75 Q920.663 1244.92 920.663 1250.33 Q920.663 1255.91 917.191 1259.01 Q913.719 1262.09 907.399 1262.09 Q905.223 1262.09 902.955 1261.72 Q900.71 1261.35 898.302 1260.61 L898.302 1255.91 Q900.386 1257.05 902.608 1257.6 Q904.83 1258.16 907.307 1258.16 Q911.311 1258.16 913.649 1256.05 Q915.987 1253.95 915.987 1250.33 Q915.987 1246.72 913.649 1244.62 Q911.311 1242.51 907.307 1242.51 Q905.432 1242.51 903.557 1242.93 Q901.705 1243.34 899.761 1244.22 L899.761 1226.86 Z" fill="#000000" fill-rule="nonzero" fill-opacity="1" /><path clip-path="url(#clip630)" d="M1016.76 1274.19 Q1013.14 1274.19 1011.32 1277.75 Q1009.51 1281.29 1009.51 1288.42 Q1009.51 1295.53 1011.32 1299.09 Q1013.14 1302.63 1016.76 1302.63 Q1020.39 1302.63 1022.19 1299.09 Q1024.02 1295.53 1024.02 1288.42 Q1024.02 1281.29 1022.19 1277.75 Q1020.39 1274.19 1016.76 1274.19 M1016.76 1270.48 Q1022.57 1270.48 1025.62 1275.09 Q1028.7 1279.67 1028.7 1288.42 Q1028.7 1297.15 1025.62 1301.75 Q1022.57 1306.34 1016.76 1306.34 Q1010.94 1306.34 1007.87 1301.75 Q1004.81 1297.15 1004.81 1288.42 Q1004.81 1279.67 1007.87 1275.09 Q1010.94 1270.48 1016.76 1270.48 Z" fill="#000000" fill-rule="nonzero" fill-opacity="1" /><path clip-path="url(#clip630)" d="M1036.92 1299.79 L1041.8 1299.79 L1041.8 1305.67 L1036.92 1305.67 L1036.92 1299.79 Z" fill="#000000" fill-rule="nonzero" fill-opacity="1" /><path clip-path="url(#clip630)" d="M1061.99 1274.19 Q1058.38 1274.19 1056.55 1277.75 Q1054.74 1281.29 1054.74 1288.42 Q1054.74 1295.53 1056.55 1299.09 Q1058.38 1302.63 1061.99 1302.63 Q1065.62 1302.63 1067.43 1299.09 Q1069.25 1295.53 1069.25 1288.42 Q1069.25 1281.29 1067.43 1277.75 Q1065.62 1274.19 1061.99 1274.19 M1061.99 1270.48 Q1067.8 1270.48 1070.85 1275.09 Q1073.93 1279.67 1073.93 1288.42 Q1073.93 1297.15 1070.85 1301.75 Q1067.8 1306.34 1061.99 1306.34 Q1056.18 1306.34 1053.1 1301.75 Q1050.04 1297.15 1050.04 1288.42 Q1050.04 1279.67 1053.1 1275.09 Q1056.18 1270.48 1061.99 1270.48 Z" fill="#000000" fill-rule="nonzero" fill-opacity="1" /><path clip-path="url(#clip630)" d="M1171.02 1318.43 Q1167.41 1318.43 1165.58 1321.99 Q1163.77 1325.54 1163.77 1332.67 Q1163.77 1339.77 1165.58 1343.34 Q1167.41 1346.88 1171.02 1346.88 Q1174.65 1346.88 1176.46 1343.34 Q1178.29 1339.77 1178.29 1332.67 Q1178.29 1325.54 1176.46 1321.99 Q1174.65 1318.43 1171.02 1318.43 M1171.02 1314.73 Q1176.83 1314.73 1179.88 1319.33 Q1182.96 1323.92 1182.96 1332.67 Q1182.96 1341.39 1179.88 1346 Q1176.83 1350.58 1171.02 1350.58 Q1165.21 1350.58 1162.13 1346 Q1159.07 1341.39 1159.07 1332.67 Q1159.07 1323.92 1162.13 1319.33 Q1165.21 1314.73 1171.02 1314.73 Z" fill="#000000" fill-rule="nonzero" fill-opacity="1" /><path clip-path="url(#clip630)" d="M1191.18 1344.03 L1196.06 1344.03 L1196.06 1349.91 L1191.18 1349.91 L1191.18 1344.03 Z" fill="#000000" fill-rule="nonzero" fill-opacity="1" /><path clip-path="url(#clip630)" d="M1206.3 1315.35 L1224.65 1315.35 L1224.65 1319.29 L1210.58 1319.29 L1210.58 1327.76 Q1211.6 1327.41 1212.61 1327.25 Q1213.63 1327.06 1214.65 1327.06 Q1220.44 1327.06 1223.82 1330.24 Q1227.2 1333.41 1227.2 1338.82 Q1227.2 1344.4 1223.73 1347.5 Q1220.25 1350.58 1213.93 1350.58 Q1211.76 1350.58 1209.49 1350.21 Q1207.24 1349.84 1204.84 1349.1 L1204.84 1344.4 Q1206.92 1345.54 1209.14 1346.09 Q1211.36 1346.65 1213.84 1346.65 Q1217.85 1346.65 1220.18 1344.54 Q1222.52 1342.43 1222.52 1338.82 Q1222.52 1335.21 1220.18 1333.11 Q1217.85 1331 1213.84 1331 Q1211.97 1331 1210.09 1331.42 Q1208.24 1331.83 1206.3 1332.71 L1206.3 1315.35 Z" fill="#000000" fill-rule="nonzero" fill-opacity="1" /><path clip-path="url(#clip630)" d="M1314.1 1390.22 L1321.74 1390.22 L1321.74 1363.85 L1313.43 1365.52 L1313.43 1361.26 L1321.69 1359.6 L1326.37 1359.6 L1326.37 1390.22 L1334.01 1390.22 L1334.01 1394.16 L1314.1 1394.16 L1314.1 1390.22 Z" fill="#000000" fill-rule="nonzero" fill-opacity="1" /><path clip-path="url(#clip630)" d="M1343.45 1388.28 L1348.34 1388.28 L1348.34 1394.16 L1343.45 1394.16 L1343.45 1388.28 Z" fill="#000000" fill-rule="nonzero" fill-opacity="1" /><path clip-path="url(#clip630)" d="M1368.52 1362.67 Q1364.91 1362.67 1363.08 1366.24 Q1361.28 1369.78 1361.28 1376.91 Q1361.28 1384.02 1363.08 1387.58 Q1364.91 1391.12 1368.52 1391.12 Q1372.16 1391.12 1373.96 1387.58 Q1375.79 1384.02 1375.79 1376.91 Q1375.79 1369.78 1373.96 1366.24 Q1372.16 1362.67 1368.52 1362.67 M1368.52 1358.97 Q1374.33 1358.97 1377.39 1363.58 Q1380.47 1368.16 1380.47 1376.91 Q1380.47 1385.64 1377.39 1390.24 Q1374.33 1394.83 1368.52 1394.83 Q1362.71 1394.83 1359.63 1390.24 Q1356.58 1385.64 1356.58 1376.91 Q1356.58 1368.16 1359.63 1363.58 Q1362.71 1358.97 1368.52 1358.97 Z" fill="#000000" fill-rule="nonzero" fill-opacity="1" /><path clip-path="url(#clip630)" d="M959.576 1398.57 Q959.576 1399.02 959.286 1400.09 L952.973 1425.27 Q951.589 1430.88 947.08 1434.81 Q942.603 1438.73 937.515 1438.73 Q934.455 1438.73 932.491 1437.09 Q930.526 1435.48 930.526 1433 Q930.526 1430.81 931.685 1429.75 Q932.845 1428.72 934.23 1428.72 Q934.681 1428.72 935.164 1428.85 Q935.647 1428.98 936.162 1429.52 Q936.677 1430.07 936.677 1431.01 Q936.677 1432.52 935.357 1433.71 Q934.713 1434.26 934.101 1434.39 Q933.521 1434.52 932.523 1434.52 Q932.909 1435.42 933.618 1436.03 Q934.326 1436.64 935.131 1436.87 Q935.937 1437.12 936.452 1437.19 Q936.999 1437.29 937.515 1437.29 Q941.637 1437.29 944.793 1433.13 Q945.727 1431.87 946.403 1430.62 Q947.112 1429.4 947.627 1427.88 Q948.143 1426.4 948.368 1425.59 Q948.626 1424.79 949.077 1422.95 Q946.081 1425.95 942.41 1425.95 Q940.864 1425.95 939.479 1425.53 Q938.127 1425.11 936.935 1424.24 Q935.743 1423.34 935.035 1421.76 Q934.358 1420.18 934.358 1418.09 Q934.358 1415.87 935.228 1412.84 Q936.098 1409.81 938.191 1404.24 Q939.318 1401.12 939.318 1399.6 Q939.318 1398.86 939.157 1398.41 Q938.996 1397.93 938.674 1397.77 Q938.352 1397.58 938.159 1397.54 Q937.998 1397.51 937.676 1397.51 Q935.776 1397.51 934.004 1399.44 Q932.233 1401.38 931.009 1405.69 Q930.751 1406.5 930.59 1406.69 Q930.429 1406.88 929.946 1406.88 Q929.141 1406.85 929.141 1406.21 Q929.141 1405.95 929.431 1404.95 Q929.721 1403.92 930.397 1402.41 Q931.106 1400.86 932.072 1399.48 Q933.038 1398.06 934.552 1397.06 Q936.098 1396.06 937.869 1396.06 Q940.284 1396.06 941.766 1397.64 Q943.279 1399.19 943.279 1401.47 Q943.279 1402.41 943.022 1403.24 Q942.796 1404.05 941.959 1406.21 Q938.577 1414.9 938.577 1419.15 Q938.577 1420.18 938.738 1421.05 Q938.932 1421.89 939.35 1422.73 Q939.769 1423.53 940.606 1424.02 Q941.476 1424.47 942.668 1424.47 Q944.181 1424.47 945.598 1423.76 Q947.048 1423.02 947.949 1422.02 Q948.883 1421.02 949.431 1420.18 Q950.011 1419.31 950.139 1418.86 L953.102 1407.01 L954.423 1401.73 Q955.035 1398.86 955.324 1398.16 Q955.711 1397.48 956.387 1397.12 Q957.064 1396.77 957.643 1396.77 Q958.448 1396.77 958.996 1397.25 Q959.576 1397.74 959.576 1398.57 Z" fill="#000000" fill-rule="nonzero" fill-opacity="1" /><path clip-path="url(#clip630)" d="M966.322 1430.52 L966.322 1429.08 Q971.868 1429.08 974.731 1426.13 Q975.52 1426.13 975.655 1426.31 Q975.79 1426.49 975.79 1427.32 L975.79 1453.22 Q975.79 1454.6 976.467 1455.03 Q977.143 1455.46 980.096 1455.46 L981.562 1455.46 L981.562 1456.88 Q979.938 1456.74 974.077 1456.74 Q968.215 1456.74 966.615 1456.88 L966.615 1455.46 L968.08 1455.46 Q970.988 1455.46 971.687 1455.05 Q972.386 1454.62 972.386 1453.22 L972.386 1429.3 Q969.974 1430.52 966.322 1430.52 Z" fill="#000000" fill-rule="nonzero" fill-opacity="1" /><polyline clip-path="url(#clip630)" style="stroke:#000000; stroke-linecap:round; stroke-linejoin:round; stroke-width:4; stroke-opacity:1; fill:none" points="1406.85,1354.51 1782.04,1029.59 "/>
<polyline clip-path="url(#clip630)" style="stroke:#000000; stroke-linecap:round; stroke-linejoin:round; stroke-width:4; stroke-opacity:1; fill:none" points="1417.46,1345.32 1409.67,1343.07 "/>
<polyline clip-path="url(#clip630)" style="stroke:#000000; stroke-linecap:round; stroke-linejoin:round; stroke-width:4; stroke-opacity:1; fill:none" points="1505.95,1268.68 1498.15,1266.43 "/>
<polyline clip-path="url(#clip630)" style="stroke:#000000; stroke-linecap:round; stroke-linejoin:round; stroke-width:4; stroke-opacity:1; fill:none" points="1594.44,1192.05 1586.64,1189.8 "/>
<polyline clip-path="url(#clip630)" style="stroke:#000000; stroke-linecap:round; stroke-linejoin:round; stroke-width:4; stroke-opacity:1; fill:none" points="1682.93,1115.42 1675.13,1113.17 "/>
<polyline clip-path="url(#clip630)" style="stroke:#000000; stroke-linecap:round; stroke-linejoin:round; stroke-width:4; stroke-opacity:1; fill:none" points="1771.42,1038.78 1763.62,1036.53 "/>
<path clip-path="url(#clip630)" d="M1436.32 1367.54 L1465.99 1367.54 L1465.99 1371.48 L1436.32 1371.48 L1436.32 1367.54 Z" fill="#000000" fill-rule="nonzero" fill-opacity="1" /><path clip-path="url(#clip630)" d="M1476.9 1380.43 L1484.54 1380.43 L1484.54 1354.07 L1476.23 1355.74 L1476.23 1351.48 L1484.49 1349.81 L1489.16 1349.81 L1489.16 1380.43 L1496.8 1380.43 L1496.8 1384.37 L1476.9 1384.37 L1476.9 1380.43 Z" fill="#000000" fill-rule="nonzero" fill-opacity="1" /><path clip-path="url(#clip630)" d="M1506.25 1378.49 L1511.13 1378.49 L1511.13 1384.37 L1506.25 1384.37 L1506.25 1378.49 Z" fill="#000000" fill-rule="nonzero" fill-opacity="1" /><path clip-path="url(#clip630)" d="M1531.32 1352.89 Q1527.71 1352.89 1525.88 1356.45 Q1524.07 1359.99 1524.07 1367.12 Q1524.07 1374.23 1525.88 1377.8 Q1527.71 1381.34 1531.32 1381.34 Q1534.95 1381.34 1536.76 1377.8 Q1538.59 1374.23 1538.59 1367.12 Q1538.59 1359.99 1536.76 1356.45 Q1534.95 1352.89 1531.32 1352.89 M1531.32 1349.18 Q1537.13 1349.18 1540.18 1353.79 Q1543.26 1358.37 1543.26 1367.12 Q1543.26 1375.85 1540.18 1380.46 Q1537.13 1385.04 1531.32 1385.04 Q1525.51 1385.04 1522.43 1380.46 Q1519.37 1375.85 1519.37 1367.12 Q1519.37 1358.37 1522.43 1353.79 Q1525.51 1349.18 1531.32 1349.18 Z" fill="#000000" fill-rule="nonzero" fill-opacity="1" /><path clip-path="url(#clip630)" d="M1524.81 1290.91 L1554.48 1290.91 L1554.48 1294.84 L1524.81 1294.84 L1524.81 1290.91 Z" fill="#000000" fill-rule="nonzero" fill-opacity="1" /><path clip-path="url(#clip630)" d="M1574.58 1276.25 Q1570.96 1276.25 1569.14 1279.82 Q1567.33 1283.36 1567.33 1290.49 Q1567.33 1297.6 1569.14 1301.16 Q1570.96 1304.7 1574.58 1304.7 Q1578.21 1304.7 1580.01 1301.16 Q1581.84 1297.6 1581.84 1290.49 Q1581.84 1283.36 1580.01 1279.82 Q1578.21 1276.25 1574.58 1276.25 M1574.58 1272.55 Q1580.39 1272.55 1583.44 1277.16 Q1586.52 1281.74 1586.52 1290.49 Q1586.52 1299.22 1583.44 1303.82 Q1580.39 1308.41 1574.58 1308.41 Q1568.77 1308.41 1565.69 1303.82 Q1562.63 1299.22 1562.63 1290.49 Q1562.63 1281.74 1565.69 1277.16 Q1568.77 1272.55 1574.58 1272.55 Z" fill="#000000" fill-rule="nonzero" fill-opacity="1" /><path clip-path="url(#clip630)" d="M1594.74 1301.86 L1599.62 1301.86 L1599.62 1307.74 L1594.74 1307.74 L1594.74 1301.86 Z" fill="#000000" fill-rule="nonzero" fill-opacity="1" /><path clip-path="url(#clip630)" d="M1609.85 1273.18 L1628.21 1273.18 L1628.21 1277.11 L1614.14 1277.11 L1614.14 1285.58 Q1615.15 1285.24 1616.17 1285.07 Q1617.19 1284.89 1618.21 1284.89 Q1624 1284.89 1627.38 1288.06 Q1630.76 1291.23 1630.76 1296.65 Q1630.76 1302.23 1627.28 1305.33 Q1623.81 1308.41 1617.49 1308.41 Q1615.32 1308.41 1613.05 1308.04 Q1610.8 1307.67 1608.39 1306.93 L1608.39 1302.23 Q1610.48 1303.36 1612.7 1303.92 Q1614.92 1304.47 1617.4 1304.47 Q1621.4 1304.47 1623.74 1302.37 Q1626.08 1300.26 1626.08 1296.65 Q1626.08 1293.04 1623.74 1290.93 Q1621.4 1288.82 1617.4 1288.82 Q1615.52 1288.82 1613.65 1289.24 Q1611.8 1289.66 1609.85 1290.54 L1609.85 1273.18 Z" fill="#000000" fill-rule="nonzero" fill-opacity="1" /><path clip-path="url(#clip630)" d="M1625.24 1199.62 Q1621.63 1199.62 1619.8 1203.19 Q1617.99 1206.73 1617.99 1213.86 Q1617.99 1220.96 1619.8 1224.53 Q1621.63 1228.07 1625.24 1228.07 Q1628.87 1228.07 1630.68 1224.53 Q1632.51 1220.96 1632.51 1213.86 Q1632.51 1206.73 1630.68 1203.19 Q1628.87 1199.62 1625.24 1199.62 M1625.24 1195.92 Q1631.05 1195.92 1634.11 1200.52 Q1637.18 1205.11 1637.18 1213.86 Q1637.18 1222.58 1634.11 1227.19 Q1631.05 1231.77 1625.24 1231.77 Q1619.43 1231.77 1616.35 1227.19 Q1613.3 1222.58 1613.3 1213.86 Q1613.3 1205.11 1616.35 1200.52 Q1619.43 1195.92 1625.24 1195.92 Z" fill="#000000" fill-rule="nonzero" fill-opacity="1" /><path clip-path="url(#clip630)" d="M1645.4 1225.22 L1650.29 1225.22 L1650.29 1231.1 L1645.4 1231.1 L1645.4 1225.22 Z" fill="#000000" fill-rule="nonzero" fill-opacity="1" /><path clip-path="url(#clip630)" d="M1670.47 1199.62 Q1666.86 1199.62 1665.03 1203.19 Q1663.23 1206.73 1663.23 1213.86 Q1663.23 1220.96 1665.03 1224.53 Q1666.86 1228.07 1670.47 1228.07 Q1674.11 1228.07 1675.91 1224.53 Q1677.74 1220.96 1677.74 1213.86 Q1677.74 1206.73 1675.91 1203.19 Q1674.11 1199.62 1670.47 1199.62 M1670.47 1195.92 Q1676.28 1195.92 1679.34 1200.52 Q1682.42 1205.11 1682.42 1213.86 Q1682.42 1222.58 1679.34 1227.19 Q1676.28 1231.77 1670.47 1231.77 Q1664.66 1231.77 1661.58 1227.19 Q1658.53 1222.58 1658.53 1213.86 Q1658.53 1205.11 1661.58 1200.52 Q1664.66 1195.92 1670.47 1195.92 Z" fill="#000000" fill-rule="nonzero" fill-opacity="1" /><path clip-path="url(#clip630)" d="M1713.73 1122.99 Q1710.12 1122.99 1708.29 1126.55 Q1706.48 1130.09 1706.48 1137.22 Q1706.48 1144.33 1708.29 1147.89 Q1710.12 1151.44 1713.73 1151.44 Q1717.36 1151.44 1719.17 1147.89 Q1721 1144.33 1721 1137.22 Q1721 1130.09 1719.17 1126.55 Q1717.36 1122.99 1713.73 1122.99 M1713.73 1119.28 Q1719.54 1119.28 1722.59 1123.89 Q1725.67 1128.47 1725.67 1137.22 Q1725.67 1145.95 1722.59 1150.56 Q1719.54 1155.14 1713.73 1155.14 Q1707.92 1155.14 1704.84 1150.56 Q1701.78 1145.95 1701.78 1137.22 Q1701.78 1128.47 1704.84 1123.89 Q1707.92 1119.28 1713.73 1119.28 Z" fill="#000000" fill-rule="nonzero" fill-opacity="1" /><path clip-path="url(#clip630)" d="M1733.89 1148.59 L1738.78 1148.59 L1738.78 1154.47 L1733.89 1154.47 L1733.89 1148.59 Z" fill="#000000" fill-rule="nonzero" fill-opacity="1" /><path clip-path="url(#clip630)" d="M1749.01 1119.91 L1767.36 1119.91 L1767.36 1123.84 L1753.29 1123.84 L1753.29 1132.32 Q1754.31 1131.97 1755.33 1131.81 Q1756.34 1131.62 1757.36 1131.62 Q1763.15 1131.62 1766.53 1134.79 Q1769.91 1137.96 1769.91 1143.38 Q1769.91 1148.96 1766.44 1152.06 Q1762.97 1155.14 1756.65 1155.14 Q1754.47 1155.14 1752.2 1154.77 Q1749.96 1154.4 1747.55 1153.66 L1747.55 1148.96 Q1749.63 1150.09 1751.85 1150.65 Q1754.08 1151.2 1756.55 1151.2 Q1760.56 1151.2 1762.9 1149.1 Q1765.23 1146.99 1765.23 1143.38 Q1765.23 1139.77 1762.9 1137.66 Q1760.56 1135.56 1756.55 1135.56 Q1754.68 1135.56 1752.8 1135.97 Q1750.95 1136.39 1749.01 1137.27 L1749.01 1119.91 Z" fill="#000000" fill-rule="nonzero" fill-opacity="1" /><path clip-path="url(#clip630)" d="M1790.95 1073.9 L1798.58 1073.9 L1798.58 1047.53 L1790.27 1049.2 L1790.27 1044.94 L1798.54 1043.27 L1803.21 1043.27 L1803.21 1073.9 L1810.85 1073.9 L1810.85 1077.83 L1790.95 1077.83 L1790.95 1073.9 Z" fill="#000000" fill-rule="nonzero" fill-opacity="1" /><path clip-path="url(#clip630)" d="M1820.3 1071.95 L1825.18 1071.95 L1825.18 1077.83 L1820.3 1077.83 L1820.3 1071.95 Z" fill="#000000" fill-rule="nonzero" fill-opacity="1" /><path clip-path="url(#clip630)" d="M1845.37 1046.35 Q1841.76 1046.35 1839.93 1049.92 Q1838.12 1053.46 1838.12 1060.59 Q1838.12 1067.7 1839.93 1071.26 Q1841.76 1074.8 1845.37 1074.8 Q1849 1074.8 1850.81 1071.26 Q1852.63 1067.7 1852.63 1060.59 Q1852.63 1053.46 1850.81 1049.92 Q1849 1046.35 1845.37 1046.35 M1845.37 1042.65 Q1851.18 1042.65 1854.23 1047.26 Q1857.31 1051.84 1857.31 1060.59 Q1857.31 1069.32 1854.23 1073.92 Q1851.18 1078.51 1845.37 1078.51 Q1839.56 1078.51 1836.48 1073.92 Q1833.42 1069.32 1833.42 1060.59 Q1833.42 1051.84 1836.48 1047.26 Q1839.56 1042.65 1845.37 1042.65 Z" fill="#000000" fill-rule="nonzero" fill-opacity="1" /><path clip-path="url(#clip630)" d="M1716.76 1329.91 Q1716.76 1330.36 1716.47 1331.42 L1710.16 1356.61 Q1708.77 1362.21 1704.26 1366.14 Q1699.79 1370.07 1694.7 1370.07 Q1691.64 1370.07 1689.67 1368.43 Q1687.71 1366.82 1687.71 1364.34 Q1687.71 1362.15 1688.87 1361.08 Q1690.03 1360.05 1691.41 1360.05 Q1691.86 1360.05 1692.35 1360.18 Q1692.83 1360.31 1693.35 1360.86 Q1693.86 1361.41 1693.86 1362.34 Q1693.86 1363.85 1692.54 1365.05 Q1691.9 1365.59 1691.28 1365.72 Q1690.7 1365.85 1689.71 1365.85 Q1690.09 1366.75 1690.8 1367.36 Q1691.51 1367.98 1692.31 1368.2 Q1693.12 1368.46 1693.63 1368.52 Q1694.18 1368.62 1694.7 1368.62 Q1698.82 1368.62 1701.98 1364.47 Q1702.91 1363.21 1703.59 1361.95 Q1704.3 1360.73 1704.81 1359.22 Q1705.33 1357.73 1705.55 1356.93 Q1705.81 1356.12 1706.26 1354.29 Q1703.26 1357.28 1699.59 1357.28 Q1698.05 1357.28 1696.66 1356.87 Q1695.31 1356.45 1694.12 1355.58 Q1692.93 1354.68 1692.22 1353.1 Q1691.54 1351.52 1691.54 1349.43 Q1691.54 1347.2 1692.41 1344.18 Q1693.28 1341.15 1695.37 1335.58 Q1696.5 1332.45 1696.5 1330.94 Q1696.5 1330.2 1696.34 1329.75 Q1696.18 1329.26 1695.86 1329.1 Q1695.54 1328.91 1695.34 1328.88 Q1695.18 1328.85 1694.86 1328.85 Q1692.96 1328.85 1691.19 1330.78 Q1689.42 1332.71 1688.19 1337.03 Q1687.93 1337.83 1687.77 1338.02 Q1687.61 1338.22 1687.13 1338.22 Q1686.32 1338.19 1686.32 1337.54 Q1686.32 1337.28 1686.61 1336.29 Q1686.9 1335.26 1687.58 1333.74 Q1688.29 1332.2 1689.25 1330.81 Q1690.22 1329.39 1691.73 1328.4 Q1693.28 1327.4 1695.05 1327.4 Q1697.47 1327.4 1698.95 1328.97 Q1700.46 1330.52 1700.46 1332.81 Q1700.46 1333.74 1700.2 1334.58 Q1699.98 1335.38 1699.14 1337.54 Q1695.76 1346.24 1695.76 1350.49 Q1695.76 1351.52 1695.92 1352.39 Q1696.11 1353.23 1696.53 1354.06 Q1696.95 1354.87 1697.79 1355.35 Q1698.66 1355.8 1699.85 1355.8 Q1701.36 1355.8 1702.78 1355.09 Q1704.23 1354.35 1705.13 1353.35 Q1706.07 1352.36 1706.61 1351.52 Q1707.19 1350.65 1707.32 1350.2 L1710.29 1338.35 L1711.61 1333.07 Q1712.22 1330.2 1712.51 1329.49 Q1712.89 1328.81 1713.57 1328.46 Q1714.25 1328.11 1714.83 1328.11 Q1715.63 1328.11 1716.18 1328.59 Q1716.76 1329.07 1716.76 1329.91 Z" fill="#000000" fill-rule="nonzero" fill-opacity="1" /><path clip-path="url(#clip630)" d="M1723.5 1388.21 Q1723.5 1387.38 1723.57 1387.13 Q1723.66 1386.88 1724.02 1386.5 L1732.88 1376.62 Q1737.73 1371.17 1737.73 1366.41 Q1737.73 1363.32 1736.11 1361.11 Q1734.51 1358.9 1731.55 1358.9 Q1729.52 1358.9 1727.81 1360.14 Q1726.1 1361.38 1725.31 1363.59 Q1725.44 1363.55 1725.92 1363.55 Q1727.07 1363.55 1727.7 1364.27 Q1728.35 1364.99 1728.35 1365.96 Q1728.35 1367.2 1727.54 1367.81 Q1726.75 1368.39 1725.96 1368.39 Q1725.65 1368.39 1725.22 1368.33 Q1724.81 1368.26 1724.16 1367.63 Q1723.5 1366.97 1723.5 1365.82 Q1723.5 1362.6 1725.94 1360.03 Q1728.4 1357.46 1732.14 1357.46 Q1736.38 1357.46 1739.15 1359.99 Q1741.95 1362.49 1741.95 1366.41 Q1741.95 1367.79 1741.52 1369.05 Q1741.11 1370.29 1740.55 1371.26 Q1740.01 1372.23 1738.52 1373.78 Q1737.03 1375.34 1735.84 1376.44 Q1734.64 1377.55 1731.96 1379.89 L1727.07 1384.65 L1735.39 1384.65 Q1739.44 1384.65 1739.76 1384.29 Q1740.21 1383.63 1740.77 1380.18 L1741.95 1380.18 L1740.64 1388.21 L1723.5 1388.21 Z" fill="#000000" fill-rule="nonzero" fill-opacity="1" /><polyline clip-path="url(#clip630)" style="stroke:#000000; stroke-linecap:round; stroke-linejoin:round; stroke-width:4; stroke-opacity:1; fill:none" points="756.991,1166.92 756.991,517.064 "/>
<polyline clip-path="url(#clip630)" style="stroke:#000000; stroke-linecap:round; stroke-linejoin:round; stroke-width:4; stroke-opacity:1; fill:none" points="756.991,1148.53 761.494,1144.63 "/>
<polyline clip-path="url(#clip630)" style="stroke:#000000; stroke-linecap:round; stroke-linejoin:round; stroke-width:4; stroke-opacity:1; fill:none" points="756.991,995.259 761.494,991.359 "/>
<polyline clip-path="url(#clip630)" style="stroke:#000000; stroke-linecap:round; stroke-linejoin:round; stroke-width:4; stroke-opacity:1; fill:none" points="756.991,841.991 761.494,838.092 "/>
<polyline clip-path="url(#clip630)" style="stroke:#000000; stroke-linecap:round; stroke-linejoin:round; stroke-width:4; stroke-opacity:1; fill:none" points="756.991,688.724 761.494,684.825 "/>
<polyline clip-path="url(#clip630)" style="stroke:#000000; stroke-linecap:round; stroke-linejoin:round; stroke-width:4; stroke-opacity:1; fill:none" points="756.991,535.456 761.494,531.557 "/>
<path clip-path="url(#clip630)" d="M640.854 1134.32 Q637.243 1134.32 635.414 1137.89 Q633.609 1141.43 633.609 1148.56 Q633.609 1155.67 635.414 1159.23 Q637.243 1162.77 640.854 1162.77 Q644.488 1162.77 646.294 1159.23 Q648.122 1155.67 648.122 1148.56 Q648.122 1141.43 646.294 1137.89 Q644.488 1134.32 640.854 1134.32 M640.854 1130.62 Q646.664 1130.62 649.72 1135.23 Q652.798 1139.81 652.798 1148.56 Q652.798 1157.29 649.72 1161.89 Q646.664 1166.48 640.854 1166.48 Q635.044 1166.48 631.965 1161.89 Q628.909 1157.29 628.909 1148.56 Q628.909 1139.81 631.965 1135.23 Q635.044 1130.62 640.854 1130.62 Z" fill="#000000" fill-rule="nonzero" fill-opacity="1" /><path clip-path="url(#clip630)" d="M661.016 1159.93 L665.9 1159.93 L665.9 1165.81 L661.016 1165.81 L661.016 1159.93 Z" fill="#000000" fill-rule="nonzero" fill-opacity="1" /><path clip-path="url(#clip630)" d="M686.085 1134.32 Q682.474 1134.32 680.645 1137.89 Q678.84 1141.43 678.84 1148.56 Q678.84 1155.67 680.645 1159.23 Q682.474 1162.77 686.085 1162.77 Q689.719 1162.77 691.525 1159.23 Q693.354 1155.67 693.354 1148.56 Q693.354 1141.43 691.525 1137.89 Q689.719 1134.32 686.085 1134.32 M686.085 1130.62 Q691.895 1130.62 694.951 1135.23 Q698.029 1139.81 698.029 1148.56 Q698.029 1157.29 694.951 1161.89 Q691.895 1166.48 686.085 1166.48 Q680.275 1166.48 677.196 1161.89 Q674.141 1157.29 674.141 1148.56 Q674.141 1139.81 677.196 1135.23 Q680.275 1130.62 686.085 1130.62 Z" fill="#000000" fill-rule="nonzero" fill-opacity="1" /><path clip-path="url(#clip630)" d="M716.247 1134.32 Q712.636 1134.32 710.807 1137.89 Q709.002 1141.43 709.002 1148.56 Q709.002 1155.67 710.807 1159.23 Q712.636 1162.77 716.247 1162.77 Q719.881 1162.77 721.687 1159.23 Q723.515 1155.67 723.515 1148.56 Q723.515 1141.43 721.687 1137.89 Q719.881 1134.32 716.247 1134.32 M716.247 1130.62 Q722.057 1130.62 725.113 1135.23 Q728.191 1139.81 728.191 1148.56 Q728.191 1157.29 725.113 1161.89 Q722.057 1166.48 716.247 1166.48 Q710.437 1166.48 707.358 1161.89 Q704.303 1157.29 704.303 1148.56 Q704.303 1139.81 707.358 1135.23 Q710.437 1130.62 716.247 1130.62 Z" fill="#000000" fill-rule="nonzero" fill-opacity="1" /><path clip-path="url(#clip630)" d="M641.849 981.057 Q638.238 981.057 636.409 984.622 Q634.604 988.164 634.604 995.293 Q634.604 1002.4 636.409 1005.96 Q638.238 1009.51 641.849 1009.51 Q645.483 1009.51 647.289 1005.96 Q649.118 1002.4 649.118 995.293 Q649.118 988.164 647.289 984.622 Q645.483 981.057 641.849 981.057 M641.849 977.354 Q647.659 977.354 650.715 981.96 Q653.794 986.543 653.794 995.293 Q653.794 1004.02 650.715 1008.63 Q647.659 1013.21 641.849 1013.21 Q636.039 1013.21 632.96 1008.63 Q629.905 1004.02 629.905 995.293 Q629.905 986.543 632.96 981.96 Q636.039 977.354 641.849 977.354 Z" fill="#000000" fill-rule="nonzero" fill-opacity="1" /><path clip-path="url(#clip630)" d="M662.011 1006.66 L666.895 1006.66 L666.895 1012.54 L662.011 1012.54 L662.011 1006.66 Z" fill="#000000" fill-rule="nonzero" fill-opacity="1" /><path clip-path="url(#clip630)" d="M681.108 1008.6 L697.428 1008.6 L697.428 1012.54 L675.483 1012.54 L675.483 1008.6 Q678.145 1005.85 682.729 1001.22 Q687.335 996.566 688.516 995.224 Q690.761 992.701 691.641 990.965 Q692.543 989.205 692.543 987.516 Q692.543 984.761 690.599 983.025 Q688.678 981.289 685.576 981.289 Q683.377 981.289 680.923 982.053 Q678.493 982.816 675.715 984.367 L675.715 979.645 Q678.539 978.511 680.993 977.932 Q683.446 977.354 685.483 977.354 Q690.854 977.354 694.048 980.039 Q697.242 982.724 697.242 987.215 Q697.242 989.344 696.432 991.266 Q695.645 993.164 693.539 995.756 Q692.96 996.428 689.858 999.645 Q686.756 1002.84 681.108 1008.6 Z" fill="#000000" fill-rule="nonzero" fill-opacity="1" /><path clip-path="url(#clip630)" d="M707.289 977.979 L725.645 977.979 L725.645 981.914 L711.571 981.914 L711.571 990.386 Q712.59 990.039 713.608 989.877 Q714.627 989.691 715.645 989.691 Q721.432 989.691 724.812 992.863 Q728.191 996.034 728.191 1001.45 Q728.191 1007.03 724.719 1010.13 Q721.247 1013.21 714.928 1013.21 Q712.752 1013.21 710.483 1012.84 Q708.238 1012.47 705.83 1011.73 L705.83 1007.03 Q707.914 1008.16 710.136 1008.72 Q712.358 1009.27 714.835 1009.27 Q718.84 1009.27 721.178 1007.17 Q723.515 1005.06 723.515 1001.45 Q723.515 997.84 721.178 995.733 Q718.84 993.627 714.835 993.627 Q712.96 993.627 711.085 994.043 Q709.233 994.46 707.289 995.34 L707.289 977.979 Z" fill="#000000" fill-rule="nonzero" fill-opacity="1" /><path clip-path="url(#clip630)" d="M640.854 827.79 Q637.243 827.79 635.414 831.355 Q633.609 834.896 633.609 842.026 Q633.609 849.132 635.414 852.697 Q637.243 856.239 640.854 856.239 Q644.488 856.239 646.294 852.697 Q648.122 849.132 648.122 842.026 Q648.122 834.896 646.294 831.355 Q644.488 827.79 640.854 827.79 M640.854 824.086 Q646.664 824.086 649.72 828.693 Q652.798 833.276 652.798 842.026 Q652.798 850.753 649.72 855.359 Q646.664 859.942 640.854 859.942 Q635.044 859.942 631.965 855.359 Q628.909 850.753 628.909 842.026 Q628.909 833.276 631.965 828.693 Q635.044 824.086 640.854 824.086 Z" fill="#000000" fill-rule="nonzero" fill-opacity="1" /><path clip-path="url(#clip630)" d="M661.016 853.392 L665.9 853.392 L665.9 859.271 L661.016 859.271 L661.016 853.392 Z" fill="#000000" fill-rule="nonzero" fill-opacity="1" /><path clip-path="url(#clip630)" d="M676.131 824.711 L694.488 824.711 L694.488 828.646 L680.414 828.646 L680.414 837.118 Q681.432 836.771 682.451 836.609 Q683.469 836.424 684.488 836.424 Q690.275 836.424 693.655 839.595 Q697.034 842.767 697.034 848.183 Q697.034 853.762 693.562 856.864 Q690.09 859.942 683.77 859.942 Q681.594 859.942 679.326 859.572 Q677.081 859.202 674.673 858.461 L674.673 853.762 Q676.756 854.896 678.979 855.452 Q681.201 856.007 683.678 856.007 Q687.682 856.007 690.02 853.901 Q692.358 851.794 692.358 848.183 Q692.358 844.572 690.02 842.466 Q687.682 840.359 683.678 840.359 Q681.803 840.359 679.928 840.776 Q678.076 841.193 676.131 842.072 L676.131 824.711 Z" fill="#000000" fill-rule="nonzero" fill-opacity="1" /><path clip-path="url(#clip630)" d="M716.247 827.79 Q712.636 827.79 710.807 831.355 Q709.002 834.896 709.002 842.026 Q709.002 849.132 710.807 852.697 Q712.636 856.239 716.247 856.239 Q719.881 856.239 721.687 852.697 Q723.515 849.132 723.515 842.026 Q723.515 834.896 721.687 831.355 Q719.881 827.79 716.247 827.79 M716.247 824.086 Q722.057 824.086 725.113 828.693 Q728.191 833.276 728.191 842.026 Q728.191 850.753 725.113 855.359 Q722.057 859.942 716.247 859.942 Q710.437 859.942 707.358 855.359 Q704.303 850.753 704.303 842.026 Q704.303 833.276 707.358 828.693 Q710.437 824.086 716.247 824.086 Z" fill="#000000" fill-rule="nonzero" fill-opacity="1" /><path clip-path="url(#clip630)" d="M641.849 674.522 Q638.238 674.522 636.409 678.087 Q634.604 681.629 634.604 688.758 Q634.604 695.865 636.409 699.43 Q638.238 702.971 641.849 702.971 Q645.483 702.971 647.289 699.43 Q649.118 695.865 649.118 688.758 Q649.118 681.629 647.289 678.087 Q645.483 674.522 641.849 674.522 M641.849 670.819 Q647.659 670.819 650.715 675.425 Q653.794 680.008 653.794 688.758 Q653.794 697.485 650.715 702.092 Q647.659 706.675 641.849 706.675 Q636.039 706.675 632.96 702.092 Q629.905 697.485 629.905 688.758 Q629.905 680.008 632.96 675.425 Q636.039 670.819 641.849 670.819 Z" fill="#000000" fill-rule="nonzero" fill-opacity="1" /><path clip-path="url(#clip630)" d="M662.011 700.124 L666.895 700.124 L666.895 706.004 L662.011 706.004 L662.011 700.124 Z" fill="#000000" fill-rule="nonzero" fill-opacity="1" /><path clip-path="url(#clip630)" d="M675.9 671.444 L698.122 671.444 L698.122 673.434 L685.576 706.004 L680.692 706.004 L692.497 675.379 L675.9 675.379 L675.9 671.444 Z" fill="#000000" fill-rule="nonzero" fill-opacity="1" /><path clip-path="url(#clip630)" d="M707.289 671.444 L725.645 671.444 L725.645 675.379 L711.571 675.379 L711.571 683.851 Q712.59 683.504 713.608 683.342 Q714.627 683.157 715.645 683.157 Q721.432 683.157 724.812 686.328 Q728.191 689.499 728.191 694.916 Q728.191 700.494 724.719 703.596 Q721.247 706.675 714.928 706.675 Q712.752 706.675 710.483 706.305 Q708.238 705.934 705.83 705.194 L705.83 700.494 Q707.914 701.629 710.136 702.184 Q712.358 702.74 714.835 702.74 Q718.84 702.74 721.178 700.633 Q723.515 698.527 723.515 694.916 Q723.515 691.305 721.178 689.198 Q718.84 687.092 714.835 687.092 Q712.96 687.092 711.085 687.508 Q709.233 687.925 707.289 688.805 L707.289 671.444 Z" fill="#000000" fill-rule="nonzero" fill-opacity="1" /><path clip-path="url(#clip630)" d="M631.664 548.801 L639.303 548.801 L639.303 522.436 L630.993 524.102 L630.993 519.843 L639.257 518.176 L643.933 518.176 L643.933 548.801 L651.571 548.801 L651.571 552.736 L631.664 552.736 L631.664 548.801 Z" fill="#000000" fill-rule="nonzero" fill-opacity="1" /><path clip-path="url(#clip630)" d="M661.016 546.857 L665.9 546.857 L665.9 552.736 L661.016 552.736 L661.016 546.857 Z" fill="#000000" fill-rule="nonzero" fill-opacity="1" /><path clip-path="url(#clip630)" d="M686.085 521.255 Q682.474 521.255 680.645 524.82 Q678.84 528.361 678.84 535.491 Q678.84 542.597 680.645 546.162 Q682.474 549.704 686.085 549.704 Q689.719 549.704 691.525 546.162 Q693.354 542.597 693.354 535.491 Q693.354 528.361 691.525 524.82 Q689.719 521.255 686.085 521.255 M686.085 517.551 Q691.895 517.551 694.951 522.158 Q698.029 526.741 698.029 535.491 Q698.029 544.218 694.951 548.824 Q691.895 553.408 686.085 553.408 Q680.275 553.408 677.196 548.824 Q674.141 544.218 674.141 535.491 Q674.141 526.741 677.196 522.158 Q680.275 517.551 686.085 517.551 Z" fill="#000000" fill-rule="nonzero" fill-opacity="1" /><path clip-path="url(#clip630)" d="M716.247 521.255 Q712.636 521.255 710.807 524.82 Q709.002 528.361 709.002 535.491 Q709.002 542.597 710.807 546.162 Q712.636 549.704 716.247 549.704 Q719.881 549.704 721.687 546.162 Q723.515 542.597 723.515 535.491 Q723.515 528.361 721.687 524.82 Q719.881 521.255 716.247 521.255 M716.247 517.551 Q722.057 517.551 725.113 522.158 Q728.191 526.741 728.191 535.491 Q728.191 544.218 725.113 548.824 Q722.057 553.408 716.247 553.408 Q710.437 553.408 707.358 548.824 Q704.303 544.218 704.303 535.491 Q704.303 526.741 707.358 522.158 Q710.437 517.551 716.247 517.551 Z" fill="#000000" fill-rule="nonzero" fill-opacity="1" /><path clip-path="url(#clip630)" d="M895.09 14.0809 L895.09 22.0612 Q890.431 19.8332 886.299 18.7395 Q882.167 17.6457 878.319 17.6457 Q871.635 17.6457 867.989 20.2383 Q864.384 22.8309 864.384 27.611 Q864.384 31.6214 866.774 33.6873 Q869.205 35.7128 875.929 36.9686 L880.871 37.9813 Q890.026 39.7232 894.361 44.1387 Q898.736 48.5136 898.736 55.8863 Q898.736 64.6767 892.821 69.2137 Q886.948 73.7508 875.565 73.7508 Q871.271 73.7508 866.409 72.7785 Q861.589 71.8063 856.404 69.9024 L856.404 61.4765 Q861.386 64.2716 866.166 65.6895 Q870.946 67.1073 875.565 67.1073 Q882.573 67.1073 886.38 64.3527 Q890.188 61.598 890.188 56.4939 Q890.188 52.0379 887.434 49.5264 Q884.72 47.0148 878.481 45.759 L873.499 44.7868 Q864.344 42.9639 860.252 39.075 Q856.161 35.1862 856.161 28.2591 Q856.161 20.2383 861.791 15.6203 Q867.463 11.0023 877.387 11.0023 Q881.641 11.0023 886.056 11.7719 Q890.472 12.5416 895.09 14.0809 Z" fill="#000000" fill-rule="nonzero" fill-opacity="1" /><path clip-path="url(#clip630)" d="M918.383 65.7705 L918.383 89.8329 L910.888 89.8329 L910.888 27.2059 L918.383 27.2059 L918.383 34.0924 Q920.732 30.0415 924.297 28.0971 Q927.902 26.1121 932.885 26.1121 Q941.149 26.1121 946.293 32.6746 Q951.478 39.2371 951.478 49.9314 Q951.478 60.6258 946.293 67.1883 Q941.149 73.7508 932.885 73.7508 Q927.902 73.7508 924.297 71.8063 Q920.732 69.8214 918.383 65.7705 M943.741 49.9314 Q943.741 41.7081 940.338 37.0496 Q936.976 32.3505 931.062 32.3505 Q925.148 32.3505 921.745 37.0496 Q918.383 41.7081 918.383 49.9314 Q918.383 58.1548 921.745 62.8538 Q925.148 67.5124 931.062 67.5124 Q936.976 67.5124 940.338 62.8538 Q943.741 58.1548 943.741 49.9314 Z" fill="#000000" fill-rule="nonzero" fill-opacity="1" /><path clip-path="url(#clip630)" d="M984.453 49.7694 Q975.419 49.7694 971.936 51.8354 Q968.452 53.9013 968.452 58.8839 Q968.452 62.8538 971.044 65.2034 Q973.677 67.5124 978.174 67.5124 Q984.372 67.5124 988.099 63.1374 Q991.866 58.7219 991.866 51.4303 L991.866 49.7694 L984.453 49.7694 M999.32 46.6907 L999.32 72.576 L991.866 72.576 L991.866 65.6895 Q989.314 69.8214 985.506 71.8063 Q981.698 73.7508 976.189 73.7508 Q969.221 73.7508 965.09 69.8619 Q960.998 65.9325 960.998 59.3701 Q960.998 51.7138 966.102 47.825 Q971.247 43.9361 981.415 43.9361 L991.866 43.9361 L991.866 43.2069 Q991.866 38.0623 988.463 35.2672 Q985.101 32.4315 978.984 32.4315 Q975.095 32.4315 971.409 33.3632 Q967.723 34.295 964.32 36.1584 L964.32 29.2718 Q968.411 27.692 972.26 26.9223 Q976.108 26.1121 979.754 26.1121 Q989.597 26.1121 994.459 31.2163 Q999.32 36.3204 999.32 46.6907 Z" fill="#000000" fill-rule="nonzero" fill-opacity="1" /><path clip-path="url(#clip630)" d="M1040.96 34.1734 Q1039.71 33.4443 1038.21 33.1202 Q1036.75 32.7556 1034.97 32.7556 Q1028.65 32.7556 1025.25 36.8875 Q1021.88 40.9789 1021.88 48.6757 L1021.88 72.576 L1014.39 72.576 L1014.39 27.2059 L1021.88 27.2059 L1021.88 34.2544 Q1024.23 30.1225 1028 28.1376 Q1031.77 26.1121 1037.16 26.1121 Q1037.92 26.1121 1038.86 26.2337 Q1039.79 26.3147 1040.92 26.5172 L1040.96 34.1734 Z" fill="#000000" fill-rule="nonzero" fill-opacity="1" /><path clip-path="url(#clip630)" d="M1077.7 28.5427 L1077.7 35.5912 Q1074.54 33.9709 1071.14 33.1607 Q1067.74 32.3505 1064.09 32.3505 Q1058.54 32.3505 1055.75 34.0519 Q1052.99 35.7533 1052.99 39.156 Q1052.99 41.7486 1054.98 43.2475 Q1056.96 44.7058 1062.96 46.0426 L1065.51 46.6097 Q1073.45 48.3111 1076.77 51.4303 Q1080.14 54.509 1080.14 60.0587 Q1080.14 66.3781 1075.11 70.0644 Q1070.13 73.7508 1061.38 73.7508 Q1057.73 73.7508 1053.76 73.0216 Q1049.83 72.3329 1045.46 70.9151 L1045.46 63.2184 Q1049.59 65.3654 1053.6 66.4591 Q1057.61 67.5124 1061.54 67.5124 Q1066.81 67.5124 1069.64 65.73 Q1072.48 63.9071 1072.48 60.6258 Q1072.48 57.5877 1070.41 55.9673 Q1068.39 54.3469 1061.46 52.8481 L1058.87 52.2405 Q1051.94 50.7821 1048.86 47.7845 Q1045.78 44.7463 1045.78 39.4801 Q1045.78 33.0797 1050.32 29.5959 Q1054.86 26.1121 1063.2 26.1121 Q1067.33 26.1121 1070.98 26.7198 Q1074.63 27.3274 1077.7 28.5427 Z" fill="#000000" fill-rule="nonzero" fill-opacity="1" /><path clip-path="url(#clip630)" d="M1130.81 48.0275 L1130.81 51.6733 L1096.54 51.6733 Q1097.03 59.3701 1101.16 63.421 Q1105.33 67.4314 1112.74 67.4314 Q1117.04 67.4314 1121.05 66.3781 Q1125.1 65.3249 1129.07 63.2184 L1129.07 70.267 Q1125.06 71.9684 1120.85 72.8596 Q1116.63 73.7508 1112.3 73.7508 Q1101.44 73.7508 1095.08 67.4314 Q1088.76 61.1119 1088.76 50.3365 Q1088.76 39.1965 1094.76 32.6746 Q1100.79 26.1121 1111 26.1121 Q1120.16 26.1121 1125.46 32.0264 Q1130.81 37.9003 1130.81 48.0275 M1123.36 45.84 Q1123.28 39.7232 1119.92 36.0774 Q1116.59 32.4315 1111.08 32.4315 Q1104.85 32.4315 1101.08 35.9558 Q1097.35 39.4801 1096.78 45.8805 L1123.36 45.84 Z" fill="#000000" fill-rule="nonzero" fill-opacity="1" /><path clip-path="url(#clip630)" d="M1210.98 63.9476 L1210.98 47.7034 L1197.61 47.7034 L1197.61 40.9789 L1219.08 40.9789 L1219.08 66.9452 Q1214.34 70.3075 1208.63 72.0494 Q1202.92 73.7508 1196.44 73.7508 Q1182.26 73.7508 1174.24 65.4869 Q1166.26 57.1826 1166.26 42.3968 Q1166.26 27.5705 1174.24 19.3066 Q1182.26 11.0023 1196.44 11.0023 Q1202.35 11.0023 1207.66 12.4606 Q1213 13.9189 1217.5 16.7545 L1217.5 25.464 Q1212.96 21.6156 1207.86 19.6712 Q1202.76 17.7268 1197.13 17.7268 Q1186.03 17.7268 1180.44 23.9246 Q1174.89 30.1225 1174.89 42.3968 Q1174.89 54.6305 1180.44 60.8284 Q1186.03 67.0263 1197.13 67.0263 Q1201.46 67.0263 1204.86 66.2971 Q1208.27 65.5274 1210.98 63.9476 Z" fill="#000000" fill-rule="nonzero" fill-opacity="1" /><path clip-path="url(#clip630)" d="M1260 34.1734 Q1258.74 33.4443 1257.24 33.1202 Q1255.78 32.7556 1254 32.7556 Q1247.68 32.7556 1244.28 36.8875 Q1240.92 40.9789 1240.92 48.6757 L1240.92 72.576 L1233.42 72.576 L1233.42 27.2059 L1240.92 27.2059 L1240.92 34.2544 Q1243.27 30.1225 1247.03 28.1376 Q1250.8 26.1121 1256.19 26.1121 Q1256.96 26.1121 1257.89 26.2337 Q1258.82 26.3147 1259.95 26.5172 L1260 34.1734 Z" fill="#000000" fill-rule="nonzero" fill-opacity="1" /><path clip-path="url(#clip630)" d="M1267.81 27.2059 L1275.27 27.2059 L1275.27 72.576 L1267.81 72.576 L1267.81 27.2059 M1267.81 9.54393 L1275.27 9.54393 L1275.27 18.9825 L1267.81 18.9825 L1267.81 9.54393 Z" fill="#000000" fill-rule="nonzero" fill-opacity="1" /><path clip-path="url(#clip630)" d="M1320.72 34.0924 L1320.72 9.54393 L1328.17 9.54393 L1328.17 72.576 L1320.72 72.576 L1320.72 65.7705 Q1318.37 69.8214 1314.76 71.8063 Q1311.2 73.7508 1306.18 73.7508 Q1297.95 73.7508 1292.77 67.1883 Q1287.62 60.6258 1287.62 49.9314 Q1287.62 39.2371 1292.77 32.6746 Q1297.95 26.1121 1306.18 26.1121 Q1311.2 26.1121 1314.76 28.0971 Q1318.37 30.0415 1320.72 34.0924 M1295.32 49.9314 Q1295.32 58.1548 1298.68 62.8538 Q1302.08 67.5124 1308 67.5124 Q1313.91 67.5124 1317.32 62.8538 Q1320.72 58.1548 1320.72 49.9314 Q1320.72 41.7081 1317.32 37.0496 Q1313.91 32.3505 1308 32.3505 Q1302.08 32.3505 1298.68 37.0496 Q1295.32 41.7081 1295.32 49.9314 Z" fill="#000000" fill-rule="nonzero" fill-opacity="1" /><path clip-path="url(#clip630)" d="M1407.61 45.1919 L1407.61 72.576 L1400.16 72.576 L1400.16 45.4349 Q1400.16 38.994 1397.65 35.7938 Q1395.13 32.5936 1390.11 32.5936 Q1384.07 32.5936 1380.59 36.4419 Q1377.11 40.2903 1377.11 46.9338 L1377.11 72.576 L1369.61 72.576 L1369.61 27.2059 L1377.11 27.2059 L1377.11 34.2544 Q1379.78 30.163 1383.39 28.1376 Q1387.03 26.1121 1391.77 26.1121 Q1399.59 26.1121 1403.6 30.9732 Q1407.61 35.7938 1407.61 45.1919 Z" fill="#000000" fill-rule="nonzero" fill-opacity="1" /><path clip-path="url(#clip630)" d="M1424.38 62.2867 L1432.93 62.2867 L1432.93 69.2543 L1426.28 82.2172 L1421.06 82.2172 L1424.38 69.2543 L1424.38 62.2867 Z" fill="#000000" fill-rule="nonzero" fill-opacity="1" /><path clip-path="url(#clip630)" d="M1448.56 9.54393 L1456.06 9.54393 L1456.06 46.7717 L1478.3 27.2059 L1487.82 27.2059 L1463.76 48.4326 L1488.83 72.576 L1479.11 72.576 L1456.06 50.4176 L1456.06 72.576 L1448.56 72.576 L1448.56 9.54393 Z" fill="#000000" fill-rule="nonzero" fill-opacity="1" /><path clip-path="url(#clip630)" d="M1497.86 34.9026 L1549.8 34.9026 L1549.8 41.7081 L1497.86 41.7081 L1497.86 34.9026 M1497.86 51.4303 L1549.8 51.4303 L1549.8 58.3168 L1497.86 58.3168 L1497.86 51.4303 Z" fill="#000000" fill-rule="nonzero" fill-opacity="1" /><path clip-path="url(#clip630)" d="M1574.51 65.6895 L1603.07 65.6895 L1603.07 72.576 L1564.66 72.576 L1564.66 65.6895 Q1569.32 60.8689 1577.34 52.7671 Q1585.4 44.6248 1587.47 42.2752 Q1591.4 37.8598 1592.94 34.8216 Q1594.52 31.7429 1594.52 28.7857 Q1594.52 23.9651 1591.12 20.927 Q1587.75 17.8888 1582.33 17.8888 Q1578.48 17.8888 1574.18 19.2256 Q1569.93 20.5624 1565.07 23.2765 L1565.07 15.0127 Q1570.01 13.0277 1574.3 12.015 Q1578.6 11.0023 1582.16 11.0023 Q1591.56 11.0023 1597.15 15.7013 Q1602.74 20.4004 1602.74 28.2591 Q1602.74 31.9859 1601.32 35.3482 Q1599.95 38.6699 1596.26 43.2069 Q1595.25 44.3817 1589.82 50.0125 Q1584.39 55.6027 1574.51 65.6895 Z" fill="#000000" fill-rule="nonzero" fill-opacity="1" /><path clip-path="url(#clip630)" d="M1621.09 62.2867 L1629.64 62.2867 L1629.64 69.2543 L1623 82.2172 L1617.77 82.2172 L1621.09 69.2543 L1621.09 62.2867 Z" fill="#000000" fill-rule="nonzero" fill-opacity="1" /><path clip-path="url(#clip630)" d="M1648.03 65.6895 L1661.4 65.6895 L1661.4 19.5497 L1646.86 22.4663 L1646.86 15.0127 L1661.32 12.096 L1669.5 12.096 L1669.5 65.6895 L1682.87 65.6895 L1682.87 72.576 L1648.03 72.576 L1648.03 65.6895 Z" fill="#000000" fill-rule="nonzero" fill-opacity="1" /><circle clip-path="url(#clip632)" cx="1269.51" cy="1079.86" r="14.4" fill="#009af9" fill-rule="evenodd" fill-opacity="1" stroke="#000000" stroke-opacity="1" stroke-width="3.2"/>
<circle clip-path="url(#clip632)" cx="1446.49" cy="926.593" r="14.4" fill="#009af9" fill-rule="evenodd" fill-opacity="1" stroke="#000000" stroke-opacity="1" stroke-width="3.2"/>
<circle clip-path="url(#clip632)" cx="1092.54" cy="1233.13" r="14.4" fill="#009af9" fill-rule="evenodd" fill-opacity="1" stroke="#000000" stroke-opacity="1" stroke-width="3.2"/>
<circle clip-path="url(#clip632)" cx="1576.05" cy="1168.35" r="14.4" fill="#009af9" fill-rule="evenodd" fill-opacity="1" stroke="#000000" stroke-opacity="1" stroke-width="3.2"/>
<circle clip-path="url(#clip632)" cx="962.98" cy="991.372" r="14.4" fill="#009af9" fill-rule="evenodd" fill-opacity="1" stroke="#000000" stroke-opacity="1" stroke-width="3.2"/>
<path clip-path="url(#clip630)" d="M2011.46 270.476 L2280.54 270.476 L2280.54 166.796 L2011.46 166.796  Z" fill="#ffffff" fill-rule="evenodd" fill-opacity="1"/>
<polyline clip-path="url(#clip630)" style="stroke:#000000; stroke-linecap:round; stroke-linejoin:round; stroke-width:4; stroke-opacity:1; fill:none" points="2011.46,270.476 2280.54,270.476 2280.54,166.796 2011.46,166.796 2011.46,270.476 "/>
<circle clip-path="url(#clip630)" cx="2107.75" cy="218.636" r="20.48" fill="#009af9" fill-rule="evenodd" fill-opacity="1" stroke="#000000" stroke-opacity="1" stroke-width="4.55111"/>
<path clip-path="url(#clip630)" d="M2217.88 238.323 Q2216.07 242.953 2214.36 244.365 Q2212.65 245.777 2209.78 245.777 L2206.38 245.777 L2206.38 242.212 L2208.88 242.212 Q2210.63 242.212 2211.61 241.379 Q2212.58 240.545 2213.76 237.443 L2214.52 235.499 L2204.04 209.99 L2208.55 209.99 L2216.65 230.268 L2224.76 209.99 L2229.27 209.99 L2217.88 238.323 Z" fill="#000000" fill-rule="nonzero" fill-opacity="1" /><path clip-path="url(#clip630)" d="M2236.56 231.981 L2244.2 231.981 L2244.2 205.615 L2235.89 207.282 L2235.89 203.022 L2244.15 201.356 L2248.83 201.356 L2248.83 231.981 L2256.47 231.981 L2256.47 235.916 L2236.56 235.916 L2236.56 231.981 Z" fill="#000000" fill-rule="nonzero" fill-opacity="1" /></svg>
