<?xml version="1.0" encoding="UTF-8"?>
<svg xmlns="http://www.w3.org/2000/svg" xmlns:xlink="http://www.w3.org/1999/xlink" width="500" height="500" viewBox="0 0 500 500">
<path fill-rule="nonzero" fill="rgb(100%, 0%, 0%)" fill-opacity="1" d="M 270 250 C 270 261.046875 261.046875 270 250 270 C 238.953125 270 230 261.046875 230 250 C 230 238.953125 238.953125 230 250 230 C 261.046875 230 270 238.953125 270 250 Z M 270 250 "/>
<path fill-rule="nonzero" fill="rgb(100%, 0%, 0%)" fill-opacity="1" d="M 270 450 C 270 461.046875 261.046875 470 250 470 C 238.953125 470 230 461.046875 230 450 C 230 438.953125 238.953125 430 250 430 C 261.046875 430 270 438.953125 270 450 Z M 270 450 "/>
<path fill-rule="nonzero" fill="rgb(100%, 0%, 0%)" fill-opacity="1" d="M 270 50 C 270 61.046875 261.046875 70 250 70 C 238.953125 70 230 61.046875 230 50 C 230 38.953125 238.953125 30 250 30 C 261.046875 30 270 38.953125 270 50 Z M 270 50 "/>
<path fill-rule="nonzero" fill="rgb(100%, 0%, 0%)" fill-opacity="1" d="M 270 391.421875 C 270 402.46875 261.046875 411.421875 250 411.421875 C 238.953125 411.421875 230 402.46875 230 391.421875 C 230 380.375 238.953125 371.421875 250 371.421875 C 261.046875 371.421875 270 380.375 270 391.421875 Z M 270 391.421875 "/>
<path fill-rule="nonzero" fill="rgb(100%, 0%, 0%)" fill-opacity="1" d="M 270 108.578125 C 270 119.625 261.046875 128.578125 250 128.578125 C 238.953125 128.578125 230 119.625 230 108.578125 C 230 97.53125 238.953125 88.578125 250 88.578125 C 261.046875 88.578125 270 97.53125 270 108.578125 Z M 270 108.578125 "/>
<path fill-rule="nonzero" fill="rgb(100%, 0%, 0%)" fill-opacity="1" d="M 270 434.777344 C 270 445.820312 261.046875 454.777344 250 454.777344 C 238.953125 454.777344 230 445.820312 230 434.777344 C 230 423.730469 238.953125 414.777344 250 414.777344 C 261.046875 414.777344 270 423.730469 270 434.777344 Z M 270 434.777344 "/>
<path fill-rule="nonzero" fill="rgb(100%, 0%, 0%)" fill-opacity="1" d="M 270 326.535156 C 270 337.582031 261.046875 346.535156 250 346.535156 C 238.953125 346.535156 230 337.582031 230 326.535156 C 230 315.492188 238.953125 306.535156 250 306.535156 C 261.046875 306.535156 270 315.492188 270 326.535156 Z M 270 326.535156 "/>
<path fill-rule="nonzero" fill="rgb(100%, 0%, 0%)" fill-opacity="1" d="M 270 173.464844 C 270 184.507812 261.046875 193.464844 250 193.464844 C 238.953125 193.464844 230 184.507812 230 173.464844 C 230 162.417969 238.953125 153.464844 250 153.464844 C 261.046875 153.464844 270 162.417969 270 173.464844 Z M 270 173.464844 "/>
<path fill-rule="nonzero" fill="rgb(100%, 0%, 0%)" fill-opacity="1" d="M 270 65.222656 C 270 76.269531 261.046875 85.222656 250 85.222656 C 238.953125 85.222656 230 76.269531 230 65.222656 C 230 54.179688 238.953125 45.222656 250 45.222656 C 261.046875 45.222656 270 54.179688 270 65.222656 Z M 270 65.222656 "/>
<path fill-rule="nonzero" fill="rgb(100%, 0%, 0%)" fill-opacity="1" d="M 270 446.15625 C 270 457.203125 261.046875 466.15625 250 466.15625 C 238.953125 466.15625 230 457.203125 230 446.15625 C 230 435.113281 238.953125 426.15625 250 426.15625 C 261.046875 426.15625 270 435.113281 270 446.15625 Z M 270 446.15625 "/>
<path fill-rule="nonzero" fill="rgb(100%, 0%, 0%)" fill-opacity="1" d="M 270 416.292969 C 270 427.339844 261.046875 436.292969 250 436.292969 C 238.953125 436.292969 230 427.339844 230 416.292969 C 230 405.25 238.953125 396.292969 250 396.292969 C 261.046875 396.292969 270 405.25 270 416.292969 Z M 270 416.292969 "/>
<path fill-rule="nonzero" fill="rgb(100%, 0%, 0%)" fill-opacity="1" d="M 270 361.113281 C 270 372.160156 261.046875 381.113281 250 381.113281 C 238.953125 381.113281 230 372.160156 230 361.113281 C 230 350.066406 238.953125 341.113281 250 341.113281 C 261.046875 341.113281 270 350.066406 270 361.113281 Z M 270 361.113281 "/>
<path fill-rule="nonzero" fill="rgb(100%, 0%, 0%)" fill-opacity="1" d="M 270 289.019531 C 270 300.0625 261.046875 309.019531 250 309.019531 C 238.953125 309.019531 230 300.0625 230 289.019531 C 230 277.972656 238.953125 269.019531 250 269.019531 C 261.046875 269.019531 270 277.972656 270 289.019531 Z M 270 289.019531 "/>
<path fill-rule="nonzero" fill="rgb(100%, 0%, 0%)" fill-opacity="1" d="M 270 210.980469 C 270 222.027344 261.046875 230.980469 250 230.980469 C 238.953125 230.980469 230 222.027344 230 210.980469 C 230 199.9375 238.953125 190.980469 250 190.980469 C 261.046875 190.980469 270 199.9375 270 210.980469 Z M 270 210.980469 "/>
<path fill-rule="nonzero" fill="rgb(100%, 0%, 0%)" fill-opacity="1" d="M 270 138.886719 C 270 149.933594 261.046875 158.886719 250 158.886719 C 238.953125 158.886719 230 149.933594 230 138.886719 C 230 127.839844 238.953125 118.886719 250 118.886719 C 261.046875 118.886719 270 127.839844 270 138.886719 Z M 270 138.886719 "/>
<path fill-rule="nonzero" fill="rgb(100%, 0%, 0%)" fill-opacity="1" d="M 270 83.707031 C 270 94.75 261.046875 103.707031 250 103.707031 C 238.953125 103.707031 230 94.75 230 83.707031 C 230 72.660156 238.953125 63.707031 250 63.707031 C 261.046875 63.707031 270 72.660156 270 83.707031 Z M 270 83.707031 "/>
<path fill-rule="nonzero" fill="rgb(100%, 0%, 0%)" fill-opacity="1" d="M 270 53.84375 C 270 64.886719 261.046875 73.84375 250 73.84375 C 238.953125 73.84375 230 64.886719 230 53.84375 C 230 42.796875 238.953125 33.84375 250 33.84375 C 261.046875 33.84375 270 42.796875 270 53.84375 Z M 270 53.84375 "/>
<path fill-rule="nonzero" fill="rgb(100%, 0%, 0%)" fill-opacity="1" d="M 470 250 C 470 261.046875 461.046875 270 450 270 C 438.953125 270 430 261.046875 430 250 C 430 238.953125 438.953125 230 450 230 C 461.046875 230 470 238.953125 470 250 Z M 470 250 "/>
<path fill-rule="nonzero" fill="rgb(100%, 0%, 0%)" fill-opacity="1" d="M 70 250 C 70 261.046875 61.046875 270 50 270 C 38.953125 270 30 261.046875 30 250 C 30 238.953125 38.953125 230 50 230 C 61.046875 230 70 238.953125 70 250 Z M 70 250 "/>
<path fill-rule="nonzero" fill="rgb(100%, 0%, 0%)" fill-opacity="1" d="M 470 450 C 470 461.046875 461.046875 470 450 470 C 438.953125 470 430 461.046875 430 450 C 430 438.953125 438.953125 430 450 430 C 461.046875 430 470 438.953125 470 450 Z M 470 450 "/>
<path fill-rule="nonzero" fill="rgb(100%, 0%, 0%)" fill-opacity="1" d="M 70 450 C 70 461.046875 61.046875 470 50 470 C 38.953125 470 30 461.046875 30 450 C 30 438.953125 38.953125 430 50 430 C 61.046875 430 70 438.953125 70 450 Z M 70 450 "/>
<path fill-rule="nonzero" fill="rgb(100%, 0%, 0%)" fill-opacity="1" d="M 470 50 C 470 61.046875 461.046875 70 450 70 C 438.953125 70 430 61.046875 430 50 C 430 38.953125 438.953125 30 450 30 C 461.046875 30 470 38.953125 470 50 Z M 470 50 "/>
<path fill-rule="nonzero" fill="rgb(100%, 0%, 0%)" fill-opacity="1" d="M 70 50 C 70 61.046875 61.046875 70 50 70 C 38.953125 70 30 61.046875 30 50 C 30 38.953125 38.953125 30 50 30 C 61.046875 30 70 38.953125 70 50 Z M 70 50 "/>
<path fill-rule="nonzero" fill="rgb(100%, 0%, 0%)" fill-opacity="1" d="M 470 391.421875 C 470 402.46875 461.046875 411.421875 450 411.421875 C 438.953125 411.421875 430 402.46875 430 391.421875 C 430 380.375 438.953125 371.421875 450 371.421875 C 461.046875 371.421875 470 380.375 470 391.421875 Z M 470 391.421875 "/>
<path fill-rule="nonzero" fill="rgb(100%, 0%, 0%)" fill-opacity="1" d="M 70 391.421875 C 70 402.46875 61.046875 411.421875 50 411.421875 C 38.953125 411.421875 30 402.46875 30 391.421875 C 30 380.375 38.953125 371.421875 50 371.421875 C 61.046875 371.421875 70 380.375 70 391.421875 Z M 70 391.421875 "/>
<path fill-rule="nonzero" fill="rgb(100%, 0%, 0%)" fill-opacity="1" d="M 470 108.578125 C 470 119.625 461.046875 128.578125 450 128.578125 C 438.953125 128.578125 430 119.625 430 108.578125 C 430 97.53125 438.953125 88.578125 450 88.578125 C 461.046875 88.578125 470 97.53125 470 108.578125 Z M 470 108.578125 "/>
<path fill-rule="nonzero" fill="rgb(100%, 0%, 0%)" fill-opacity="1" d="M 70 108.578125 C 70 119.625 61.046875 128.578125 50 128.578125 C 38.953125 128.578125 30 119.625 30 108.578125 C 30 97.53125 38.953125 88.578125 50 88.578125 C 61.046875 88.578125 70 97.53125 70 108.578125 Z M 70 108.578125 "/>
<path fill-rule="nonzero" fill="rgb(100%, 0%, 0%)" fill-opacity="1" d="M 470 434.777344 C 470 445.820312 461.046875 454.777344 450 454.777344 C 438.953125 454.777344 430 445.820312 430 434.777344 C 430 423.730469 438.953125 414.777344 450 414.777344 C 461.046875 414.777344 470 423.730469 470 434.777344 Z M 470 434.777344 "/>
<path fill-rule="nonzero" fill="rgb(100%, 0%, 0%)" fill-opacity="1" d="M 70 434.777344 C 70 445.820312 61.046875 454.777344 50 454.777344 C 38.953125 454.777344 30 445.820312 30 434.777344 C 30 423.730469 38.953125 414.777344 50 414.777344 C 61.046875 414.777344 70 423.730469 70 434.777344 Z M 70 434.777344 "/>
<path fill-rule="nonzero" fill="rgb(100%, 0%, 0%)" fill-opacity="1" d="M 470 326.535156 C 470 337.582031 461.046875 346.535156 450 346.535156 C 438.953125 346.535156 430 337.582031 430 326.535156 C 430 315.492188 438.953125 306.535156 450 306.535156 C 461.046875 306.535156 470 315.492188 470 326.535156 Z M 470 326.535156 "/>
<path fill-rule="nonzero" fill="rgb(100%, 0%, 0%)" fill-opacity="1" d="M 70 326.535156 C 70 337.582031 61.046875 346.535156 50 346.535156 C 38.953125 346.535156 30 337.582031 30 326.535156 C 30 315.492188 38.953125 306.535156 50 306.535156 C 61.046875 306.535156 70 315.492188 70 326.535156 Z M 70 326.535156 "/>
<path fill-rule="nonzero" fill="rgb(100%, 0%, 0%)" fill-opacity="1" d="M 470 173.464844 C 470 184.507812 461.046875 193.464844 450 193.464844 C 438.953125 193.464844 430 184.507812 430 173.464844 C 430 162.417969 438.953125 153.464844 450 153.464844 C 461.046875 153.464844 470 162.417969 470 173.464844 Z M 470 173.464844 "/>
<path fill-rule="nonzero" fill="rgb(100%, 0%, 0%)" fill-opacity="1" d="M 70 173.464844 C 70 184.507812 61.046875 193.464844 50 193.464844 C 38.953125 193.464844 30 184.507812 30 173.464844 C 30 162.417969 38.953125 153.464844 50 153.464844 C 61.046875 153.464844 70 162.417969 70 173.464844 Z M 70 173.464844 "/>
<path fill-rule="nonzero" fill="rgb(100%, 0%, 0%)" fill-opacity="1" d="M 470 65.222656 C 470 76.269531 461.046875 85.222656 450 85.222656 C 438.953125 85.222656 430 76.269531 430 65.222656 C 430 54.179688 438.953125 45.222656 450 45.222656 C 461.046875 45.222656 470 54.179688 470 65.222656 Z M 470 65.222656 "/>
<path fill-rule="nonzero" fill="rgb(100%, 0%, 0%)" fill-opacity="1" d="M 70 65.222656 C 70 76.269531 61.046875 85.222656 50 85.222656 C 38.953125 85.222656 30 76.269531 30 65.222656 C 30 54.179688 38.953125 45.222656 50 45.222656 C 61.046875 45.222656 70 54.179688 70 65.222656 Z M 70 65.222656 "/>
<path fill-rule="nonzero" fill="rgb(100%, 0%, 0%)" fill-opacity="1" d="M 411.421875 250 C 411.421875 261.046875 402.46875 270 391.421875 270 C 380.375 270 371.421875 261.046875 371.421875 250 C 371.421875 238.953125 380.375 230 391.421875 230 C 402.46875 230 411.421875 238.953125 411.421875 250 Z M 411.421875 250 "/>
<path fill-rule="nonzero" fill="rgb(100%, 0%, 0%)" fill-opacity="1" d="M 128.578125 250 C 128.578125 261.046875 119.625 270 108.578125 270 C 97.53125 270 88.578125 261.046875 88.578125 250 C 88.578125 238.953125 97.53125 230 108.578125 230 C 119.625 230 128.578125 238.953125 128.578125 250 Z M 128.578125 250 "/>
<path fill-rule="nonzero" fill="rgb(100%, 0%, 0%)" fill-opacity="1" d="M 411.421875 450 C 411.421875 461.046875 402.46875 470 391.421875 470 C 380.375 470 371.421875 461.046875 371.421875 450 C 371.421875 438.953125 380.375 430 391.421875 430 C 402.46875 430 411.421875 438.953125 411.421875 450 Z M 411.421875 450 "/>
<path fill-rule="nonzero" fill="rgb(100%, 0%, 0%)" fill-opacity="1" d="M 128.578125 450 C 128.578125 461.046875 119.625 470 108.578125 470 C 97.53125 470 88.578125 461.046875 88.578125 450 C 88.578125 438.953125 97.53125 430 108.578125 430 C 119.625 430 128.578125 438.953125 128.578125 450 Z M 128.578125 450 "/>
<path fill-rule="nonzero" fill="rgb(100%, 0%, 0%)" fill-opacity="1" d="M 411.421875 50 C 411.421875 61.046875 402.46875 70 391.421875 70 C 380.375 70 371.421875 61.046875 371.421875 50 C 371.421875 38.953125 380.375 30 391.421875 30 C 402.46875 30 411.421875 38.953125 411.421875 50 Z M 411.421875 50 "/>
<path fill-rule="nonzero" fill="rgb(100%, 0%, 0%)" fill-opacity="1" d="M 128.578125 50 C 128.578125 61.046875 119.625 70 108.578125 70 C 97.53125 70 88.578125 61.046875 88.578125 50 C 88.578125 38.953125 97.53125 30 108.578125 30 C 119.625 30 128.578125 38.953125 128.578125 50 Z M 128.578125 50 "/>
<path fill-rule="nonzero" fill="rgb(100%, 0%, 0%)" fill-opacity="1" d="M 411.421875 391.421875 C 411.421875 402.46875 402.46875 411.421875 391.421875 411.421875 C 380.375 411.421875 371.421875 402.46875 371.421875 391.421875 C 371.421875 380.375 380.375 371.421875 391.421875 371.421875 C 402.46875 371.421875 411.421875 380.375 411.421875 391.421875 Z M 411.421875 391.421875 "/>
<path fill-rule="nonzero" fill="rgb(100%, 0%, 0%)" fill-opacity="1" d="M 128.578125 391.421875 C 128.578125 402.46875 119.625 411.421875 108.578125 411.421875 C 97.53125 411.421875 88.578125 402.46875 88.578125 391.421875 C 88.578125 380.375 97.53125 371.421875 108.578125 371.421875 C 119.625 371.421875 128.578125 380.375 128.578125 391.421875 Z M 128.578125 391.421875 "/>
<path fill-rule="nonzero" fill="rgb(100%, 0%, 0%)" fill-opacity="1" d="M 411.421875 108.578125 C 411.421875 119.625 402.46875 128.578125 391.421875 128.578125 C 380.375 128.578125 371.421875 119.625 371.421875 108.578125 C 371.421875 97.53125 380.375 88.578125 391.421875 88.578125 C 402.46875 88.578125 411.421875 97.53125 411.421875 108.578125 Z M 411.421875 108.578125 "/>
<path fill-rule="nonzero" fill="rgb(100%, 0%, 0%)" fill-opacity="1" d="M 128.578125 108.578125 C 128.578125 119.625 119.625 128.578125 108.578125 128.578125 C 97.53125 128.578125 88.578125 119.625 88.578125 108.578125 C 88.578125 97.53125 97.53125 88.578125 108.578125 88.578125 C 119.625 88.578125 128.578125 97.53125 128.578125 108.578125 Z M 128.578125 108.578125 "/>
<path fill-rule="nonzero" fill="rgb(100%, 0%, 0%)" fill-opacity="1" d="M 454.777344 250 C 454.777344 261.046875 445.820312 270 434.777344 270 C 423.730469 270 414.777344 261.046875 414.777344 250 C 414.777344 238.953125 423.730469 230 434.777344 230 C 445.820312 230 454.777344 238.953125 454.777344 250 Z M 454.777344 250 "/>
<path fill-rule="nonzero" fill="rgb(100%, 0%, 0%)" fill-opacity="1" d="M 346.535156 250 C 346.535156 261.046875 337.582031 270 326.535156 270 C 315.492188 270 306.535156 261.046875 306.535156 250 C 306.535156 238.953125 315.492188 230 326.535156 230 C 337.582031 230 346.535156 238.953125 346.535156 250 Z M 346.535156 250 "/>
<path fill-rule="nonzero" fill="rgb(100%, 0%, 0%)" fill-opacity="1" d="M 193.464844 250 C 193.464844 261.046875 184.507812 270 173.464844 270 C 162.417969 270 153.464844 261.046875 153.464844 250 C 153.464844 238.953125 162.417969 230 173.464844 230 C 184.507812 230 193.464844 238.953125 193.464844 250 Z M 193.464844 250 "/>
<path fill-rule="nonzero" fill="rgb(100%, 0%, 0%)" fill-opacity="1" d="M 85.222656 250 C 85.222656 261.046875 76.269531 270 65.222656 270 C 54.179688 270 45.222656 261.046875 45.222656 250 C 45.222656 238.953125 54.179688 230 65.222656 230 C 76.269531 230 85.222656 238.953125 85.222656 250 Z M 85.222656 250 "/>
<path fill-rule="nonzero" fill="rgb(100%, 0%, 0%)" fill-opacity="1" d="M 454.777344 450 C 454.777344 461.046875 445.820312 470 434.777344 470 C 423.730469 470 414.777344 461.046875 414.777344 450 C 414.777344 438.953125 423.730469 430 434.777344 430 C 445.820312 430 454.777344 438.953125 454.777344 450 Z M 454.777344 450 "/>
<path fill-rule="nonzero" fill="rgb(100%, 0%, 0%)" fill-opacity="1" d="M 346.535156 450 C 346.535156 461.046875 337.582031 470 326.535156 470 C 315.492188 470 306.535156 461.046875 306.535156 450 C 306.535156 438.953125 315.492188 430 326.535156 430 C 337.582031 430 346.535156 438.953125 346.535156 450 Z M 346.535156 450 "/>
<path fill-rule="nonzero" fill="rgb(100%, 0%, 0%)" fill-opacity="1" d="M 193.464844 450 C 193.464844 461.046875 184.507812 470 173.464844 470 C 162.417969 470 153.464844 461.046875 153.464844 450 C 153.464844 438.953125 162.417969 430 173.464844 430 C 184.507812 430 193.464844 438.953125 193.464844 450 Z M 193.464844 450 "/>
<path fill-rule="nonzero" fill="rgb(100%, 0%, 0%)" fill-opacity="1" d="M 85.222656 450 C 85.222656 461.046875 76.269531 470 65.222656 470 C 54.179688 470 45.222656 461.046875 45.222656 450 C 45.222656 438.953125 54.179688 430 65.222656 430 C 76.269531 430 85.222656 438.953125 85.222656 450 Z M 85.222656 450 "/>
<path fill-rule="nonzero" fill="rgb(100%, 0%, 0%)" fill-opacity="1" d="M 454.777344 50 C 454.777344 61.046875 445.820312 70 434.777344 70 C 423.730469 70 414.777344 61.046875 414.777344 50 C 414.777344 38.953125 423.730469 30 434.777344 30 C 445.820312 30 454.777344 38.953125 454.777344 50 Z M 454.777344 50 "/>
<path fill-rule="nonzero" fill="rgb(100%, 0%, 0%)" fill-opacity="1" d="M 346.535156 50 C 346.535156 61.046875 337.582031 70 326.535156 70 C 315.492188 70 306.535156 61.046875 306.535156 50 C 306.535156 38.953125 315.492188 30 326.535156 30 C 337.582031 30 346.535156 38.953125 346.535156 50 Z M 346.535156 50 "/>
<path fill-rule="nonzero" fill="rgb(100%, 0%, 0%)" fill-opacity="1" d="M 193.464844 50 C 193.464844 61.046875 184.507812 70 173.464844 70 C 162.417969 70 153.464844 61.046875 153.464844 50 C 153.464844 38.953125 162.417969 30 173.464844 30 C 184.507812 30 193.464844 38.953125 193.464844 50 Z M 193.464844 50 "/>
<path fill-rule="nonzero" fill="rgb(100%, 0%, 0%)" fill-opacity="1" d="M 85.222656 50 C 85.222656 61.046875 76.269531 70 65.222656 70 C 54.179688 70 45.222656 61.046875 45.222656 50 C 45.222656 38.953125 54.179688 30 65.222656 30 C 76.269531 30 85.222656 38.953125 85.222656 50 Z M 85.222656 50 "/>
<path fill-rule="nonzero" fill="rgb(100%, 0%, 0%)" fill-opacity="1" d="M 466.15625 250 C 466.15625 261.046875 457.203125 270 446.15625 270 C 435.113281 270 426.15625 261.046875 426.15625 250 C 426.15625 238.953125 435.113281 230 446.15625 230 C 457.203125 230 466.15625 238.953125 466.15625 250 Z M 466.15625 250 "/>
<path fill-rule="nonzero" fill="rgb(100%, 0%, 0%)" fill-opacity="1" d="M 436.292969 250 C 436.292969 261.046875 427.339844 270 416.292969 270 C 405.25 270 396.292969 261.046875 396.292969 250 C 396.292969 238.953125 405.25 230 416.292969 230 C 427.339844 230 436.292969 238.953125 436.292969 250 Z M 436.292969 250 "/>
<path fill-rule="nonzero" fill="rgb(100%, 0%, 0%)" fill-opacity="1" d="M 381.113281 250 C 381.113281 261.046875 372.160156 270 361.113281 270 C 350.066406 270 341.113281 261.046875 341.113281 250 C 341.113281 238.953125 350.066406 230 361.113281 230 C 372.160156 230 381.113281 238.953125 381.113281 250 Z M 381.113281 250 "/>
<path fill-rule="nonzero" fill="rgb(100%, 0%, 0%)" fill-opacity="1" d="M 309.019531 250 C 309.019531 261.046875 300.0625 270 289.019531 270 C 277.972656 270 269.019531 261.046875 269.019531 250 C 269.019531 238.953125 277.972656 230 289.019531 230 C 300.0625 230 309.019531 238.953125 309.019531 250 Z M 309.019531 250 "/>
<path fill-rule="nonzero" fill="rgb(100%, 0%, 0%)" fill-opacity="1" d="M 230.980469 250 C 230.980469 261.046875 222.027344 270 210.980469 270 C 199.9375 270 190.980469 261.046875 190.980469 250 C 190.980469 238.953125 199.9375 230 210.980469 230 C 222.027344 230 230.980469 238.953125 230.980469 250 Z M 230.980469 250 "/>
<path fill-rule="nonzero" fill="rgb(100%, 0%, 0%)" fill-opacity="1" d="M 158.886719 250 C 158.886719 261.046875 149.933594 270 138.886719 270 C 127.839844 270 118.886719 261.046875 118.886719 250 C 118.886719 238.953125 127.839844 230 138.886719 230 C 149.933594 230 158.886719 238.953125 158.886719 250 Z M 158.886719 250 "/>
<path fill-rule="nonzero" fill="rgb(100%, 0%, 0%)" fill-opacity="1" d="M 103.707031 250 C 103.707031 261.046875 94.75 270 83.707031 270 C 72.660156 270 63.707031 261.046875 63.707031 250 C 63.707031 238.953125 72.660156 230 83.707031 230 C 94.75 230 103.707031 238.953125 103.707031 250 Z M 103.707031 250 "/>
<path fill-rule="nonzero" fill="rgb(100%, 0%, 0%)" fill-opacity="1" d="M 73.84375 250 C 73.84375 261.046875 64.886719 270 53.84375 270 C 42.796875 270 33.84375 261.046875 33.84375 250 C 33.84375 238.953125 42.796875 230 53.84375 230 C 64.886719 230 73.84375 238.953125 73.84375 250 Z M 73.84375 250 "/>
</svg>
