<?xml version="1.0" encoding="utf-8"?>
<svg xmlns="http://www.w3.org/2000/svg" xmlns:xlink="http://www.w3.org/1999/xlink" width="600" height="400" viewBox="0 0 2400 1600">
<defs>
  <clipPath id="clip260">
    <rect x="0" y="0" width="2400" height="1600"/>
  </clipPath>
</defs>
<path clip-path="url(#clip260)" d="M0 1600 L2400 1600 L2400 0 L0 0  Z" fill="#ffffff" fill-rule="evenodd" fill-opacity="1"/>
<defs>
  <clipPath id="clip261">
    <rect x="480" y="0" width="1681" height="1600"/>
  </clipPath>
</defs>
<path clip-path="url(#clip260)" d="M179.297 1419.33 L2352.76 1419.33 L2352.76 123.472 L179.297 123.472  Z" fill="#ffffff" fill-rule="evenodd" fill-opacity="1"/>
<defs>
  <clipPath id="clip262">
    <rect x="179" y="123" width="2174" height="1297"/>
  </clipPath>
</defs>
<polyline clip-path="url(#clip262)" style="stroke:#000000; stroke-linecap:round; stroke-linejoin:round; stroke-width:2; stroke-opacity:0.1; fill:none" points="451.023,1419.33 451.023,123.472 "/>
<polyline clip-path="url(#clip262)" style="stroke:#000000; stroke-linecap:round; stroke-linejoin:round; stroke-width:2; stroke-opacity:0.1; fill:none" points="858.525,1419.33 858.525,123.472 "/>
<polyline clip-path="url(#clip262)" style="stroke:#000000; stroke-linecap:round; stroke-linejoin:round; stroke-width:2; stroke-opacity:0.1; fill:none" points="1266.03,1419.33 1266.03,123.472 "/>
<polyline clip-path="url(#clip262)" style="stroke:#000000; stroke-linecap:round; stroke-linejoin:round; stroke-width:2; stroke-opacity:0.1; fill:none" points="1673.53,1419.33 1673.53,123.472 "/>
<polyline clip-path="url(#clip262)" style="stroke:#000000; stroke-linecap:round; stroke-linejoin:round; stroke-width:2; stroke-opacity:0.1; fill:none" points="2081.03,1419.33 2081.03,123.472 "/>
<polyline clip-path="url(#clip262)" style="stroke:#000000; stroke-linecap:round; stroke-linejoin:round; stroke-width:2; stroke-opacity:0.1; fill:none" points="179.297,1382.65 2352.76,1382.65 "/>
<polyline clip-path="url(#clip262)" style="stroke:#000000; stroke-linecap:round; stroke-linejoin:round; stroke-width:2; stroke-opacity:0.1; fill:none" points="179.297,975.151 2352.76,975.151 "/>
<polyline clip-path="url(#clip262)" style="stroke:#000000; stroke-linecap:round; stroke-linejoin:round; stroke-width:2; stroke-opacity:0.1; fill:none" points="179.297,567.649 2352.76,567.649 "/>
<polyline clip-path="url(#clip262)" style="stroke:#000000; stroke-linecap:round; stroke-linejoin:round; stroke-width:2; stroke-opacity:0.1; fill:none" points="179.297,160.147 2352.76,160.147 "/>
<polyline clip-path="url(#clip260)" style="stroke:#000000; stroke-linecap:round; stroke-linejoin:round; stroke-width:4; stroke-opacity:1; fill:none" points="179.297,1419.33 2352.76,1419.33 "/>
<polyline clip-path="url(#clip260)" style="stroke:#000000; stroke-linecap:round; stroke-linejoin:round; stroke-width:4; stroke-opacity:1; fill:none" points="451.023,1419.33 451.023,1400.43 "/>
<polyline clip-path="url(#clip260)" style="stroke:#000000; stroke-linecap:round; stroke-linejoin:round; stroke-width:4; stroke-opacity:1; fill:none" points="858.525,1419.33 858.525,1400.43 "/>
<polyline clip-path="url(#clip260)" style="stroke:#000000; stroke-linecap:round; stroke-linejoin:round; stroke-width:4; stroke-opacity:1; fill:none" points="1266.03,1419.33 1266.03,1400.43 "/>
<polyline clip-path="url(#clip260)" style="stroke:#000000; stroke-linecap:round; stroke-linejoin:round; stroke-width:4; stroke-opacity:1; fill:none" points="1673.53,1419.33 1673.53,1400.43 "/>
<polyline clip-path="url(#clip260)" style="stroke:#000000; stroke-linecap:round; stroke-linejoin:round; stroke-width:4; stroke-opacity:1; fill:none" points="2081.03,1419.33 2081.03,1400.43 "/>
<path clip-path="url(#clip260)" d="M451.023 1450.25 Q447.412 1450.25 445.583 1453.81 Q443.777 1457.35 443.777 1464.48 Q443.777 1471.59 445.583 1475.15 Q447.412 1478.7 451.023 1478.7 Q454.657 1478.7 456.463 1475.15 Q458.291 1471.59 458.291 1464.48 Q458.291 1457.35 456.463 1453.81 Q454.657 1450.25 451.023 1450.25 M451.023 1446.54 Q456.833 1446.54 459.889 1451.15 Q462.967 1455.73 462.967 1464.48 Q462.967 1473.21 459.889 1477.82 Q456.833 1482.4 451.023 1482.4 Q445.213 1482.4 442.134 1477.82 Q439.078 1473.21 439.078 1464.48 Q439.078 1455.73 442.134 1451.15 Q445.213 1446.54 451.023 1446.54 Z" fill="#000000" fill-rule="nonzero" fill-opacity="1" /><path clip-path="url(#clip260)" d="M848.907 1477.79 L856.546 1477.79 L856.546 1451.43 L848.235 1453.09 L848.235 1448.83 L856.499 1447.17 L861.175 1447.17 L861.175 1477.79 L868.814 1477.79 L868.814 1481.73 L848.907 1481.73 L848.907 1477.79 Z" fill="#000000" fill-rule="nonzero" fill-opacity="1" /><path clip-path="url(#clip260)" d="M1260.68 1477.79 L1277 1477.79 L1277 1481.73 L1255.05 1481.73 L1255.05 1477.79 Q1257.72 1475.04 1262.3 1470.41 Q1266.91 1465.76 1268.09 1464.41 Q1270.33 1461.89 1271.21 1460.15 Q1272.11 1458.39 1272.11 1456.7 Q1272.11 1453.95 1270.17 1452.21 Q1268.25 1450.48 1265.15 1450.48 Q1262.95 1450.48 1260.49 1451.24 Q1258.06 1452.01 1255.29 1453.56 L1255.29 1448.83 Q1258.11 1447.7 1260.56 1447.12 Q1263.02 1446.54 1265.05 1446.54 Q1270.42 1446.54 1273.62 1449.23 Q1276.81 1451.91 1276.81 1456.4 Q1276.81 1458.53 1276 1460.45 Q1275.22 1462.35 1273.11 1464.95 Q1272.53 1465.62 1269.43 1468.83 Q1266.33 1472.03 1260.68 1477.79 Z" fill="#000000" fill-rule="nonzero" fill-opacity="1" /><path clip-path="url(#clip260)" d="M1677.78 1463.09 Q1681.13 1463.81 1683.01 1466.08 Q1684.91 1468.35 1684.91 1471.68 Q1684.91 1476.8 1681.39 1479.6 Q1677.87 1482.4 1671.39 1482.4 Q1669.21 1482.4 1666.9 1481.96 Q1664.6 1481.54 1662.15 1480.69 L1662.15 1476.17 Q1664.1 1477.31 1666.41 1477.89 Q1668.73 1478.46 1671.25 1478.46 Q1675.65 1478.46 1677.94 1476.73 Q1680.25 1474.99 1680.25 1471.68 Q1680.25 1468.63 1678.1 1466.91 Q1675.97 1465.18 1672.15 1465.18 L1668.12 1465.18 L1668.12 1461.33 L1672.34 1461.33 Q1675.79 1461.33 1677.61 1459.97 Q1679.44 1458.58 1679.44 1455.99 Q1679.44 1453.33 1677.54 1451.91 Q1675.67 1450.48 1672.15 1450.48 Q1670.23 1450.48 1668.03 1450.89 Q1665.83 1451.31 1663.19 1452.19 L1663.19 1448.02 Q1665.85 1447.28 1668.17 1446.91 Q1670.51 1446.54 1672.57 1446.54 Q1677.89 1446.54 1680.99 1448.97 Q1684.1 1451.38 1684.1 1455.5 Q1684.1 1458.37 1682.45 1460.36 Q1680.81 1462.33 1677.78 1463.09 Z" fill="#000000" fill-rule="nonzero" fill-opacity="1" /><path clip-path="url(#clip260)" d="M2084.04 1451.24 L2072.23 1469.69 L2084.04 1469.69 L2084.04 1451.24 M2082.81 1447.17 L2088.69 1447.17 L2088.69 1469.69 L2093.62 1469.69 L2093.62 1473.58 L2088.69 1473.58 L2088.69 1481.73 L2084.04 1481.73 L2084.04 1473.58 L2068.44 1473.58 L2068.44 1469.07 L2082.81 1447.17 Z" fill="#000000" fill-rule="nonzero" fill-opacity="1" /><path clip-path="url(#clip260)" d="M1269.57 1507.71 Q1269.57 1508.55 1269.21 1510.16 Q1268.09 1514.7 1263.87 1517.83 Q1263.16 1518.41 1261.9 1519.15 Q1263.42 1520.14 1264.74 1521.98 Q1266.7 1525.01 1266.7 1529.1 Q1266.7 1531 1266.19 1533.32 Q1264.74 1538.7 1259.65 1542.56 Q1254.53 1546.33 1248.44 1546.33 Q1245.16 1546.33 1242.9 1544.59 Q1240.68 1542.82 1239.81 1539.85 L1235.33 1557.92 Q1235.24 1558.37 1234.66 1558.37 L1234.33 1558.37 Q1233.66 1558.37 1233.66 1557.6 L1243.84 1517.02 Q1244.51 1514.28 1245.61 1511.71 Q1246.7 1509.13 1248.22 1506.81 Q1249.76 1504.49 1251.53 1502.79 Q1253.3 1501.05 1255.49 1500.05 Q1257.68 1499.02 1260 1499.02 Q1264.87 1499.02 1267.64 1502.33 Q1269.57 1504.69 1269.57 1507.71 M1265.86 1506.55 Q1265.86 1504.56 1265.06 1503.17 Q1263.42 1500.53 1259.94 1500.53 Q1257.84 1500.53 1255.85 1501.5 Q1253.88 1502.43 1252.31 1504.04 Q1250.73 1505.65 1249.37 1507.84 Q1248.02 1510.03 1247.02 1512.42 Q1246.06 1514.77 1245.41 1517.34 L1241.45 1533.32 Q1241.07 1535.02 1241.07 1536.54 Q1241.07 1540.14 1243.06 1542.5 Q1245.06 1544.85 1248.51 1544.85 Q1253.08 1544.85 1257.01 1541.43 Q1260.42 1538.37 1261.84 1532.99 Q1262.64 1529.61 1262.64 1527.26 Q1262.64 1524.69 1261.71 1522.69 Q1261.03 1521.08 1259.71 1520.11 Q1257.27 1520.98 1254.79 1520.98 Q1253.59 1520.98 1252.95 1520.95 Q1252.34 1520.92 1251.44 1520.79 Q1250.57 1520.66 1250.15 1520.31 Q1249.76 1519.95 1249.76 1519.4 Q1249.76 1519.08 1249.83 1518.95 Q1249.95 1518.44 1250.37 1518.08 Q1250.79 1517.73 1251.27 1517.57 Q1251.76 1517.37 1252.56 1517.28 Q1253.4 1517.18 1253.95 1517.18 Q1254.5 1517.15 1255.43 1517.15 Q1257.62 1517.15 1259.84 1518.02 Q1260.68 1517.57 1261.58 1516.76 Q1264.45 1514.09 1265.41 1509.84 Q1265.86 1508.26 1265.86 1506.55 M1257.75 1519.02 Q1256.4 1518.66 1255.37 1518.66 Q1251.6 1518.66 1251.4 1519.27 Q1251.4 1519.34 1251.53 1519.4 Q1251.66 1519.44 1251.95 1519.47 Q1252.27 1519.47 1252.53 1519.5 Q1252.82 1519.53 1253.3 1519.53 Q1253.79 1519.53 1254.04 1519.53 Q1254.33 1519.53 1254.85 1519.53 Q1256.14 1519.53 1257.75 1519.02 Z" fill="#000000" fill-rule="nonzero" fill-opacity="1" /><path clip-path="url(#clip260)" d="M1276.26 1550.17 L1276.26 1548.72 Q1281.81 1548.72 1284.67 1545.77 Q1285.46 1545.77 1285.59 1545.95 Q1285.73 1546.13 1285.73 1546.96 L1285.73 1572.87 Q1285.73 1574.24 1286.41 1574.67 Q1287.08 1575.1 1290.04 1575.1 L1291.5 1575.1 L1291.5 1576.52 Q1289.88 1576.38 1284.02 1576.38 Q1278.15 1576.38 1276.55 1576.52 L1276.55 1575.1 L1278.02 1575.1 Q1280.93 1575.1 1281.63 1574.69 Q1282.33 1574.27 1282.33 1572.87 L1282.33 1548.95 Q1279.91 1550.17 1276.26 1550.17 Z" fill="#000000" fill-rule="nonzero" fill-opacity="1" /><polyline clip-path="url(#clip260)" style="stroke:#000000; stroke-linecap:round; stroke-linejoin:round; stroke-width:4; stroke-opacity:1; fill:none" points="179.297,1419.33 179.297,123.472 "/>
<polyline clip-path="url(#clip260)" style="stroke:#000000; stroke-linecap:round; stroke-linejoin:round; stroke-width:4; stroke-opacity:1; fill:none" points="179.297,1382.65 198.195,1382.65 "/>
<polyline clip-path="url(#clip260)" style="stroke:#000000; stroke-linecap:round; stroke-linejoin:round; stroke-width:4; stroke-opacity:1; fill:none" points="179.297,975.151 198.195,975.151 "/>
<polyline clip-path="url(#clip260)" style="stroke:#000000; stroke-linecap:round; stroke-linejoin:round; stroke-width:4; stroke-opacity:1; fill:none" points="179.297,567.649 198.195,567.649 "/>
<polyline clip-path="url(#clip260)" style="stroke:#000000; stroke-linecap:round; stroke-linejoin:round; stroke-width:4; stroke-opacity:1; fill:none" points="179.297,160.147 198.195,160.147 "/>
<path clip-path="url(#clip260)" d="M123.39 1396 L131.029 1396 L131.029 1369.63 L122.718 1371.3 L122.718 1367.04 L130.982 1365.37 L135.658 1365.37 L135.658 1396 L143.297 1396 L143.297 1399.93 L123.39 1399.93 L123.39 1396 Z" fill="#000000" fill-rule="nonzero" fill-opacity="1" /><path clip-path="url(#clip260)" d="M126.978 988.496 L143.297 988.496 L143.297 992.431 L121.353 992.431 L121.353 988.496 Q124.015 985.741 128.598 981.112 Q133.205 976.459 134.385 975.116 Q136.63 972.593 137.51 970.857 Q138.413 969.098 138.413 967.408 Q138.413 964.653 136.468 962.917 Q134.547 961.181 131.445 961.181 Q129.246 961.181 126.793 961.945 Q124.362 962.709 121.584 964.26 L121.584 959.538 Q124.408 958.403 126.862 957.825 Q129.316 957.246 131.353 957.246 Q136.723 957.246 139.917 959.931 Q143.112 962.616 143.112 967.107 Q143.112 969.237 142.302 971.158 Q141.515 973.056 139.408 975.649 Q138.83 976.32 135.728 979.538 Q132.626 982.732 126.978 988.496 Z" fill="#000000" fill-rule="nonzero" fill-opacity="1" /><path clip-path="url(#clip260)" d="M136.167 566.295 Q139.524 567.013 141.399 569.281 Q143.297 571.55 143.297 574.883 Q143.297 579.999 139.779 582.8 Q136.26 585.6 129.779 585.6 Q127.603 585.6 125.288 585.161 Q122.996 584.744 120.543 583.887 L120.543 579.374 Q122.487 580.508 124.802 581.087 Q127.117 581.665 129.64 581.665 Q134.038 581.665 136.33 579.929 Q138.644 578.193 138.644 574.883 Q138.644 571.827 136.492 570.114 Q134.362 568.378 130.543 568.378 L126.515 568.378 L126.515 564.536 L130.728 564.536 Q134.177 564.536 136.005 563.17 Q137.834 561.781 137.834 559.189 Q137.834 556.527 135.936 555.114 Q134.061 553.679 130.543 553.679 Q128.621 553.679 126.422 554.096 Q124.223 554.513 121.584 555.392 L121.584 551.226 Q124.246 550.485 126.561 550.115 Q128.899 549.744 130.959 549.744 Q136.283 549.744 139.385 552.175 Q142.487 554.582 142.487 558.702 Q142.487 561.573 140.843 563.564 Q139.2 565.531 136.167 566.295 Z" fill="#000000" fill-rule="nonzero" fill-opacity="1" /><path clip-path="url(#clip260)" d="M133.714 146.941 L121.908 165.39 L133.714 165.39 L133.714 146.941 M132.487 142.867 L138.367 142.867 L138.367 165.39 L143.297 165.39 L143.297 169.279 L138.367 169.279 L138.367 177.427 L133.714 177.427 L133.714 169.279 L118.112 169.279 L118.112 164.765 L132.487 142.867 Z" fill="#000000" fill-rule="nonzero" fill-opacity="1" /><path clip-path="url(#clip260)" d="M21.0109 769.439 Q21.8483 769.439 23.4586 769.793 Q27.9996 770.921 31.1235 775.14 Q31.7033 775.848 32.444 777.104 Q33.4424 775.59 35.2781 774.27 Q38.3055 772.305 42.3956 772.305 Q44.2957 772.305 46.6146 772.821 Q51.9929 774.27 55.8577 779.359 Q59.6257 784.479 59.6257 790.566 Q59.6257 793.851 57.8866 796.106 Q56.1153 798.328 53.1524 799.197 L71.2198 803.674 Q71.6707 803.771 71.6707 804.35 L71.6707 804.672 Q71.6707 805.349 70.8978 805.349 L30.3184 795.172 Q27.5809 794.495 25.0044 793.4 Q22.428 792.305 20.1091 790.792 Q17.7903 789.246 16.0834 787.474 Q14.3443 785.703 13.3459 783.513 Q12.3153 781.323 12.3153 779.004 Q12.3153 774.141 15.6325 771.371 Q17.9836 769.439 21.0109 769.439 M19.8515 773.143 Q17.8547 773.143 16.4699 773.948 Q13.829 775.59 13.829 779.069 Q13.829 781.162 14.7952 783.159 Q15.7291 785.123 17.3394 786.701 Q18.9497 788.28 21.1397 789.632 Q23.3297 790.985 25.713 791.983 Q28.064 792.949 30.6405 793.594 L46.6146 797.555 Q48.3215 797.941 49.8352 797.941 Q53.4422 797.941 55.7932 795.945 Q58.1443 793.948 58.1443 790.502 Q58.1443 785.929 54.7304 781.999 Q51.6709 778.586 46.2925 777.169 Q42.9109 776.363 40.5599 776.363 Q37.9834 776.363 35.9866 777.297 Q34.3763 777.974 33.4102 779.294 Q34.2797 781.742 34.2797 784.222 Q34.2797 785.413 34.2475 786.057 Q34.2153 786.669 34.0865 787.571 Q33.9577 788.441 33.6034 788.859 Q33.2491 789.246 32.7016 789.246 Q32.3796 789.246 32.2508 789.181 Q31.7355 789.052 31.3812 788.634 Q31.0269 788.215 30.8659 787.732 Q30.6727 787.249 30.576 786.444 Q30.4794 785.606 30.4794 785.059 Q30.4472 784.511 30.4472 783.577 Q30.4472 781.387 31.3168 779.165 Q30.8659 778.328 30.0608 777.426 Q27.3877 774.56 23.1365 773.594 Q21.5584 773.143 19.8515 773.143 M32.3152 781.259 Q31.9609 782.611 31.9609 783.642 Q31.9609 787.41 32.5728 787.603 Q32.6372 787.603 32.7016 787.474 Q32.7338 787.346 32.766 787.056 Q32.766 786.734 32.7983 786.476 Q32.8305 786.186 32.8305 785.703 Q32.8305 785.22 32.8305 784.962 Q32.8305 784.672 32.8305 784.157 Q32.8305 782.869 32.3152 781.259 Z" fill="#000000" fill-rule="nonzero" fill-opacity="1" /><path clip-path="url(#clip260)" d="M89.8178 762.746 Q88.9837 762.746 88.7357 762.679 Q88.4877 762.588 88.1045 762.228 L78.2301 753.368 Q72.7745 748.521 68.0177 748.521 Q64.9291 748.521 62.7198 750.144 Q60.5105 751.745 60.5105 754.698 Q60.5105 756.727 61.7504 758.44 Q62.9903 760.154 65.1997 760.943 Q65.1546 760.807 65.1546 760.334 Q65.1546 759.184 65.876 758.553 Q66.5974 757.899 67.5668 757.899 Q68.8067 757.899 69.4154 758.711 Q70.0015 759.5 70.0015 760.289 Q70.0015 760.604 69.9339 761.033 Q69.8663 761.439 69.235 762.092 Q68.5813 762.746 67.4315 762.746 Q64.2077 762.746 61.6377 760.311 Q59.0677 757.854 59.0677 754.112 Q59.0677 749.873 61.5926 747.101 Q64.095 744.305 68.0177 744.305 Q69.3929 744.305 70.6553 744.733 Q71.8953 745.139 72.8646 745.703 Q73.834 746.244 75.3896 747.732 Q76.9451 749.22 78.0498 750.415 Q79.1545 751.609 81.499 754.292 L86.2558 759.184 L86.2558 750.865 Q86.2558 746.807 85.8951 746.492 Q85.2414 746.041 81.7921 745.477 L81.7921 744.305 L89.8178 745.613 L89.8178 762.746 Z" fill="#000000" fill-rule="nonzero" fill-opacity="1" /><path clip-path="url(#clip260)" d="M886.031 12.096 L898.225 12.096 L913.659 53.2532 L929.174 12.096 L941.367 12.096 L941.367 72.576 L933.386 72.576 L933.386 19.4686 L917.791 60.9499 L909.567 60.9499 L893.971 19.4686 L893.971 72.576 L886.031 72.576 L886.031 12.096 Z" fill="#000000" fill-rule="nonzero" fill-opacity="1" /><path clip-path="url(#clip260)" d="M977.906 49.7694 Q968.872 49.7694 965.389 51.8354 Q961.905 53.9013 961.905 58.8839 Q961.905 62.8538 964.497 65.2034 Q967.131 67.5124 971.627 67.5124 Q977.825 67.5124 981.552 63.1374 Q985.319 58.7219 985.319 51.4303 L985.319 49.7694 L977.906 49.7694 M992.773 46.6907 L992.773 72.576 L985.319 72.576 L985.319 65.6895 Q982.767 69.8214 978.959 71.8063 Q975.151 73.7508 969.642 73.7508 Q962.675 73.7508 958.543 69.8619 Q954.451 65.9325 954.451 59.3701 Q954.451 51.7138 959.555 47.825 Q964.7 43.9361 974.868 43.9361 L985.319 43.9361 L985.319 43.2069 Q985.319 38.0623 981.916 35.2672 Q978.554 32.4315 972.437 32.4315 Q968.548 32.4315 964.862 33.3632 Q961.176 34.295 957.773 36.1584 L957.773 29.2718 Q961.864 27.692 965.713 26.9223 Q969.561 26.1121 973.207 26.1121 Q983.051 26.1121 987.912 31.2163 Q992.773 36.3204 992.773 46.6907 Z" fill="#000000" fill-rule="nonzero" fill-opacity="1" /><path clip-path="url(#clip260)" d="M1034.42 34.1734 Q1033.16 33.4443 1031.66 33.1202 Q1030.2 32.7556 1028.42 32.7556 Q1022.1 32.7556 1018.7 36.8875 Q1015.34 40.9789 1015.34 48.6757 L1015.34 72.576 L1007.84 72.576 L1007.84 27.2059 L1015.34 27.2059 L1015.34 34.2544 Q1017.69 30.1225 1021.45 28.1376 Q1025.22 26.1121 1030.61 26.1121 Q1031.38 26.1121 1032.31 26.2337 Q1033.24 26.3147 1034.38 26.5172 L1034.42 34.1734 Z" fill="#000000" fill-rule="nonzero" fill-opacity="1" /><path clip-path="url(#clip260)" d="M1070.63 49.3643 Q1070.63 41.2625 1067.27 36.8065 Q1063.95 32.3505 1057.91 32.3505 Q1051.92 32.3505 1048.55 36.8065 Q1045.23 41.2625 1045.23 49.3643 Q1045.23 57.4256 1048.55 61.8816 Q1051.92 66.3376 1057.91 66.3376 Q1063.95 66.3376 1067.27 61.8816 Q1070.63 57.4256 1070.63 49.3643 M1078.08 66.9452 Q1078.08 78.5308 1072.94 84.1616 Q1067.8 89.8329 1057.18 89.8329 Q1053.25 89.8329 1049.77 89.2252 Q1046.29 88.6581 1043 87.4428 L1043 80.1917 Q1046.29 81.9741 1049.49 82.8248 Q1052.69 83.6755 1056.01 83.6755 Q1063.34 83.6755 1066.99 79.8271 Q1070.63 76.0193 1070.63 68.282 L1070.63 64.5957 Q1068.32 68.6061 1064.72 70.5911 Q1061.11 72.576 1056.09 72.576 Q1047.74 72.576 1042.64 66.2161 Q1037.54 59.8562 1037.54 49.3643 Q1037.54 38.832 1042.64 32.472 Q1047.74 26.1121 1056.09 26.1121 Q1061.11 26.1121 1064.72 28.0971 Q1068.32 30.082 1070.63 34.0924 L1070.63 27.2059 L1078.08 27.2059 L1078.08 66.9452 Z" fill="#000000" fill-rule="nonzero" fill-opacity="1" /><path clip-path="url(#clip260)" d="M1093.44 27.2059 L1100.89 27.2059 L1100.89 72.576 L1093.44 72.576 L1093.44 27.2059 M1093.44 9.54393 L1100.89 9.54393 L1100.89 18.9825 L1093.44 18.9825 L1093.44 9.54393 Z" fill="#000000" fill-rule="nonzero" fill-opacity="1" /><path clip-path="url(#clip260)" d="M1154.2 45.1919 L1154.2 72.576 L1146.75 72.576 L1146.75 45.4349 Q1146.75 38.994 1144.24 35.7938 Q1141.72 32.5936 1136.7 32.5936 Q1130.67 32.5936 1127.18 36.4419 Q1123.7 40.2903 1123.7 46.9338 L1123.7 72.576 L1116.2 72.576 L1116.2 27.2059 L1123.7 27.2059 L1123.7 34.2544 Q1126.37 30.163 1129.98 28.1376 Q1133.62 26.1121 1138.36 26.1121 Q1146.18 26.1121 1150.19 30.9732 Q1154.2 35.7938 1154.2 45.1919 Z" fill="#000000" fill-rule="nonzero" fill-opacity="1" /><path clip-path="url(#clip260)" d="M1195.76 12.096 L1207.96 12.096 L1223.39 53.2532 L1238.91 12.096 L1251.1 12.096 L1251.1 72.576 L1243.12 72.576 L1243.12 19.4686 L1227.52 60.9499 L1219.3 60.9499 L1203.7 19.4686 L1203.7 72.576 L1195.76 72.576 L1195.76 12.096 Z" fill="#000000" fill-rule="nonzero" fill-opacity="1" /><path clip-path="url(#clip260)" d="M1266.25 54.671 L1266.25 27.2059 L1273.7 27.2059 L1273.7 54.3874 Q1273.7 60.8284 1276.21 64.0691 Q1278.73 67.2693 1283.75 67.2693 Q1289.79 67.2693 1293.27 63.421 Q1296.79 59.5726 1296.79 52.9291 L1296.79 27.2059 L1304.25 27.2059 L1304.25 72.576 L1296.79 72.576 L1296.79 65.6084 Q1294.08 69.7404 1290.47 71.7658 Q1286.91 73.7508 1282.17 73.7508 Q1274.35 73.7508 1270.3 68.8897 Q1266.25 64.0286 1266.25 54.671 M1285 26.1121 L1285 26.1121 Z" fill="#000000" fill-rule="nonzero" fill-opacity="1" /><path clip-path="url(#clip260)" d="M1319.6 9.54393 L1327.05 9.54393 L1327.05 72.576 L1319.6 72.576 L1319.6 9.54393 Z" fill="#000000" fill-rule="nonzero" fill-opacity="1" /><path clip-path="url(#clip260)" d="M1350.02 14.324 L1350.02 27.2059 L1365.37 27.2059 L1365.37 32.9987 L1350.02 32.9987 L1350.02 57.6282 Q1350.02 63.1779 1351.52 64.7578 Q1353.06 66.3376 1357.72 66.3376 L1365.37 66.3376 L1365.37 72.576 L1357.72 72.576 Q1349.09 72.576 1345.81 69.3758 Q1342.53 66.1351 1342.53 57.6282 L1342.53 32.9987 L1337.06 32.9987 L1337.06 27.2059 L1342.53 27.2059 L1342.53 14.324 L1350.02 14.324 Z" fill="#000000" fill-rule="nonzero" fill-opacity="1" /><path clip-path="url(#clip260)" d="M1375.18 27.2059 L1382.63 27.2059 L1382.63 72.576 L1375.18 72.576 L1375.18 27.2059 M1375.18 9.54393 L1382.63 9.54393 L1382.63 18.9825 L1375.18 18.9825 L1375.18 9.54393 Z" fill="#000000" fill-rule="nonzero" fill-opacity="1" /><path clip-path="url(#clip260)" d="M1394.46 46.5287 L1416.29 46.5287 L1416.29 53.1722 L1394.46 53.1722 L1394.46 46.5287 Z" fill="#000000" fill-rule="nonzero" fill-opacity="1" /><path clip-path="url(#clip260)" d="M1428.49 12.096 L1436.67 12.096 L1436.67 72.576 L1428.49 72.576 L1428.49 12.096 Z" fill="#000000" fill-rule="nonzero" fill-opacity="1" /><path clip-path="url(#clip260)" d="M1490.35 45.1919 L1490.35 72.576 L1482.89 72.576 L1482.89 45.4349 Q1482.89 38.994 1480.38 35.7938 Q1477.87 32.5936 1472.85 32.5936 Q1466.81 32.5936 1463.33 36.4419 Q1459.84 40.2903 1459.84 46.9338 L1459.84 72.576 L1452.35 72.576 L1452.35 27.2059 L1459.84 27.2059 L1459.84 34.2544 Q1462.52 30.163 1466.12 28.1376 Q1469.77 26.1121 1474.51 26.1121 Q1482.32 26.1121 1486.33 30.9732 Q1490.35 35.7938 1490.35 45.1919 Z" fill="#000000" fill-rule="nonzero" fill-opacity="1" /><path clip-path="url(#clip260)" d="M1535.07 34.0924 L1535.07 9.54393 L1542.52 9.54393 L1542.52 72.576 L1535.07 72.576 L1535.07 65.7705 Q1532.72 69.8214 1529.11 71.8063 Q1525.55 73.7508 1520.52 73.7508 Q1512.3 73.7508 1507.12 67.1883 Q1501.97 60.6258 1501.97 49.9314 Q1501.97 39.2371 1507.12 32.6746 Q1512.3 26.1121 1520.52 26.1121 Q1525.55 26.1121 1529.11 28.0971 Q1532.72 30.0415 1535.07 34.0924 M1509.67 49.9314 Q1509.67 58.1548 1513.03 62.8538 Q1516.43 67.5124 1522.35 67.5124 Q1528.26 67.5124 1531.66 62.8538 Q1535.07 58.1548 1535.07 49.9314 Q1535.07 41.7081 1531.66 37.0496 Q1528.26 32.3505 1522.35 32.3505 Q1516.43 32.3505 1513.03 37.0496 Q1509.67 41.7081 1509.67 49.9314 Z" fill="#000000" fill-rule="nonzero" fill-opacity="1" /><path clip-path="url(#clip260)" d="M1596.68 48.0275 L1596.68 51.6733 L1562.41 51.6733 Q1562.9 59.3701 1567.03 63.421 Q1571.2 67.4314 1578.61 67.4314 Q1582.91 67.4314 1586.92 66.3781 Q1590.97 65.3249 1594.94 63.2184 L1594.94 70.267 Q1590.93 71.9684 1586.72 72.8596 Q1582.5 73.7508 1578.17 73.7508 Q1567.31 73.7508 1560.95 67.4314 Q1554.63 61.1119 1554.63 50.3365 Q1554.63 39.1965 1560.63 32.6746 Q1566.66 26.1121 1576.87 26.1121 Q1586.03 26.1121 1591.33 32.0264 Q1596.68 37.9003 1596.68 48.0275 M1589.23 45.84 Q1589.15 39.7232 1585.78 36.0774 Q1582.46 32.4315 1576.95 32.4315 Q1570.72 32.4315 1566.95 35.9558 Q1563.22 39.4801 1562.65 45.8805 L1589.23 45.84 Z" fill="#000000" fill-rule="nonzero" fill-opacity="1" /><path clip-path="url(#clip260)" d="M1645.17 27.2059 L1628.76 49.2833 L1646.02 72.576 L1637.23 72.576 L1624.03 54.752 L1610.82 72.576 L1602.03 72.576 L1619.65 48.8377 L1603.53 27.2059 L1612.32 27.2059 L1624.35 43.369 L1636.38 27.2059 L1645.17 27.2059 Z" fill="#000000" fill-rule="nonzero" fill-opacity="1" /><circle clip-path="url(#clip262)" cx="858.525" cy="160.147" r="14.4" fill="#009af9" fill-rule="evenodd" fill-opacity="1" stroke="#000000" stroke-opacity="1" stroke-width="3.2"/>
<circle clip-path="url(#clip262)" cx="1266.03" cy="975.151" r="14.4" fill="#009af9" fill-rule="evenodd" fill-opacity="1" stroke="#000000" stroke-opacity="1" stroke-width="3.2"/>
<circle clip-path="url(#clip262)" cx="1266.03" cy="567.649" r="14.4" fill="#009af9" fill-rule="evenodd" fill-opacity="1" stroke="#000000" stroke-opacity="1" stroke-width="3.2"/>
<circle clip-path="url(#clip262)" cx="1673.53" cy="1382.65" r="14.4" fill="#009af9" fill-rule="evenodd" fill-opacity="1" stroke="#000000" stroke-opacity="1" stroke-width="3.2"/>
</svg>
